<svg xmlns="http://www.w3.org/2000/svg" viewBox="0 0 796.37 735.68"><defs><style>.cls-1{fill:#fff;fill-rule:evenodd;}</style></defs><title>main_logo_1</title><g id="圖層_2" data-name="圖層 2"><g id="_h_1" data-name="ϼh 1"><path class="cls-1" d="M100.17,227.94l22.89,1.63,24.71,0,24.43-1.08,23.49.11,7.6,29.83-.1,12.17L202,294.74l-3.88,21.75-22.63,1.32-12.17.75-11.57-.71-11.72.81-23.72-.08-12-.47-6.08-19.6-.42-37.94L96.2,249.66,97,237.51l3.21-9.57ZM151.58,15.71,137.34,2.43,114,2.29,107.8,47l-49.45,2L31.73,47.17l-27.32.45-1,17.11,27.46-1,54-1.55,22,6.1L110.19,93,80.86,107.07l-7.64,21.38L38.49,178.26,25.63,193.85,14.29,210.17,0,225.74l7.74,10.38,31.12-26.69,14.56-14.89,13.33-2L66,240.87l-2.11,52.44.19,27.3,1.36,23.67,22.3,2.51,17.46-10.94,25.59-2.9,26.73-.67,52.31-.12,54.81-.76,26.83.69,26.94-.08,24.84-2.32-1.59-16.44-18.08-10.49-18.36-6.86L273.45,320l-26.61-1L235,303l-1.09-26.5-2-26.57L260.55,227l27.12-.49L341.09,228l21.23-3.57-5.05-18.71-9-5.16-8.21-5.92-30,12.43-44.56,8.63-27.74.8-8.45-19L230.45,169l24.5-31.8,23.95-4.54,25,1.27,17.39-6.72L291.12,102l-22.61,5-20.67,7.16-45.48,10.67-24.83,3.65L155.41,134l-27.6,2.43,6.7,9.56,27.69,0,13.73.65,13,.86L201.17,190l-1.88,21.41-21.55,3.74-25.78,0-27.41-1L95,195l6.49-22.57-.27-20.23,12.7-14.87,8.84-16.07,8.41-14.54,10.15-18.53,5.48-23,26.29-.85,32.57,21,6.55,20.2,21.16-6.05L254,64.73l27.46,1,25.08-1.6L359,61.91,334.1,33.76l-37.75,16-24.6,1.78-27.31,1.28-11-17.72,11.08-18.77L210.06,3l-7.93,45.87-24.6,2.77-26.91-.25L140.2,33.55Z"/><path class="cls-1" d="M202.74,570.35l41.31,1,16.41,9.9,2.92,24-7.5,6.47-42.72.15-12.58-1.75-4.14-9.6-2.54-11.17,1-12.53,7.81-6.49Zm-98.69-.16,53.76,3.14,4,21L150,609.94l-13.83.64-13.66.66-14.18-.33L93.28,587l10.77-16.79Zm108.63-44.85,24.32,2,18.68,7.23-16.91,25.92-25-1.87-19.08-6.86v-21.5l18-4.88Zm-106-2.39,25,1.57L144.46,526l17.69,8.3-9.67,21.41-7.35-.16-6.39.8-12.36-1.53L94.75,537.57,106.68,523ZM252.3,425.48l-3.44-18.14,10-14.4-39-9.32-2.18,27.28-7.18,16.82-28,.77-38.13-12.28,2-30.65-29.85-2.12L112,390.15l-4.44,30.77-24.5.36H35.54L8.93,418.71,4.78,443.55l26.84-2.68,24.26-.57,23.66-1,35.11,8.59,4.71,36.8,18.82-2.7,5.31-35.83,42.6-5.21,32.2,13.6-28.43,10-22.3-1.95-15,40.13-47.52,1.47-20.83-3.58L66,493.36,59.54,533l2.82,20.78L61.57,576l2.85,21.35-10.25,12.5-24,1-24.64-.93,8.17,22.29,45.81-.94,2.89,12.16-2,21.76L59.26,709l4.16,18.59,19.64-2.72,8.58-36,.27-23L90.83,644l23.34-15.7,28.31-.87L169.41,630l26.15-.37,43.54-2.18,24.79,19,1.5,21.66.56,22.14L258,704.73l-24.08,2-7.6,10.07,13.91,11.73,17.14,7.12,39.7-15.45L296.92,682l2-20.51L298,639.77l27.66-13,23.2-1.09,2.36-35.42-26.5,17.25-20.12-.4-8.17-15.38-.6-19.3L294,550.06l5.85-17.76,5.33-18.81L290,502.54,251,508l-23,1.74L196,497.94l7.36-18.75L217,480l18.71,4.36,12.77-11.71,8-26.88,25.2-3.38L305,440.83l14.2-1.08,14.91-3.38,17.84-.68-5.3-18.24-30.81-1.52L296,428.16Z"/><polygon class="cls-1" points="594.52 188.91 607.84 188.91 646.21 158.76 678.71 108.34 681.59 90.72 684.85 73.41 687.6 55.68 693.54 40.99 706.34 33.11 726.93 32.9 742.43 71.74 743.12 90.83 734.84 123.15 705.1 135.24 703.19 153.2 729.99 168.08 757.25 154.17 773.01 128.53 776.98 71.81 773.76 53.8 777.09 22.16 748.59 7.93 734.48 14.32 681.53 23.81 621.18 24.89 602.7 34.12 623.38 35.34 644.61 35.4 656.88 44.15 653.71 80.5 646.81 114.65 639.57 128.15 632.94 142.18 617.97 153.54 595.83 152.15 545.92 150.13 549.97 139.34 574.82 101.83 584.21 89.62 577.77 77.12 574.42 66.75 601.7 67.99 607.95 56.14 598.35 43.99 570.96 46.95 538.4 43.33 534.77 25.35 543.96 12.93 502.52 0 498.92 34.14 477.99 50.25 440.24 48.98 420.51 48.58 427.45 67.81 491.92 65.51 532.29 64.22 545.94 87.39 528.98 132.31 524.29 145.2 508.38 142.05 502.15 110.84 480.79 90.57 468.24 81.67 454.15 83.48 467.12 109.65 475.61 143.15 474 150.16 452.92 154.57 420.51 160.49 426.33 171.14 489.65 168.72 530.37 167.91 571.53 166.58 591.65 164.84 614.75 160.5 594.52 188.91"/><path class="cls-1" d="M660.57,253.84l.14-20.39,22.66-20.19,10,1,10.87-.46,33.68,8.77.08,10.28L740.42,262l.35,10.05.35,10.41-5,16.3-18.5,3-20.69-1-21.25.19-12.79-8.44-1.06-19.25-1.27-19.47Zm-27.3-49.9-.69,19.83,1,42.14-2.4,61.57,4.23,17,17.92-1,16.1-28.36,10.75-1,22-.63,28.92-.43,19.23,25.11,18.79-3.86,7.46-34.9.07-10.44-.16-10-.12-20.54,2.12-19,2.33-17.61,4.41-15-29.61-15.39-16.37,3.09-14.54,8.17-21.68.89-20.55-2-20.4-2.13-17.25-5.09Z"/><path class="cls-1" d="M529.76,265.26l21.43,6.41,2.18,22.95-12.54,15.43-13.32-.95L515.94,307l-26.2-12.33.72-12.63,13.29-14.69,13.1-.94,12.91-1.11ZM515.07,209.4l12.64.64,21.55,29.34-.89,12.17-20.66,3.79-13-.82-12-1.4-10-17-2.57-11,13.53-13.64,11.39-2.15Zm72,1.92-19.68-19-13.3,6.52L529,202.28l-9.91,0-34.85-5.18L466.56,195l-6.8,12.87.15,37-1.69,36.79-.6,18.6,1.54,8.72-.86,9.13,4.19,15.23,9.3,10.59,14.52-3.9,23.35-16.23,19.85-.43,16.4,3.33,24.27,10.87,13.55-25.38-2.1-17.58-.89-18.14-.13-18.66v-9.54l-1.77-25.64Z"/><polygon class="cls-1" points="634.16 401.47 631.91 392.32 625.95 386.77 605.58 382.81 582.3 405.29 584.26 427.45 585.26 450.35 583.63 494.97 560.17 519.51 514.59 517.97 471.22 514.07 448.41 512.41 428.79 515.58 438.18 541.83 458.99 538.55 501.71 533.35 524.07 531.32 542 559.92 540.08 581.71 537.24 602.69 528.9 641.54 519.49 656.07 511.45 671.94 489.82 697.77 460.47 716.56 443.89 723.86 435.03 735.68 470.34 730.53 502.91 715.38 529.95 694.43 550.48 667.51 571.81 617.16 577.42 575.56 580.5 554.82 607.6 536.62 613.88 575.16 614.94 597.98 614.45 620.91 615.49 663.34 615.47 685.72 618.2 706.48 648.8 723.98 739.67 727.42 783.05 722.89 795.26 710.78 790.89 692.65 789.49 672.54 789.4 651.63 788.72 631.42 775.94 631.77 766.62 670.31 740.85 692.51 718.58 694.48 697.51 696.44 657.01 691.76 650.66 630.39 651.24 565.59 660.92 551.34 669.61 536.11 691.38 534.66 712.91 534.8 733.78 534.9 755.01 535.75 796.37 532.83 793.5 508.42 775.96 504.52 758.57 496.98 728.86 514.88 686.34 519.31 667.17 504.34 691.23 480.49 719.72 461.09 736.81 453.59 735.18 437.21 705.21 419.06 678.22 425.53 672.27 443.29 650.31 492.64 630.03 517.49 620.18 479.4 621.15 435.23 625 415.93 634.16 401.47"/><polygon class="cls-1" points="490.19 417.22 493.26 441.76 508.03 485.97 513.87 500.14 526.91 506.78 541.55 504.08 547.59 490.6 551.61 474.46 538.91 447.47 518.18 428.51 507.05 420.02 490.19 417.22"/></g></g></svg>