<svg xmlns="http://www.w3.org/2000/svg" viewBox="0 0 351.04 135.44"><defs><style>.cls-1{fill:#e4007f;fill-rule:evenodd;}</style></defs><title>logo_1</title><g id="圖層_2" data-name="圖層 2"><g id="_h_1" data-name="ϼh 1"><path class="cls-1" d="M83,107.68l2.13-1.15c0-.32-1.09-3.8-1.28-4.33-.75-2-2.22-1.32-3.48-2.15.53-.35,4.17-.25,5.09-.24,2.86,0,3-.61,3,2.53,0,1,.38,4.52-.52,5a21.86,21.86,0,0,1-5,.36Zm-18,1.11c.9-2,1-4.81,1.37-7,.25-1.53.38-2.13,2.12-2,.68.07,3.73-.09,4,0-.26,1-2.13,2.22-1.83,3.24.64,0-.13-.65,1,.08.34.22.63.46,1,.69.88.62,5.76,3.59,5.75,4.06L65,108.79Zm4.26-22.37c-.11-.51.19-8.83.3-9.16.3-.93,7.35.29,8.46.38,1.73.14,7.38.5,8.69.86s1.18,7,.87,8.37l-3.36,0c.16-.4.34-.39.6-.66.65-.67.09-.16-.13-.44-.85-1.09,1.58-5.24-1.31-5.25.45.44,1.1.29,1.15,1.19-1.8-.42-3.33-.18-5.19-1-.79-.35-3.78-1.79-4.38-1.75-.48.39-1.32,3.39-1.51,4.14-.62,2.47,1.36,2.17,2.13,3.48l-6.32-.19ZM29.57,75.32c.67-.13,9.35-.17,10.93-.21,2,0,3,.14,3.53-2,.57-2.4,0-2.66,1.78-.91.92.93,1.93,1.78,2.86,2.71S50.56,77.18,52,76.2c.92-.65,5.62-4.85,6.14-4.88-1,3.25-2.74,7.11-4,10.42-1.11,3-.73,3.13-4.21,2.93-1-.06-6.12-.31-6.66.13-.07-1.5,1.94-.51,2.79-1.14a5,5,0,0,0-1.82-.08c-1.4.12-.87.66-1.22.43-1-.67-.08,2,0,2.31l.1,1c-3.7-.38-6.34-2.22-9.35-4.08A22.37,22.37,0,0,1,30,80.58c-.6-.77-.9-4.44-.45-5.26Zm15.7-11c-.83.4-16.2-.11-16.68-.27-.45-1.5,1.3-14.19.38-15.71l-11.86-1c-1,1.32-1.41,9.26-1.55,11.37-.09,1.34.89,4.94-1,5s-4.46.1-6.38.1c-1.29,0-5.14-.2-5.87.63s-1.34,4-1.22,5.23c.5,5.19-.27,4,7.79,5.29,1.82.3,3.87.5,5.65.86,2,.41,1.53,3.3,1.58,4.9.08,2.65.18,2.68-2,4.31C9.3,88.71,7.82,89.73,3.9,94.38c-.6.72-1,1.26-.61,2.21.15.41.37.76.55,1.14.37.79-.1.32,0,.81a24.42,24.42,0,0,0,2.48,4.13L4.81,99.54l.4-.14a15.69,15.69,0,0,0,1.09,1.71,18,18,0,0,1,.84,2.06c.49-.45,0-.66,1-1.32,2.4-1.58,8.39-6.53,9.82-7.11a16.3,16.3,0,0,1-.81,2.32,5.21,5.21,0,0,0,.45,2.75c.28-.57-.28-1.75-.12-2.49,0-.09.81-2.09.82-2.1l1.22,7.85C18,102.89,19,98.45,18,97.55c0,1.8-.44-.38-.14,2.9a5,5,0,0,0,.8,2.62c-2.15.41-4.16-.41-5.33,1.56-1.3,2.17.17,2.74,1.48,4.35s1.63,2.58,4.1,2.8c2.12.18,4.38.22,6.54.38,2.85.21,2.76-.4,4.52-2.22.73-.76,2.86-3,3.07-3.83.49-2-2.55-10.25-2-11.57.34.13,2.91,1.81,3.52,2.17,1.24.74,2.43,1.43,3.68,2.19,1.83,1.11,2.15,0,3.31-1.44.47-.56.95-.94,1.37-1.52s.76-1.36,1.12-1.83c0,.52,0,.58.05,2,.67,2.91-.19,1.34,2.14,1.18.76-.05,1.51-.17,2.26-.18s3.57.14,4.06.86c.33.91-1.53,8-1.83,9.49-.24,1.25-.46,10,.07,10.62.24.12,17.72,1.12,19.33,1.12,1.44,0,3.45.09,4.88.23A40.92,40.92,0,0,0,80,119.2c3.28-.11,6.55-.38,9.83-.52a16.93,16.93,0,0,1-2.14,4.22c-1.19.94-3.91.72-5.22.16-1.6-.68-2.88-2.08-4.14-.55s-2.13,2.34-.86,4.2c2,3,2.24,5.94,5.88,6.8,2.71.64,7.55,2.79,10,1.56,2.67-1.33,6.19-2.64,8.65-4,1.28-.72,3.4-6.82,4.15-8.51.93-2.09.49-2.94,3.16-3.12,2.9-.19,3.63.76,3.61-2.75,0-1.42.78-11.72.34-12-.49,1.31.37.93-4.38,1-.37-.66-.63-6.64-.42-7.48.62.17,4.46.67,4.88.35.67-.51,1.57-3.26,1.91-4.17a14.3,14.3,0,0,0,1.28-4.71c.15-1.64.58-4,.65-5.47a10.62,10.62,0,0,1-4.43.6c-1,0-3.91.36-4.61,0-.16-5,.5-10.57.52-15.67,0-1.94.09-2.2-1.78-2.22-1.19,0-2.58-.19-3.78-.29L65.15,63.89c-.21-.35,1.15-2.2,1.49-2.57.86-1,2.48-.7,3.63-.73,2.77-.07,5.56-.27,8.34-.26,5.55,0,11.08-.82,16.64-.14,2.58.31,5.18.55,7.77.84,1.28.15,2.57.36,3.84.49,1.78.19,1.75-.69,2.11-2.15.56-2.29,1.15-4.65,1.75-6.92.29-1.14.64-2.28.9-3.43.3-1.34.71-2.25,1-3.39-2.22.85-2.27.45-4.55.44-1.67,0-3.35-.18-5-.18-3.46,0-6.58-.27-10.1,0-2.58.18-18.49.31-19.83-.72l5.34-10.48c.42-.6,1.12-.61,1.1-1.23-2.43,1-5.33-.33-7.82-.77-1.4-.24-7-1.81-7.94-1-1.43,1.3-10,23.51-11.39,26.92S50.77,61.54,48,63.74c-.4.31-2.48,2-2.69,1.81C44.66,65.05,45.27,64.81,45.27,64.35Z"/><path class="cls-1" d="M113.07,119.86c0-.1.08-.2.11-.3a48.57,48.57,0,0,0,.31-4.86,5.33,5.33,0,0,1,.25-1.37,8.25,8.25,0,0,0-.12-1.54c-.8,1-.33,6.07-.76,7.64,0,.16-.08.3-.12.43Z"/><path class="cls-1" d="M49.46,114.86l-.2-1.79c-.37.63-.16,5.43.46,6a12.48,12.48,0,0,0-.19-2.83c-.13-1.22.15-.64.21-1.44a4.68,4.68,0,0,1,.15-1.44l.14,2c.33-.48.12-2.81.26-3.6.44-2.43,0-1.75-.18-3.23a10.61,10.61,0,0,1,.14-3.51,11.79,11.79,0,0,0,.58-3.28c-.45.53-1.37,5.07-1.36,6a27.07,27.07,0,0,1,.06,3.5C49.41,112.43,49.55,113.65,49.46,114.86Z"/><path class="cls-1" d="M51.59,58.54l.35.06v.5a23.8,23.8,0,0,0,2.38-5.38c-.81.88-1.17,2.89-1.94,3.8a72.19,72.19,0,0,1,2.92-7.11c.14.32-.46,1.11-.38,1.72a65.27,65.27,0,0,0,2.75-7.22c-.81.46-1.41,3.76-2.22,4.53,0-.76,3.31-7.82,3-8.82-.1.11-3.25,8.26-3.43,8.93C54.24,52.42,52.4,55.63,51.59,58.54Z"/><path class="cls-1" d="M103.52,130l.27-1.06c-.39.1-.61,1-.81,1.39-.53.89-.3.59-1.16,1.11a30.09,30.09,0,0,1-2.73,1.28c-.47.25-.23.1-.35.33a13.81,13.81,0,0,0,3.89-1.83,12.35,12.35,0,0,0,.85-1.14,2,2,0,0,1-.29.79c-.33.69-.09.15,0,.66-1,1.25-6.49,2.89-6.8,3.69a31.42,31.42,0,0,0,4.48-2.07c1.74-.79,2.25-.57,3-2,.55-1.07,0-.63.16-1.17s.73-1.76.92-2.39a42.75,42.75,0,0,1,3-7.13C106.4,120.85,104.06,129.66,103.52,130Z"/><path class="cls-1" d="M113,45.53c-.91,1-1,2.44-1.25,3.62S111,51.7,110.73,53a3.09,3.09,0,0,0-.07,2,7.81,7.81,0,0,1-.52,1.91,11.94,11.94,0,0,1-1.55,3.44c-.34.08-.25-.12-.58,0-.47,1.16,1,1.83.86,1-.18-1.32.21-1.2.76-2.27,2.11-4.13.92-4.62,1.48-6.54.24-.81.52-1.6.75-2.4.28-1,.34-2.89.92-3.61C113.06,46.15,113.33,46,113,45.53Z"/><path class="cls-1" d="M12.19,106.65c.21,1.19-.4.13.9,2,.68.18,1.55,1.81,1.81,2.34s.62,1.48,1.5,1.68a10.78,10.78,0,0,0-2.53-3.74,3.91,3.91,0,0,1-1.39-2.52c-.16-.58-.14-.15-.26-.6a11.49,11.49,0,0,0-.2-1.37,2.19,2.19,0,0,0-.11,1.19C12,106.34,11.77,106.35,12.19,106.65Z"/><path class="cls-1" d="M8.33,87.38c1-.33,2.61-2.14,2.94-2.27l.46-.08c.25-.09.44-.42.93-.56C12.38,85.1,7.6,88,6.85,89.6c1.08-.3,5.49-4.7,6.59-5.41.88-.56,1.66-1.16,1.62-2.3-.49,1.26-.64.61-2.42,1.91a18.67,18.67,0,0,0-2.75,2A10.57,10.57,0,0,0,8.33,87.38Z"/><path class="cls-1" d="M113.58,111.25c.39-.89-.26-.77.61-3a7.17,7.17,0,0,0-.06-3.32c0-.16,0-.32,0-.48h-.46c-.11.87.08,2.54,0,3.42S113.06,110.64,113.58,111.25Z"/><path class="cls-1" d="M78.23,131.92a7.26,7.26,0,0,0-.51-1.23c-.23-.5-.18-.91-.41-1.44-.37-.84-.83-1.6-1.15-2.48a3.33,3.33,0,0,1,.09-3c.23-.48,1.12-1.91,1.57-2.07,0,.28-2.4,3-1.62,4.18.12-.17.08-.49.11-.73a7,7,0,0,1,2-3.5c.34-.23,1.32-.7,1.41-.78a3.8,3.8,0,0,0-3.11,1.25c-2,2.65-1,4.44.15,6.66C77.2,129.62,77.68,131.53,78.23,131.92Z"/><path class="cls-1" d="M73.41,45.1a15.46,15.46,0,0,0,3.51.33c1.2-.15,2.54.37,3.55-.09-.46-.3-5.65-.28-6.29-.71-.25-.43.48-1,.45-1.48s.65-1.07.65-1.68c-.77.24-1.26,2-1.26,2.27C73.68,44.71,73.38,44.78,73.41,45.1Z"/><path class="cls-1" d="M50.56,107.3a22.51,22.51,0,0,0,.77-3.07,18.23,18.23,0,0,1-.5,2.92c-.12.72-.34,2.61,0,3.18.18-1.12,0-2.18.24-3.44.23-1,.47-2,.68-3,.06-.27.11-.54.16-.81.25-1.34-.32.25.08-2.27.24-1.47.84-2.94-.28-2.81.18.54.32.13.25.9-.11,1.17-.43,2.52-.61,3.73-.11.72-.33,1.57-.5,2.3S50.25,106.8,50.56,107.3Z"/><path class="cls-1" d="M56.16,74.48l.71-.62a17.69,17.69,0,0,1-1,1.85c-.53,1.11-2.4,5.85-2.26,6.55.68,0,1.71-3.69,1.94-4.38a47.4,47.4,0,0,0,1.78-4.72A2.44,2.44,0,0,0,56.16,74.48Z"/><path class="cls-1" d="M108.07,85c.77-.45.66-2.9.78-3.75.43-3-.57-2.35-.28-4.08.24-1.46-.38-.57.38-2.37a1.24,1.24,0,0,0,.09-.58c0-1.07.15-5-.18-5.41-.54,1.07-.34,2.91-.36,4.15l-.4,4.16c0,.61-.33,2.49,0,3,.17.31.36-.08.28.85A34.34,34.34,0,0,0,108.07,85Z"/><path class="cls-1" d="M14.74,58.32c0-.38.06-.88-.13-1.18-.37.8.11,3.38.1,4.4a9.84,9.84,0,0,0,0,1.63c.25-.16,0-.07.25-.39a1.75,1.75,0,0,1-.1,1c.71,0,.48-1.16.5-2.06a19.42,19.42,0,0,0,.08-2.3c-.25.23-.16.43-.19.83a2.16,2.16,0,0,1-.19,1c-.23-1.7.34-4.9.09-6.06C14.52,55.82,15.15,57.65,14.74,58.32Z"/><path class="cls-1" d="M9.38,75.85a3.44,3.44,0,0,0,1.62.37l-.26.18c.81.68,2.13.36,2.71.93l.38,3.27c0,.42-.23.7,0,1.11.39-.5.51-3.14.38-3.85-.28-1.6-1.65-1.21-2.93-1.54l.88-.08C11.83,76,9.6,75.57,9.38,75.85Z"/><path class="cls-1" d="M59.08,41c.78-.3,2.05-4.09,2.47-5,.49-1.07,1.64-4.13,2.51-4.83-.9.17-2.73,3.6-3.07,4.41s-.55,1.82-.89,2.74S59.06,40.08,59.08,41Z"/><path class="cls-1" d="M110.62,61.79c.42-.89-.31-2.63.06-4.36.15-.74.1-1.58.23-2.31.07-.45.56-1.81.31-2.1-.38.24-.57,1.49-.67,1.91-.19.81-.07,1.47-.25,2.26S110.12,61.23,110.62,61.79Z"/><path class="cls-1" d="M109.51,76c.35-.38.09-.2.24-.59l-.08,4.86c.6-.62.1-3,.63-3.56.15.93-.18,3.41.15,4,.53-.57.37-5.89.24-6.35s-.14-1.61-.43-1.93c-.54.61,0,1-.31,1.49-.25-.4.15-2,0-2.83-.18.07,0-.28-.26.3A21.89,21.89,0,0,0,109.51,76Z"/><path class="cls-1" d="M16.26,48.52c0-.71.27-1.15.26-1.66-.6.47-.72,2.68-.77,3.45s-.59,3.26-.24,3.88a14.08,14.08,0,0,0,.58-3.09l0,.74c.41-.41.18-2.71.79-4.05.15-.33.5-.76.51-1.08C16.8,46.87,16.5,48.17,16.26,48.52Z"/><path class="cls-1" d="M52.82,84c.82,0,.64-1.57,1.28-3.43.46-1.33,1.3-2.66,1.4-3.36-.52.24-.75,1-1,1.45s-1.7,2.5-1.65,3.38.33-.41.2.83C53,83.29,52.84,83.59,52.82,84Z"/><path class="cls-1" d="M33.08,104.27c.36-.82-.28-3.1-.47-4-.14-.72-.23-1.34-.34-2s-.38-1.14-.51-1.84c.27.12.5.53.74.78l3.24,1.59c-.2-.43-1.88-1.27-2.31-1.5-1-.52-1.61-1.43-2.21-1.74a7.18,7.18,0,0,0,.57,2,39.73,39.73,0,0,1,.87,4.5l.28,1.65A1,1,0,0,0,33.08,104.27Z"/><path class="cls-1" d="M82.93,100.89c.45.46,1.17.63,1.27,1.51l-.44-.43c.06.36.87,2.22,1.06,2.76s.62,2.5,1.31,2.39c.12-.56-.9-3-1.16-3.67S84,100.41,82.93,100.89Z"/><path class="cls-1" d="M36,84.08a6.54,6.54,0,0,0-2-1.43,8.86,8.86,0,0,1-2.2-1.3c-.76-.57-1.4-.84-1.59-1.91L30,77c0-.5.09-.3.14-.67-.71,0-.42.59-.45,1.12a12.42,12.42,0,0,0,.07,1.71c.1,1.13.68,1.55,1.52,2.18S35.09,84.06,36,84.08Z"/><path class="cls-1" d="M44.92,75.19c.62-.18.43-1.55.6-1.88.45.33,1.15,1.14,1.76,1.26-.05-.32-1.2-1.06-1.58-1.38s-.56-1.36-1.19-1.63c.08.78.82,1.3.23,2.84C44.63,74.69,44.38,75,44.92,75.19Z"/><path class="cls-1" d="M88.12,105.94c-.09-1,.13-4.51-.33-5-.21.12-.12.53-.21.29,0,0,0,.05,0,.07-.16-.29.06-.08-.28-.28.09,2.28.71,1.26.28,3.19a6.83,6.83,0,0,0,.09,2.63l0,.07.31.52C88.36,106.81,88.19,106.61,88.12,105.94Z"/><path class="cls-1" d="M87.27,79.82a5.48,5.48,0,0,1-.09,2c-.13-.49-.05-1.21-.44-1.66-.08.68.22,1.84.23,2.62s-.12,1.87,0,2.72l.15-.45c.09.39,0,1.17.31,1.32C87.4,86.34,88,79.92,87.27,79.82Z"/><path class="cls-1" d="M72.58,82.51c.66-.52.77-2.63,1.58-3.21A16.41,16.41,0,0,0,73,82a14.37,14.37,0,0,0-.41,1.5c-.12.68-.27,1.12.18,1.49a8,8,0,0,0,.31-1.66c.3-1.25.87-3.38,1.82-4.38-.58,0-.29.06-.65.15s-.68-.12-1.14,1.14A6.4,6.4,0,0,0,72.58,82.51Z"/><path class="cls-1" d="M37.34,84.47c-.14-.24-.37-.26-.57-.5s-.12-.4-.58-.57c0-.28,0,.31.05-.11s.08.34,0-.13a17.29,17.29,0,0,0-3.55-2.22,4.77,4.77,0,0,1-1.56-1.33c-.38-.89-.07-1.91-.47-2.42a3.82,3.82,0,0,0,.44,3c.73.7,1.93,1,3.4,2.08.49.37,0,0,.2.34C34.71,82.58,36.51,84.41,37.34,84.47Z"/><path class="cls-1" d="M3,96.34c.28-.54-.2-.75.55-1.84a2.29,2.29,0,0,0,0,2.28c.16-.28,0-.77,0-1.14a4.81,4.81,0,0,1,.27-1.17c.11-.53-.16-.26.29-.83a42.37,42.37,0,0,1,3.09-3.92C6.69,89.69,1.92,94.77,3,96.34Z"/><path class="cls-1" d="M75.86,41.47a18.21,18.21,0,0,0,1-1.85,7.77,7.77,0,0,1,.56-.7l.94-2c.15-.53,0-.53.18-1a8.8,8.8,0,0,0,.65-2.07,1.37,1.37,0,0,0-.56.75l-1.15,3C77.21,38.76,75.86,40.49,75.86,41.47Z"/><path class="cls-1" d="M28.61,58.44c.09,1.2,0,4.24.71,5,.53-.78.06-2.12-.19-2.92s.11-2.64-.28-3.23C28.62,57.82,28.8,58.15,28.61,58.44Z"/><path class="cls-1" d="M15,82.85c1-.07.82-1.8.75-2.48s0-2.42-.53-2.91C15,79.94,15.74,80.62,15,82.85Z"/><path class="cls-1" d="M73.57,105.05c.8,1.06,2.38,1.35,3.19,2-1.85-.09-3.54-1.68-4.3-1.75a8.34,8.34,0,0,0,2.12,1.41c2.9,1,1.78.39,2.49.28-.2-.34-1.34-.8-1.74-1A4.54,4.54,0,0,0,73.57,105.05Z"/><path class="cls-1" d="M83.58,64.81c-.37.2-.06-.1-.53.14a5.81,5.81,0,0,0,2.12.56,7.46,7.46,0,0,0,2.61.06C87,65,85.3,65.27,84.57,65c-.19-.06-.22-.14-.37-.19s-.07.05-.39-.08c-.08-.53.06-.48-.2-1C83.43,64.2,83.67,64.22,83.58,64.81Z"/><path class="cls-1" d="M70.87,103.82c.38-.44,0-1.42.69-2.17.4-.45,1.11-.84,1.56-1.3-.36-.21-.69.12-1.05.36a3.74,3.74,0,0,0-1,.67A2.18,2.18,0,0,0,70.87,103.82Z"/><path class="cls-1" d="M74,64.11c0,.17.14.15.07.37-.72,0-2.69,0-3,.35a8.08,8.08,0,0,0,3.12.09c0-.06,0-.11-.13-.38a27.83,27.83,0,0,0,3.8-.31,3.57,3.57,0,0,0-2-.22C74.61,64.23,75.09,63.7,74,64.11Z"/><path class="cls-1" d="M66.18,62.68l.48-.38c.2.58-.2,0,0,.47,1.78-1.23,1.46-1,2.94-1,.13-.34.05.05,0-.44L70,61.3a10.42,10.42,0,0,0-2,.08c-.54,0-.25-.06-.47-.07C67.13,61.29,66.37,62.22,66.18,62.68Z"/><path class="cls-1" d="M39.79,100.07c.7.4,1.73-.9,2.14-1.4.61-.73,1.39-1.39,1.42-2.45-.37.25-.51,1-1.58,2.19A19,19,0,0,1,39.79,100.07Z"/><path class="cls-1" d="M80.3,121.23c.65.41,3.89,1.92,4.5,1.61-.24-.22-1.68-.65-2.2-1a4.66,4.66,0,0,0-1.66-.73C80.52,121.07,80.59,121,80.3,121.23Z"/><path class="cls-1" d="M29.08,60.25a6.71,6.71,0,0,0,.32-2.52A15.44,15.44,0,0,0,29.33,55a.53.53,0,0,0-.12.18L29,57.62A7.75,7.75,0,0,0,29.08,60.25Z"/><path class="cls-1" d="M9.45,101.77c.6-.2,4.28-2.64,4.47-3.13a10.66,10.66,0,0,0-2.3,1.4C11.07,100.41,9.66,101.27,9.45,101.77Z"/><path class="cls-1" d="M28.91,112.74c1-1,2.92-2.5,3.3-3.81a16.73,16.73,0,0,0-1.75,1.85C30,111.24,28.91,112.07,28.91,112.74Z"/><path class="cls-1" d="M109.58,61.68c.32-.46,0-1.12,0-1.85a9.82,9.82,0,0,1,.23-1.13C109,59.07,108.92,61.19,109.58,61.68Z"/><path class="cls-1" d="M65.71,108.52c.91-.16,1.12-3.6.9-3.94a1.66,1.66,0,0,0-.29,1c-.06.35-.13.71-.17,1C66.07,107.16,65.72,108.14,65.71,108.52Z"/><path class="cls-1" d="M1.05,74.48C1,74.06.59,73.29.5,72.65L.21,70.79c-.09-.18,0-.07-.17-.21C-.08,71,0,74.73,1.05,74.48Z"/><path class="cls-1" d="M30.37,110.53c.5,0,1.38-1,1.71-1.43a7.54,7.54,0,0,0,1.46-1.83A17.45,17.45,0,0,0,30.37,110.53Z"/><path class="cls-1" d="M86.86,101.57a3.58,3.58,0,0,0-.2,1.75,6,6,0,0,0,.36,1.83A6.82,6.82,0,0,0,86.86,101.57Z"/><path class="cls-1" d="M6,103c0-.72-1.4-3.31-2-3.57a16.13,16.13,0,0,0,1.37,2.75C5.62,102.64,5.71,102.89,6,103Z"/><path class="cls-1" d="M34.53,75.81c-.07.3-.11.22.09.52.54,0,0-.19.67-.3.31,0,.76,0,1.11,0,.52-.07.39-.17.76-.34s.31,0,.73-.2c-.24-.19-.28-.11-.3-.11l-.44.07A19.82,19.82,0,0,0,34.53,75.81Z"/><path class="cls-1" d="M47.61,75.75l1.59,1.58c.22-.06,0-.38.8.3.15.13.49.44.69.46.57.08.14,0,.29-.07-.31-.23-.59-.32-.92-.54-.92-.61-1.72-1.68-2.32-2.12Z"/><path class="cls-1" d="M113.72,98.73c1.24-.65,2.44-4.54,2.29-6C115.05,93.42,113.43,97.46,113.72,98.73Z"/><path class="cls-1" d="M51,119c.59.41,2.07.38,3.26.52a7.55,7.55,0,0,0,3.53-.18C57.14,119,51.38,119,51,119Z"/><path class="cls-1" d="M75.89,40.1c.42,0,.78-1.05,1-1.38a4,4,0,0,0,.52-1.79c-.6.34-.4.84-.75,1.44A4,4,0,0,0,75.89,40.1Z"/><path class="cls-1" d="M69.21,81.74c.29-.23.39-1.13.45-1.55l.16-1.75C69.09,78.7,69.09,81.23,69.21,81.74Z"/><path class="cls-1" d="M80.94,45.3c.67.91,3.71.38,4.67.09-.31-.45-1.65-.16-2.26-.11A19,19,0,0,0,80.94,45.3Z"/><path class="cls-1" d="M13.32,81.82c-.12-.41.09-.43-.18-.8A3.68,3.68,0,0,0,13,82.77c.81-.72.79-1.14.59-2.73l-.22.76C13.31,81.13,13.33,81.48,13.32,81.82Z"/><path class="cls-1" d="M12.65,105.06c.31-.15.75-1,1.09-1.43s1.33-.9,1.45-1.21A3.49,3.49,0,0,0,12.65,105.06Z"/><path class="cls-1" d="M47.69,63c.48.26.36.16.93-.19a3.23,3.23,0,0,0,1.89-2.47c-.39.47-.66,1.07-1.06,1.49C48.85,62.44,48.07,62.44,47.69,63Z"/><path class="cls-1" d="M85.59,122.25a1.35,1.35,0,0,0,1.37-.59,12.22,12.22,0,0,0,.91-1.44,1.78,1.78,0,0,0-1.08,1C86.46,122,86.15,121.94,85.59,122.25Z"/><path class="cls-1" d="M73.31,105.43a13.4,13.4,0,0,0-2.06-1.52c-.06.42.22.61.6.73a.73.73,0,0,1-.07.17c-.12.3,0-.19,0,.13.38.22.16.2.59.24l-.29-.26C72.65,105.05,72.74,105.47,73.31,105.43Z"/><path class="cls-1" d="M113.07,119.86c0-.1.08-.2.11-.3a48.57,48.57,0,0,0,.31-4.86,5.33,5.33,0,0,1,.25-1.37,8.25,8.25,0,0,0-.12-1.54c-.8,1-.33,6.07-.76,7.64,0,.16-.08.3-.12.43Z"/><path class="cls-1" d="M49.46,114.86l-.2-1.79c-.37.63-.16,5.43.46,6a12.48,12.48,0,0,0-.19-2.83c-.13-1.22.15-.64.21-1.44a4.68,4.68,0,0,1,.15-1.44l.14,2c.33-.48.12-2.81.26-3.6.44-2.43,0-1.75-.18-3.23a10.61,10.61,0,0,1,.14-3.51,11.79,11.79,0,0,0,.58-3.28c-.45.53-1.37,5.07-1.36,6a27.07,27.07,0,0,1,.06,3.5C49.41,112.43,49.55,113.65,49.46,114.86Z"/><path class="cls-1" d="M51.59,58.54l.35.06v.5a23.8,23.8,0,0,0,2.38-5.38c-.81.88-1.17,2.89-1.94,3.8a72.19,72.19,0,0,1,2.92-7.11c.14.32-.46,1.11-.38,1.72a65.27,65.27,0,0,0,2.75-7.22c-.81.46-1.41,3.76-2.22,4.53,0-.76,3.31-7.82,3-8.82-.1.11-3.25,8.26-3.43,8.93C54.24,52.42,52.4,55.63,51.59,58.54Z"/><path class="cls-1" d="M103.52,130l.27-1.06c-.39.1-.61,1-.81,1.39-.53.89-.3.59-1.16,1.11a30.09,30.09,0,0,1-2.73,1.28c-.47.25-.23.1-.35.33a13.81,13.81,0,0,0,3.89-1.83,12.35,12.35,0,0,0,.85-1.14,2,2,0,0,1-.29.79c-.33.69-.09.15,0,.66-1,1.25-6.49,2.89-6.8,3.69a31.42,31.42,0,0,0,4.48-2.07c1.74-.79,2.25-.57,3-2,.55-1.07,0-.63.16-1.17s.73-1.76.92-2.39a42.75,42.75,0,0,1,3-7.13C106.4,120.85,104.06,129.66,103.52,130Z"/><path class="cls-1" d="M113,45.53c-.91,1-1,2.44-1.25,3.62S111,51.7,110.73,53a3.09,3.09,0,0,0-.07,2,7.81,7.81,0,0,1-.52,1.91,11.94,11.94,0,0,1-1.55,3.44c-.34.08-.25-.12-.58,0-.47,1.16,1,1.83.86,1-.18-1.32.21-1.2.76-2.27,2.11-4.13.92-4.62,1.48-6.54.24-.81.52-1.6.75-2.4.28-1,.34-2.89.92-3.61C113.06,46.15,113.33,46,113,45.53Z"/><path class="cls-1" d="M12.19,106.65c.21,1.19-.4.13.9,2,.68.18,1.55,1.81,1.81,2.34s.62,1.48,1.5,1.68a10.78,10.78,0,0,0-2.53-3.74,3.91,3.91,0,0,1-1.39-2.52c-.16-.58-.14-.15-.26-.6a11.49,11.49,0,0,0-.2-1.37,2.19,2.19,0,0,0-.11,1.19C12,106.34,11.77,106.35,12.19,106.65Z"/><path class="cls-1" d="M8.33,87.38c1-.33,2.61-2.14,2.94-2.27l.46-.08c.25-.09.44-.42.93-.56C12.38,85.1,7.6,88,6.85,89.6c1.08-.3,5.49-4.7,6.59-5.41.88-.56,1.66-1.16,1.62-2.3-.49,1.26-.64.61-2.42,1.91a18.67,18.67,0,0,0-2.75,2A10.57,10.57,0,0,0,8.33,87.38Z"/><path class="cls-1" d="M113.58,111.25c.39-.89-.26-.77.61-3a7.17,7.17,0,0,0-.06-3.32c0-.16,0-.32,0-.48h-.46c-.11.87.08,2.54,0,3.42S113.06,110.64,113.58,111.25Z"/><path class="cls-1" d="M78.23,131.92a7.26,7.26,0,0,0-.51-1.23c-.23-.5-.18-.91-.41-1.44-.37-.84-.83-1.6-1.15-2.48a3.33,3.33,0,0,1,.09-3c.23-.48,1.12-1.91,1.57-2.07,0,.28-2.4,3-1.62,4.18.12-.17.08-.49.11-.73a7,7,0,0,1,2-3.5c.34-.23,1.32-.7,1.41-.78a3.8,3.8,0,0,0-3.11,1.25c-2,2.65-1,4.44.15,6.66C77.2,129.62,77.68,131.53,78.23,131.92Z"/><path class="cls-1" d="M73.41,45.1a15.46,15.46,0,0,0,3.51.33c1.2-.15,2.54.37,3.55-.09-.46-.3-5.65-.28-6.29-.71-.25-.43.48-1,.45-1.48s.65-1.07.65-1.68c-.77.24-1.26,2-1.26,2.27C73.68,44.71,73.38,44.78,73.41,45.1Z"/><path class="cls-1" d="M50.56,107.3a22.51,22.51,0,0,0,.77-3.07,18.23,18.23,0,0,1-.5,2.92c-.12.72-.34,2.61,0,3.18.18-1.12,0-2.18.24-3.44.23-1,.47-2,.68-3,.06-.27.11-.54.16-.81.25-1.34-.32.25.08-2.27.24-1.47.84-2.94-.28-2.81.18.54.32.13.25.9-.11,1.17-.43,2.52-.61,3.73-.11.72-.33,1.57-.5,2.3S50.25,106.8,50.56,107.3Z"/><path class="cls-1" d="M56.16,74.48l.71-.62a17.69,17.69,0,0,1-1,1.85c-.53,1.11-2.4,5.85-2.26,6.55.68,0,1.71-3.69,1.94-4.38a47.4,47.4,0,0,0,1.78-4.72A2.44,2.44,0,0,0,56.16,74.48Z"/><path class="cls-1" d="M108.07,85c.77-.45.66-2.9.78-3.75.43-3-.57-2.35-.28-4.08.24-1.46-.38-.57.38-2.37a1.24,1.24,0,0,0,.09-.58c0-1.07.15-5-.18-5.41-.54,1.07-.34,2.91-.36,4.15l-.4,4.16c0,.61-.33,2.49,0,3,.17.31.36-.08.28.85A34.34,34.34,0,0,0,108.07,85Z"/><path class="cls-1" d="M14.74,58.32c0-.38.06-.88-.13-1.18-.37.8.11,3.38.1,4.4a9.84,9.84,0,0,0,0,1.63c.25-.16,0-.07.25-.39a1.75,1.75,0,0,1-.1,1c.71,0,.48-1.16.5-2.06a19.42,19.42,0,0,0,.08-2.3c-.25.23-.16.43-.19.83a2.16,2.16,0,0,1-.19,1c-.23-1.7.34-4.9.09-6.06C14.52,55.82,15.15,57.65,14.74,58.32Z"/><path class="cls-1" d="M9.38,75.85a3.44,3.44,0,0,0,1.62.37l-.26.18c.81.68,2.13.36,2.71.93l.38,3.27c0,.42-.23.7,0,1.11.39-.5.51-3.14.38-3.85-.28-1.6-1.65-1.21-2.93-1.54l.88-.08C11.83,76,9.6,75.57,9.38,75.85Z"/><path class="cls-1" d="M59.08,41c.78-.3,2.05-4.09,2.47-5,.49-1.07,1.64-4.13,2.51-4.83-.9.17-2.73,3.6-3.07,4.41s-.55,1.82-.89,2.74S59.06,40.08,59.08,41Z"/><path class="cls-1" d="M110.62,61.79c.42-.89-.31-2.63.06-4.36.15-.74.1-1.58.23-2.31.07-.45.56-1.81.31-2.1-.38.24-.57,1.49-.67,1.91-.19.81-.07,1.47-.25,2.26S110.12,61.23,110.62,61.79Z"/><path class="cls-1" d="M109.51,76c.35-.38.09-.2.24-.59l-.08,4.86c.6-.62.1-3,.63-3.56.15.93-.18,3.41.15,4,.53-.57.37-5.89.24-6.35s-.14-1.61-.43-1.93c-.54.61,0,1-.31,1.49-.25-.4.15-2,0-2.83-.18.07,0-.28-.26.3A21.89,21.89,0,0,0,109.51,76Z"/><path class="cls-1" d="M16.26,48.52c0-.71.27-1.15.26-1.66-.6.47-.72,2.68-.77,3.45s-.59,3.26-.24,3.88a14.08,14.08,0,0,0,.58-3.09l0,.74c.41-.41.18-2.71.79-4.05.15-.33.5-.76.51-1.08C16.8,46.87,16.5,48.17,16.26,48.52Z"/><path class="cls-1" d="M52.82,84c.82,0,.64-1.57,1.28-3.43.46-1.33,1.3-2.66,1.4-3.36-.52.24-.75,1-1,1.45s-1.7,2.5-1.65,3.38.33-.41.2.83C53,83.29,52.84,83.59,52.82,84Z"/><path class="cls-1" d="M33.08,104.27c.36-.82-.28-3.1-.47-4-.14-.72-.23-1.34-.34-2s-.38-1.14-.51-1.84c.27.12.5.53.74.78l3.24,1.59c-.2-.43-1.88-1.27-2.31-1.5-1-.52-1.61-1.43-2.21-1.74a7.18,7.18,0,0,0,.57,2,39.73,39.73,0,0,1,.87,4.5l.28,1.65A1,1,0,0,0,33.08,104.27Z"/><path class="cls-1" d="M82.93,100.89c.45.46,1.17.63,1.27,1.51l-.44-.43c.06.36.87,2.22,1.06,2.76s.62,2.5,1.31,2.39c.12-.56-.9-3-1.16-3.67S84,100.41,82.93,100.89Z"/><path class="cls-1" d="M36,84.08a6.54,6.54,0,0,0-2-1.43,8.86,8.86,0,0,1-2.2-1.3c-.76-.57-1.4-.84-1.59-1.91L30,77c0-.5.09-.3.14-.67-.71,0-.42.59-.45,1.12a12.42,12.42,0,0,0,.07,1.71c.1,1.13.68,1.55,1.52,2.18S35.09,84.06,36,84.08Z"/><path class="cls-1" d="M44.92,75.19c.62-.18.43-1.55.6-1.88.45.33,1.15,1.14,1.76,1.26-.05-.32-1.2-1.06-1.58-1.38s-.56-1.36-1.19-1.63c.08.78.82,1.3.23,2.84C44.63,74.69,44.38,75,44.92,75.19Z"/><path class="cls-1" d="M88.12,105.94c-.09-1,.13-4.51-.33-5-.21.12-.12.53-.21.29,0,0,0,.05,0,.07-.16-.29.06-.08-.28-.28.09,2.28.71,1.26.28,3.19a6.83,6.83,0,0,0,.09,2.63l0,.07.31.52C88.36,106.81,88.19,106.61,88.12,105.94Z"/><path class="cls-1" d="M87.27,79.82a5.48,5.48,0,0,1-.09,2c-.13-.49-.05-1.21-.44-1.66-.08.68.22,1.84.23,2.62s-.12,1.87,0,2.72l.15-.45c.09.39,0,1.17.31,1.32C87.4,86.34,88,79.92,87.27,79.82Z"/><path class="cls-1" d="M72.58,82.51c.66-.52.77-2.63,1.58-3.21A16.41,16.41,0,0,0,73,82a14.37,14.37,0,0,0-.41,1.5c-.12.68-.27,1.12.18,1.49a8,8,0,0,0,.31-1.66c.3-1.25.87-3.38,1.82-4.38-.58,0-.29.06-.65.15s-.68-.12-1.14,1.14A6.4,6.4,0,0,0,72.58,82.51Z"/><path class="cls-1" d="M37.34,84.47c-.14-.24-.37-.26-.57-.5s-.12-.4-.58-.57c0-.28,0,.31.05-.11s.08.34,0-.13a17.29,17.29,0,0,0-3.55-2.22,4.77,4.77,0,0,1-1.56-1.33c-.38-.89-.07-1.91-.47-2.42a3.82,3.82,0,0,0,.44,3c.73.7,1.93,1,3.4,2.08.49.37,0,0,.2.34C34.71,82.58,36.51,84.41,37.34,84.47Z"/><path class="cls-1" d="M3,96.34c.28-.54-.2-.75.55-1.84a2.29,2.29,0,0,0,0,2.28c.16-.28,0-.77,0-1.14a4.81,4.81,0,0,1,.27-1.17c.11-.53-.16-.26.29-.83a42.37,42.37,0,0,1,3.09-3.92C6.69,89.69,1.92,94.77,3,96.34Z"/><path class="cls-1" d="M75.86,41.47a18.21,18.21,0,0,0,1-1.85,7.77,7.77,0,0,1,.56-.7l.94-2c.15-.53,0-.53.18-1a8.8,8.8,0,0,0,.65-2.07,1.37,1.37,0,0,0-.56.75l-1.15,3C77.21,38.76,75.86,40.49,75.86,41.47Z"/><path class="cls-1" d="M28.61,58.44c.09,1.2,0,4.24.71,5,.53-.78.06-2.12-.19-2.92s.11-2.64-.28-3.23C28.62,57.82,28.8,58.15,28.61,58.44Z"/><path class="cls-1" d="M15,82.85c1-.07.82-1.8.75-2.48s0-2.42-.53-2.91C15,79.94,15.74,80.62,15,82.85Z"/><path class="cls-1" d="M73.57,105.05c.8,1.06,2.38,1.35,3.19,2-1.85-.09-3.54-1.68-4.3-1.75a8.34,8.34,0,0,0,2.12,1.41c2.9,1,1.78.39,2.49.28-.2-.34-1.34-.8-1.74-1A4.54,4.54,0,0,0,73.57,105.05Z"/><path class="cls-1" d="M83.58,64.81c-.37.2-.06-.1-.53.14a5.81,5.81,0,0,0,2.12.56,7.46,7.46,0,0,0,2.61.06C87,65,85.3,65.27,84.57,65c-.19-.06-.22-.14-.37-.19s-.07.05-.39-.08c-.08-.53.06-.48-.2-1C83.43,64.2,83.67,64.22,83.58,64.81Z"/><path class="cls-1" d="M70.87,103.82c.38-.44,0-1.42.69-2.17.4-.45,1.11-.84,1.56-1.3-.36-.21-.69.12-1.05.36a3.74,3.74,0,0,0-1,.67A2.18,2.18,0,0,0,70.87,103.82Z"/><path class="cls-1" d="M74,64.11c0,.17.14.15.07.37-.72,0-2.69,0-3,.35a8.08,8.08,0,0,0,3.12.09c0-.06,0-.11-.13-.38a27.83,27.83,0,0,0,3.8-.31,3.57,3.57,0,0,0-2-.22C74.61,64.23,75.09,63.7,74,64.11Z"/><path class="cls-1" d="M66.18,62.68l.48-.38c.2.58-.2,0,0,.47,1.78-1.23,1.46-1,2.94-1,.13-.34.05.05,0-.44L70,61.3a10.42,10.42,0,0,0-2,.08c-.54,0-.25-.06-.47-.07C67.13,61.29,66.37,62.22,66.18,62.68Z"/><path class="cls-1" d="M39.79,100.07c.7.4,1.73-.9,2.14-1.4.61-.73,1.39-1.39,1.42-2.45-.37.25-.51,1-1.58,2.19A19,19,0,0,1,39.79,100.07Z"/><path class="cls-1" d="M80.3,121.23c.65.41,3.89,1.92,4.5,1.61-.24-.22-1.68-.65-2.2-1a4.66,4.66,0,0,0-1.66-.73C80.52,121.07,80.59,121,80.3,121.23Z"/><path class="cls-1" d="M29.08,60.25a6.71,6.71,0,0,0,.32-2.52A15.44,15.44,0,0,0,29.33,55a.53.53,0,0,0-.12.18L29,57.62A7.75,7.75,0,0,0,29.08,60.25Z"/><path class="cls-1" d="M9.45,101.77c.6-.2,4.28-2.64,4.47-3.13a10.66,10.66,0,0,0-2.3,1.4C11.07,100.41,9.66,101.27,9.45,101.77Z"/><path class="cls-1" d="M28.91,112.74c1-1,2.92-2.5,3.3-3.81a16.73,16.73,0,0,0-1.75,1.85C30,111.24,28.91,112.07,28.91,112.74Z"/><path class="cls-1" d="M109.58,61.68c.32-.46,0-1.12,0-1.85a9.82,9.82,0,0,1,.23-1.13C109,59.07,108.92,61.19,109.58,61.68Z"/><path class="cls-1" d="M65.71,108.52c.91-.16,1.12-3.6.9-3.94a1.66,1.66,0,0,0-.29,1c-.06.35-.13.71-.17,1C66.07,107.16,65.72,108.14,65.71,108.52Z"/><path class="cls-1" d="M1.05,74.48C1,74.06.59,73.29.5,72.65L.21,70.79c-.09-.18,0-.07-.17-.21C-.08,71,0,74.73,1.05,74.48Z"/><path class="cls-1" d="M30.37,110.53c.5,0,1.38-1,1.71-1.43a7.54,7.54,0,0,0,1.46-1.83A17.45,17.45,0,0,0,30.37,110.53Z"/><path class="cls-1" d="M86.86,101.57a3.58,3.58,0,0,0-.2,1.75,6,6,0,0,0,.36,1.83A6.82,6.82,0,0,0,86.86,101.57Z"/><path class="cls-1" d="M6,103c0-.72-1.4-3.31-2-3.57a16.13,16.13,0,0,0,1.37,2.75C5.62,102.64,5.71,102.89,6,103Z"/><path class="cls-1" d="M34.53,75.81c-.07.3-.11.22.09.52.54,0,0-.19.67-.3.31,0,.76,0,1.11,0,.52-.07.39-.17.76-.34s.31,0,.73-.2c-.24-.19-.28-.11-.3-.11l-.44.07A19.82,19.82,0,0,0,34.53,75.81Z"/><path class="cls-1" d="M47.61,75.75l1.59,1.58c.22-.06,0-.38.8.3.15.13.49.44.69.46.57.08.14,0,.29-.07-.31-.23-.59-.32-.92-.54-.92-.61-1.72-1.68-2.32-2.12Z"/><path class="cls-1" d="M113.72,98.73c1.24-.65,2.44-4.54,2.29-6C115.05,93.42,113.43,97.46,113.72,98.73Z"/><path class="cls-1" d="M51,119c.59.41,2.07.38,3.26.52a7.55,7.55,0,0,0,3.53-.18C57.14,119,51.38,119,51,119Z"/><path class="cls-1" d="M75.89,40.1c.42,0,.78-1.05,1-1.38a4,4,0,0,0,.52-1.79c-.6.34-.4.84-.75,1.44A4,4,0,0,0,75.89,40.1Z"/><path class="cls-1" d="M69.21,81.74c.29-.23.39-1.13.45-1.55l.16-1.75C69.09,78.7,69.09,81.23,69.21,81.74Z"/><path class="cls-1" d="M80.94,45.3c.67.91,3.71.38,4.67.09-.31-.45-1.65-.16-2.26-.11A19,19,0,0,0,80.94,45.3Z"/><path class="cls-1" d="M13.32,81.82c-.12-.41.09-.43-.18-.8A3.68,3.68,0,0,0,13,82.77c.81-.72.79-1.14.59-2.73l-.22.76C13.31,81.13,13.33,81.48,13.32,81.82Z"/><path class="cls-1" d="M12.65,105.06c.31-.15.75-1,1.09-1.43s1.33-.9,1.45-1.21A3.49,3.49,0,0,0,12.65,105.06Z"/><path class="cls-1" d="M47.69,63c.48.26.36.16.93-.19a3.23,3.23,0,0,0,1.89-2.47c-.39.47-.66,1.07-1.06,1.49C48.85,62.44,48.07,62.44,47.69,63Z"/><path class="cls-1" d="M85.59,122.25a1.35,1.35,0,0,0,1.37-.59,12.22,12.22,0,0,0,.91-1.44,1.78,1.78,0,0,0-1.08,1C86.46,122,86.15,121.94,85.59,122.25Z"/><path class="cls-1" d="M73.31,105.43a13.4,13.4,0,0,0-2.06-1.52c-.06.42.22.61.6.73a.73.73,0,0,1-.07.17c-.12.3,0-.19,0,.13.38.22.16.2.59.24l-.29-.26C72.65,105.05,72.74,105.47,73.31,105.43Z"/><path class="cls-1" d="M191.05,27.56l-.29-1.49c-.31.24-.33,3.73-.16,4.13.3-.25.2-1.32.42-1.78.4.72-.37,2.67.17,4.22.09.26,0,1.2.56,1.15.17-.35-.5-1.77-.5-1.77,0-.31.24-.29.33-.59a22,22,0,0,0,.1-2.75l-.3.28c-.13-.36.61-3.16-.34-3.53C190.79,26,191.16,27.06,191.05,27.56Z"/><path class="cls-1" d="M208,34c.42-.55-.12-1.65.24-3a3.92,3.92,0,0,0,0-1c0-.61-.18-1.35-.25-1.94a5,5,0,0,0-.26-2,1.89,1.89,0,0,0-.1,1,4,4,0,0,1,0,.49c-.05.35-.08.16-.15.45a19.46,19.46,0,0,0,.24,4.07C207.82,32.56,207.78,33.78,208,34Z"/><path class="cls-1" d="M208.92,33.15a20.1,20.1,0,0,0-.21-3.07c-.31.31-.31,1.12-.35,1.64S208.3,32.92,208.92,33.15Z"/><path class="cls-1" d="M172.61,33.91c-.28.15-.18-.06-.15.29l6.28.24c-.88-.34.42,0-1.68-.3l3.11-.09A33.26,33.26,0,0,0,172.61,33.91Z"/><path class="cls-1" d="M186,83.29c.74-.13,3.63,0,4.6,0,1.7,0,2.07,1.23,2.1,2.71.11,4.95,1.36,6.27-2.52,6.25-2.81,0-7.1,1.39-6.87-2.32.09-1.42.2-3,.32-4.38.25-3,.19-1.89,2.37-2.27Zm-13.71,1.58c-3.1-.49-8.13-3.34-9.63-5.64a17.57,17.57,0,0,1-2-5.34,14,14,0,0,1,.09-3.38c.2-.41,2.6-.07,3.16-.07,1.29,0,5.19-.27,5.64-1.66a18.11,18.11,0,0,0,.22-6.53c-.62-4-.15-3.19-3.81-3.21-1.11,0-6.09.57-6.52-.29a19,19,0,0,1-.31-3.45c-.1-1.68-.18-1.73-1.72-1.66-1.79.09-12.52.18-13.15,1.28-1,1.67.69,5.39-1.57,5.63-1.26.13-6-.11-6.47.87-.89,1.8-.75,4.08-1.08,6.14-.92,5.78,8.24,1.66,10.52,2.72.68.52.56,2.9.64,3.78.14,1.66.21,2.35-.76,3.67-1.14,1.54-2.89,3.2-4.17,4.69s-9.12,6.49-10.77,6.84c0,.12,2.82,4.12,3.28,4.94,2,3.48,3.11,1.86,4.63,1a31.36,31.36,0,0,0,5.07-3,49,49,0,0,1,4.32-3.44,13.7,13.7,0,0,0-.24,2.52,26,26,0,0,1,.07,2.81c-.06,2.72-.41,2.45-2.78,3-3.61.8-4.91-.25-2.92,6.75,1.54,5.44,1.9,3.59,7.55,3.6h5.78c2.9,0,2.58.42,3.45-2.16L158,108c1.67.35,1.84-7.29,2.1-8.56.32-1.63.41-3.22.61-4.83.08-.65.47-4.85.52-5,0,0,5.17,4.57,6,5.18s2.66,1.82,3.08,2.59c.3.36.77-.3.81-.46.2-.81,1.2-3.46,1.8-3.71.11,1.4.07,2.76.22,4.21.17,1.77.12,2.31,2.07,2.29,8.45-.08,17.43.2,25.76-.09,3.89-.13,5.21,1.42,5.75-2.82s1.2-11.94.85-16.09c-.12-1.5.23-7-.75-7.86-5.22.39-10.7-.19-15.93-.64-2.58-.22-12.48-1.43-14.49-2.41l-.43-.86-2.67,16.11C172.87,85.07,172.89,85,172.28,84.87Z"/><path class="cls-1" d="M171.59,34.36l.92,6.23-.8-3.09L171.47,36l-.2-1.36-.51.93V37.5c.4,2.45.31,2.22.72,4.45.35,1.9.5,3.63,2.59,4.33-.16-.34-.91-.58-1.36-1.42a5.79,5.79,0,0,1-.53-1.71c-.33-1.26-.28-2.31-.59-3.78l.82,2.53.3-.41c-.1,1.68.76,4,2.59,4.19s4.66.06,6.73.06c2.26,0,4.44.08,6.7.08.79,0,2.53-.31,2.88.54a8.41,8.41,0,0,1,.22,3.08c-1.57.93-20-.33-20.6.53-1.21,1.6.25,7.34.63,9.22.5,2.54.54,2.28,3.07,2.29,1.79,0,3.32-.09,5.15,0,6.84.31,14.54-.58,21.2-.06,3.2.25,7.06,0,10.32,0,1.77,0,3.5.09,5.26.09s3.47-.2,5.09-.13l.57.78c.34-.44-.41-5.32-.53-6.19-1.3-9.39-2.54-7.58-6.28-7.14-1.8.22-4.73.78-6.44.59l-.43-5c.88.55,4.55.3,6.16.29,1.25,0,.74.17,1.59.48l-.25-1.36.67,1.31c.11-.16-.84-5.29-1-6-.87-4.44.35-3.55-6.59-4.24-1.26-.13-2,0-2.05-1.51s.58-5.65,0-6.62c-.75-.13-6.1.17-7.54.12-1,0-7-.19-7.48-.44-.26-.19-.36-.78-.39-1.57h-.09a13.84,13.84,0,0,0-.48,1.73c-.06,1.45.13,3.25.15,4.73,0,4.22,2.21,2.95-11.17,2.95-1.56,0-3.09,0-4.64,0C174.88,34.26,172.14,34.89,171.59,34.36Z"/><path class="cls-1" d="M239.39,67.51c-.09-1,.41-.69.59-1.83a54.13,54.13,0,0,0,.29-7.06c0-1.57.68-3.22.46-4.51a3.58,3.58,0,0,0-.3-.89H240a2.18,2.18,0,0,1,.44,1.36l-.62-1.06a14.74,14.74,0,0,1,.17,3.36c-.11,1.17-.15,2.39-.21,3.57-.05,1,0,2.67-.17,3.61a29.25,29.25,0,0,1-1,2.75c.36-1.14,1.07-11.53.6-12.24-.41-.1-3-.14-3.72-.2L231.73,54l-5.9-.32c-.73-.11-.6-.66-1.08-.88L226,68.24c-2.11,0-14.64-2.08-15.41-1.09-1.24,1.6-.95,5.3-.5,7.12.39,1.58,1.19,5.43,2,6.65l14.39-1.62c.61.68,1.62,10.6,1.88,12.33.31,2.09.58,4.18.86,6.28.41,3.2,1.11,3.21-2,4.4-1.72.65-3.38,1.37-5.08,2-2.6,1-3.45.72-2.56,3.73.56,1.9.71,4,1.19,5.92s3.36,1,5.39,1c5.34-.13,7.19.49,11.76-2.47,5.43-3.51,5.55-1.48,5.35-8.56-.2-6.76-.87-13.07-1.56-19.78-.09-.82-.69-6-.66-6.23.62.53,1.67,1.46,2.7.88l-1.76-.47,6.72-.8c.5-.8-1-10-1.68-10.8Z"/><path class="cls-1" d="M209.1,103.65c-1.74.24-.89.45-2.92,0-1-.2-2.05-.35-3.09-.53s-5.51-1.21-6.13-.69c-1,.82-3.33,9.18-3.68,10.83-.6,2.93-.68,3.23-3.73,3.61-3.52.43-2.82-.18-3.33-3.47-.35-2.28-1.29-10.63-2.28-12.13-1.13-.28-6.11.66-7.38,1.16-4.67,1.82-5.42.88-4.9,3.29.94,4.39,2.73,9.14,3.84,13.45a29.64,29.64,0,0,0-5.42-.67c-2.93-.22-2.93-.71-3.27,2.31a18.71,18.71,0,0,0,0,5.49c.37,2.83.29,2.78,3.15,2.59,7.59-.48,15.27-.5,22.86-1,3.71-.26,7.71-.37,11.45-.5,1.8-.07,10.07.11,10.85-1.08,1.24-1.88.55-8-.49-9.88-.79-1.4-7.94.26-10.53,0,1-2.81.23-4.5,2.38-7.66l-.45,1.41,1.74-3.21-.77.63Z"/><path class="cls-1" d="M211,90.54a35.2,35.2,0,0,0,2.18,5.86c.62.92,3.75,2.42,4.86,3.07,3.07,1.8,2.21,1.57,5.06-.33,1.86-1.24,3.65-2,2.33-4.37-1-1.86-4.83-8.82-6.14-9.84C215.16,81.75,210.54,87.86,211,90.54Z"/><path class="cls-1" d="M208,87.34c-.07-.08-.33-3.19-.48-3.75-.31-1.14.2-2.81,0-4-.43-2.17-.45-1.29-.13-3.74.09-.75,1.39-2.86.88-3.32-.33.09-.22.2-.4.46l-.29-.36c-.22.79,0,1.56-.47,2.27-.08-.39,0-1.86-.27-2-.42.63.1,5.66.3,6.65a15.84,15.84,0,0,1,.08,3.51c0,1.15.31,2.13.27,3.35,0,.75.27,1,.22,1.72s.17,1,.14,1.64c0,.29-.12.62-.12.85,0,.42.27.32.35.71s-.08,1.26,0,1.77a8.31,8.31,0,0,1-.19,3.44,11.16,11.16,0,0,0,0,1.76c-.06.42-.27,1.29-.07,1.65.34-.29.33-1,.34-1.44s0-.31.22-.69a21.15,21.15,0,0,0,.29-3.9,7.11,7.11,0,0,1-.2-1.51c0-.41.26-.44.18-.78s-.27,0-.32-.44c-.06-.56.8-2.33.5-2.81l-.64,2.08c-.07-1,.69-5,.18-5.63C207.9,85.25,208.38,87,208,87.34Z"/><path class="cls-1" d="M130.36,90.11a2.85,2.85,0,0,0,.51,1.08c.23-.44,0,0,0-.45.47.74,1,1.5,1.52,2.23.84,1.2.59,1.47,1.18,2.53.25.44.73,1.06,1.08,1.58h.39c-.2-.34-.46-.65-.76-1.06a18.48,18.48,0,0,1-1.08-2.31c-.48-.81-.93-1.33-1.43-2.08-1.12-1.69-.78-.89-1.08-1.13S130.78,90.25,130.36,90.11Z"/><path class="cls-1" d="M169.48,59.2c1.18,4,.67,9.7.75,9.91.72-.12.26-5,.19-5.79-.11-1.41-.19-2.76-.4-4.12Z"/><path class="cls-1" d="M214.91,114.84l.36.86c-.38-.18-.17-.57-.72-.58a10.51,10.51,0,0,1,.92,2c-.33-.44-.5-1.85-1.42-1.84.15.36.73.65,1,1.59a34,34,0,0,1,.86,4.48c0,.46-.07,2.34,0,2.5.61,0,.36-4.75.34-4.84-.12-.48-.29-1-.4-1.52l.23.57a20.1,20.1,0,0,1,.95,3.39,14.29,14.29,0,0,1-.32,4.43c.42.11-.43,0,.19,0,.3,0-.19-.14.16,0l.08.64c.35-.35.48-2.58.45-3.14-.22-4-.81-3.79-1-4.62S215.92,115.16,214.91,114.84Z"/><path class="cls-1" d="M172.72,80.45c.15-.42.5-1.7.94-2,.16.64-1,2.94-.48,3.39.42-.27,1.15-5.38,1.29-6.18a18.1,18.1,0,0,1,.83-2.91,9.42,9.42,0,0,0,.14-3.38c-.34.23-.25.78-.22,1.09,0,.49-.09.86-.09,1.33a5,5,0,0,1-.61,2.37c-.15.42-.43.62-.5,1.07s-.13.81-.22,1.24a15.34,15.34,0,0,1-.62,2.34c-.19-.39.59-1.69.42-2.26a8.29,8.29,0,0,0-.69,1.84A4.07,4.07,0,0,0,172.72,80.45Z"/><path class="cls-1" d="M191.05,27.56l-.29-1.49c-.31.24-.33,3.73-.16,4.13.3-.25.2-1.32.42-1.78.4.72-.37,2.67.17,4.22.09.26,0,1.2.56,1.15.17-.35-.5-1.77-.5-1.77,0-.31.24-.29.33-.59a22,22,0,0,0,.1-2.75l-.3.28c-.13-.36.61-3.16-.34-3.53C190.79,26,191.16,27.06,191.05,27.56Z"/><path class="cls-1" d="M184.78,101.35c.33,1.12.44,2.56.67,3.73.26,1.33.65,2.24.8,3.59s.25,2.68.44,4c.11.71.19,3.3.92,3.47l-.9-7.2c0-.46-.12-.4-.18-.76-.19-.55-.05-1.53-.27-1.49C185.65,106.09,185.65,101.53,184.78,101.35Z"/><path class="cls-1" d="M244,102.87c.09.89,0,1.72.1,2.62.23,2.87.79,4.35-1.76,6a19.27,19.27,0,0,0-3.11,2c.46,0,3.24-1.73,3.78-2.1,2.28-1.55,1.15-2.89,1.49-4.28l.24.65c.34-.74-.15-1-.17-1.76-.06-1.61.36-5.28,0-5.74l-.19.91c-.39-.84,0-2.39-.34-2.9-.75,1.3-.11,3-.1,3.28C244,102,243.9,102.38,244,102.87Z"/><path class="cls-1" d="M192.71,113c.18-.19.06,0,.17-.34,1-3.1,1.79-5.93,3-9.2.27-.76.42-1.06.17-1.38a19.94,19.94,0,0,0-1,2.4c-.33.88-.34,1.24-.67,2.07a15.39,15.39,0,0,1-1.17,3A16.68,16.68,0,0,0,192.71,113Z"/><path class="cls-1" d="M243.51,99.29c.71-1.17-.38-5.2-.54-7.37-.12-1.61.29-1.49.23-2.24a13.68,13.68,0,0,1-.17-2.61c.34-2-.22-2.69.11-3.89.05-.22,0-.11.08-.31.2-.4.21.17.29-.46s.13-2.12-.29-2.37c-.26.31-.15,1-.13,1.44,0,.63-.13.8-.12,1.32.05,1.57-.52-.13-.26,2.39a7.18,7.18,0,0,1-.07,2.77c0,1,.15,1.92.05,2.91l-.19,0A21.59,21.59,0,0,0,243,95C243.44,96.85,243.26,98.81,243.51,99.29Z"/><path class="cls-1" d="M167.9,128.79c0-.08-.66-1.78-.75-2.14a19.9,19.9,0,0,1-.53-2.46c0-.3-.1-1.16-.16-1.37-.19-.61-.35-.11-.33-1.16a10.5,10.5,0,0,0,0-2.62c-1.22,1-.61,10.16,1,10.67a7.12,7.12,0,0,0-.58-1.48,28.62,28.62,0,0,1-.8-5.13,1.12,1.12,0,0,1,.4-.12C166.32,124,166.38,129,167.9,128.79Z"/><path class="cls-1" d="M236.41,114.22c-.51,0-1.41.63-3.25,1-.74.13-2.9.37-3.42.83.15.26,0,.15.41.29.5-.3.57-.09,1.06-.36.34-.48,2.23-.45,2.91-.59A5.91,5.91,0,0,0,236.41,114.22Z"/><path class="cls-1" d="M172.52,110.44a24.7,24.7,0,0,1-.94-3.28c-.56-2.39.44-3.08.28-3.57-.73,0-.82,1.86-.77,2.4a20.57,20.57,0,0,0,.62,2.7c.45,1.73.84,3.49,1.28,5.22.37.21-.1-.06.26,0,.38,1,.74,4.65,1.41,4.86.11-.38-1.28-4.83-1.13-5.22.29.41.29,1.53.7,1.78a27.27,27.27,0,0,0-1-4.14c-.23.53.2,1.17.13,1.72-.32-.31-.56-2.83-.9-3.35Z"/><path class="cls-1" d="M192.68,113.09a8.18,8.18,0,0,0-.62,2.71C192.53,115.46,192.74,113.51,192.68,113.09Z"/><path class="cls-1" d="M135.38,62.11c-.21.09-.06,0-.24.18l-.15.23c-.44.72-1.28,4.12-1,4.39.45-.68.43-2.08.8-2.86.13,1.68-1.18,3.82-.55,4.41a24.75,24.75,0,0,0,.83-4.15c.21-1.62,1.67-2.19,1-3.94-.59.52.06,1.56-.62,2.16Z"/><path class="cls-1" d="M223,61.69c1-1.15-.57-5.81-.64-7.49a9.29,9.29,0,0,0-.73-3.62c-.3-.74-1.08-2.38-2-2.6a9.47,9.47,0,0,1,1.65,2.73c.74,1.59.68,3.48,1,5.35.23,1.48.64,1.29.64,3.62C222.89,60.22,222.68,61.29,223,61.69Z"/><path class="cls-1" d="M141.78,97.15c-1.05-.06-1.66,1.3-1.54,2.26A20.4,20.4,0,0,0,141,103c.29.87,1,2.19.91,3a5.3,5.3,0,0,0,1.22,2.75c.1-.67-2.15-6.06-2.23-7.89a11.32,11.32,0,0,0,1,2.35c.27-1-2.17-4.22-.77-5.23.45-.33,1.48-.73,1.6-.87l-1.2.35Z"/><path class="cls-1" d="M216.48,40.51l.11-.41a35.7,35.7,0,0,1,.77,4.14c.09.28.19.25.27.54s0,.36.18.62c.35-.27,0-2-.1-2.42l-.2.07c-.25-1.24-1.15-8.09-2.18-8.49-.27.3.23,1,.35,1.33C216.27,37.66,216,39.58,216.48,40.51Z"/><path class="cls-1" d="M160.39,100.75c.53-.75.39-3.39.59-4.47.14-.81.62-4.08.15-4.61-.26.4-.12,2.22-.47,2.94,0-.38.08-.47-.12-.74a24.09,24.09,0,0,0-.34,5.51l.26-.34C160.43,99.57,160.12,100.27,160.39,100.75Z"/><path class="cls-1" d="M214.54,98.31c-2.34-1.46-2-1.89-3-4.22l.31-.06a16.89,16.89,0,0,0-1.2-4.23A9.08,9.08,0,0,0,211,92c.29,1.4.4.8.32,2-.05.83,1,2.71,1.47,3.43S218,100.79,219,101A39.33,39.33,0,0,0,214.54,98.31Z"/><path class="cls-1" d="M236.3,114.22c.84,0,4.77-2.56,5.7-3.17a3.5,3.5,0,0,0,1.6-2.82,19.75,19.75,0,0,0-.06-2l-.21-2c-.17.75-.07,3.2-.14,4.24-.09,1.4-.63,1.8-1.76,2.43-.88.49-1.83,1-2.67,1.55-1.46,1-.5.55-1.19,1A5.13,5.13,0,0,0,236.3,114.22Z"/><path class="cls-1" d="M220.92,116.29c.22-.48-.68-1.52-.94-2.39a16,16,0,0,1-.7-2.83l-.23-2.2c.06-.32.17-.17.1-.7-.36-2.78,0-2,0-3-1.16.12-.49,3.57-.34,4.53.09.54-.15.54,0,1.36.12.53.2,1.06.31,1.6a7.82,7.82,0,0,0,.49,1.27C219.88,114.42,220.44,116,220.92,116.29Z"/><path class="cls-1" d="M208,34c.42-.55-.12-1.65.24-3a3.92,3.92,0,0,0,0-1c0-.61-.18-1.35-.25-1.94a5,5,0,0,0-.26-2,1.89,1.89,0,0,0-.1,1,4,4,0,0,1,0,.49c-.05.35-.08.16-.15.45a19.46,19.46,0,0,0,.24,4.07C207.82,32.56,207.78,33.78,208,34Z"/><path class="cls-1" d="M250.22,79.09c1-.83.3-3.39.19-4.39-.06-.47,0-1.18-.29-1.53-.26.34,0,1.27-.06,1.86-.11-.74-.7-5.25-.87-5.49-.2.5.51,4.82.68,6,.13.85.32.4.39,1.09C250.39,77.85,250.05,78.82,250.22,79.09Z"/><path class="cls-1" d="M205.62,114.44c.87-.43.12-1.81.51-2.69s.72-1.47,1-2.38,2-4,1.91-4.56c-.69.55-1.92,3.76-2.28,4.71s-.38.58-.63.91a6.36,6.36,0,0,0-.51,1.27c-.11.67.22.57.07,1.39C205.63,113.51,205.43,114.09,205.62,114.44Z"/><path class="cls-1" d="M163.12,92.36c.57,1,1.1,1,1.9,1.78,1.57,1.48,2.67,1.41,4.33,2.74,1.07.86.58,2.35,1,2.79a3.06,3.06,0,0,0-.67-2.91,11.12,11.12,0,0,0-2.26-1.36C166.25,94.83,164,92.65,163.12,92.36Z"/><path class="cls-1" d="M224,102.75a10.11,10.11,0,0,0,2.62-.88c.81-.34,1.86-.56,2-1.54s-.41-5.57-.81-6.19c-.27,1.3.68,5.71.57,6.27C228.13,101.54,225.16,101.77,224,102.75Z"/><path class="cls-1" d="M163.67,79.37a12.08,12.08,0,0,1-1.57-3.3c-1-2.93-.1-3.43-.66-4.24a3.78,3.78,0,0,0-.31,2.23,8.68,8.68,0,0,0,.62,2.06C162.08,77.08,162.5,79.13,163.67,79.37Z"/><path class="cls-1" d="M144.79,95.21c.62,0,1.28-.95,1.79-1.19-.17.47-.71.75-1,1.16-.68,1-3.45,1.83-4.14,2.38,0,0,0,.07-.06,0s0,0,0,.06a18.17,18.17,0,0,0,2.71-.88c.54-.19,2-.66,2.09-1.31l-1.67.92c.55-.76,2.55-1.62,2.3-2.8A6.19,6.19,0,0,0,144.79,95.21Z"/><path class="cls-1" d="M226.66,87.53c-.64,1.37.58,5.92,1.21,6.13,0-.34-.46-1.85-.55-2.51s.23-2.35-.38-2.61l0,1.16A5.71,5.71,0,0,0,226.66,87.53Z"/><path class="cls-1" d="M161.79,77.61l.71,1.67s0,0,0,0c-.08.56.78,1,1.26,1.37l2.54,1.7a1.61,1.61,0,0,0,.73.26.29.29,0,0,0,.23-.06,10.29,10.29,0,0,1-1.72-1c-.48-.48.15-.2-.61-.73a14.3,14.3,0,0,1-2.1-1.82C162.23,78.38,162.19,77.68,161.79,77.61Z"/><path class="cls-1" d="M145,77.58a3.38,3.38,0,0,0,.61-2.5h.16c0-.37,0-.75,0-1.13s.68-2.46-.24-2.85c-.31.62,0,1.87-.13,2.16s-.32-.13-.2.76a5.14,5.14,0,0,1-.4,3.44Z"/><path class="cls-1" d="M207,99.7c.69-.81.33-1.13.49-2.18.05-.3.08-.59.11-.89.07-.65.45-3.1,0-3.47-.61,1.39.18,3.63-1.25,6.42.44-.07.35-.17.62-.47C206.92,99.54,206.78,99.35,207,99.7Z"/><path class="cls-1" d="M171.3,104.19a25.46,25.46,0,0,1,3.54-1.37c.6-.19,1.26-.48,1.84-.63a3.82,3.82,0,0,0,1.69-.66c-.7-.12-3,.72-3.73,1S171.58,103.25,171.3,104.19Z"/><path class="cls-1" d="M160.12,58.5a13,13,0,0,0,0-2.74c0-.62.13-2-.76-2.14.15.51.25.43.24,1.05l.18,3.32C159.9,58.49,160,58.43,160.12,58.5Z"/><path class="cls-1" d="M210.38,89a1.27,1.27,0,0,1,.33-.47l.07,0a5.19,5.19,0,0,0,1.31-1.78c.2-.41.11-.56.35-.89a16.84,16.84,0,0,1,1.22-1.46c.69-.7,1.21-.91,1.37-1.23-1.05.18-2.11,1.66-2.76,2.52a9.89,9.89,0,0,1-1.12,1.56A2.41,2.41,0,0,0,210.38,89Z"/><path class="cls-1" d="M138,84.07c1-.25,3.17-1.75,3.4-2.73.19-.82,1.9-1.86,2-3.1-.45.46-1,1.19-1.46,1.72-.26.3-.42.59-.71.93-.6.71-.29.52-.29.87A8.86,8.86,0,0,1,139.54,83,5.71,5.71,0,0,0,138,84.07Z"/><path class="cls-1" d="M174.46,46.26c.66.84,1.49.7,2.45.52s2.86-.41,3.71-.61c-1.52-.52-3.94.21-4.87.3C175.14,46.53,175,46.32,174.46,46.26Z"/><path class="cls-1" d="M223.06,100.05a8.26,8.26,0,0,0,1.52-1.16c-.72.07-1.55,1-2.13,1.37-.32.21-.73.53-1,.7s-.79.33-1.11.54c.3.13.33,0,.57,0,.46,0-.2,0,.33.16a6.33,6.33,0,0,0,2-1.29c0-.27,0,.06,0-.15l0-.11A.11.11,0,0,0,223.06,100.05Z"/><path class="cls-1" d="M129.92,89a4.9,4.9,0,0,1,1.9-1.76,11.29,11.29,0,0,0,1.12-.73l.78-.56c.19-.16.08-.05.2-.21C133,85.84,129.35,87.77,129.92,89Z"/><path class="cls-1" d="M226.84,85.19a32.39,32.39,0,0,0-.4-3.61c0-.63.05-.76-.33-1.07-.19.33-.05.79,0,1.27C226.11,82.44,226.18,84.94,226.84,85.19Z"/><path class="cls-1" d="M146.61,95.38c.65-.2.68-1.61.68-2.26,0-1.14.3-2.32.2-2.76-.66.48-.58,2.89-.65,3.79C146.81,94.62,146.65,95,146.61,95.38Z"/><path class="cls-1" d="M163,91.61c-.71-.47-1.18-1.83-1.74-2A6.29,6.29,0,0,0,163,92.3V92c.5.16,1.29,1,2.05,1.17A10.23,10.23,0,0,0,163,91.61Z"/><path class="cls-1" d="M213.87,45.87l1.31-.06c-.37-.18-.85-.25-1.8-.66a6,6,0,0,0-2.32-.19s.06,0,.08,0,.05,0,.07,0c1.45.77-.09.39,2.24.58C214.14,45.69,213.85,45.77,213.87,45.87Z"/><path class="cls-1" d="M163.89,79.17c.12.5.33.59.81.89.88.56,2.24,1.65,3.12,1.73-.11-.46-1.58-1.26-2.08-1.6l-.06.33C165.13,80.2,164.44,79.38,163.89,79.17Z"/><path class="cls-1" d="M130.29,89.83c.57-.34,0-.61.69-1.1a31.09,31.09,0,0,0,3-2.09,8.83,8.83,0,0,0-2.29,1.16C130.72,88.44,130.29,88.55,130.29,89.83Z"/><path class="cls-1" d="M145,77.58c-.2.56-2.87,3.1-3.18,4a19.45,19.45,0,0,0,3.44-4Z"/><path class="cls-1" d="M241.77,79.37c.23,1.79-.13.89-.12,1.9A6.46,6.46,0,0,0,242,83c.32-.45.05-1.14.18-1.66a4.92,4.92,0,0,0,.14-1.59Z"/><path class="cls-1" d="M172.71,105c.56-.31,2.08-.65,2.36-1.07a9.71,9.71,0,0,0-2.32.71c-.82.35-.56,1.55-.35,2.21C172.8,106.49,172.34,106.14,172.71,105Z"/><path class="cls-1" d="M204.23,102.73a11.15,11.15,0,0,0,3.58.77c-.08-.29.24,0-.3-.25S204.71,102.3,204.23,102.73Z"/><path class="cls-1" d="M137,71.11c-.16-.39-.91-.44-1.55-1s-.57-1.07-.84-1.72c-.45.53,0,1.28.44,1.79a3.25,3.25,0,0,0,.87.59A6,6,0,0,0,137,71.11Z"/><path class="cls-1" d="M208.92,33.15a20.1,20.1,0,0,0-.21-3.07c-.31.31-.31,1.12-.35,1.64S208.3,32.92,208.92,33.15Z"/><path class="cls-1" d="M173.25,116.5a3.52,3.52,0,0,0,.64,1.55,9.78,9.78,0,0,0-.62-3.31.51.51,0,0,0-.19.42Z"/><path class="cls-1" d="M206.67,114.23c.47-.33.46-2.09.17-2.56C206.4,111.92,206.43,113.79,206.67,114.23Z"/><path class="cls-1" d="M207.23,116.09c.49-.12,1-.14,1.29-.42a6.83,6.83,0,0,0-2.45.35c.29.26,0,.15.45.22-.31.17-.11,0-.08.15.61,0,.53.13,1.1-.08Z"/><path class="cls-1" d="M216,62.37l0,.15c0,.11-.2,0,.09.09.54,0,1.46.1,1.84-.29a6,6,0,0,0-2.47-.21C215.61,62.3,215.67,62.27,216,62.37Z"/><path class="cls-1" d="M181,101a4.24,4.24,0,0,0,2.57-.21A3.54,3.54,0,0,0,181,101Z"/><path class="cls-1" d="M191.47,49.12a5.55,5.55,0,0,0-.29-2.2l-.13.4c-.18-.67-.16-.83-.57-.83C190.88,47.72,190.8,48.72,191.47,49.12Z"/><path class="cls-1" d="M172.61,33.91c-.28.15-.18-.06-.15.29l6.28.24c-.88-.34.42,0-1.68-.3l3.11-.09A33.26,33.26,0,0,0,172.61,33.91Z"/><path class="cls-1" d="M296.1,85.24a23.93,23.93,0,0,1,.31-4.14c.27-2.18.86-1.76,2.81-1.76,3,0,6,.11,9.06.09,4.21,0,9.26.26,13.6.26,1.32,0,3.16-.48,3.47,1,.5,2.46.49,6.08-2.91,5.73-2.8-.3-5.95-.21-8.81-.38-5.59-.33-12.1-.11-17.53-.81Zm25.73-25c3.23-.51,1.5.89,1.63,6.3,0,1.09.1,1.23-1.06,1.21l-6.22-.34c-5.41-.46-11.48-.57-17-.81-1.16,0-3.14.24-3.18-1.19-.13-5.11.15-3.57,9-4.22,2.76-.21,5.59-.34,8.35-.5,2.33-.14,6.29-.12,8.4-.45Zm-66.17,48.46c0,.25,1.07,1.74,1.3,2.26.36.83.69,1.73,1,2.58,3.38,8.66,2.45,7.36,6.88,7.19,2.24-.08,4.53-.16,6.77-.28,6.58-.37,5.44.54,10.92-3.32,2.2-1.55,4.22-6,5.86-8.35.86-1.23,1.87-3.11,2.66-4.45,1.6-2.75,1.62-2.3,4.64-2.44,4.57-.2,9.15-.34,13.71-.52,4.33-.17,9.37-.66,13.61-.61,1.46,0,1.28.65,1.55,2a10,10,0,0,1,.24,3.08,3.64,3.64,0,0,1-3.87,3c-.74,0-10.64-2-12.08-2.28-2.1-.45-3.67-1.19-5.09.91-1,1.5-1.68,3-2.59,4.52-2.17,3.57-.33,3.08,4.26,7.86,4.15,4.32,4.26,3.22,10,4.19,2.24.38,10.52,1.94,12.22,1.68,2-.3,7.9-3.06,10.3-3.91,1.78-.64,9.07-3.12,9.73-4.48.73-1.52.93-10.76,1-13,.25-9.28.71-18.47.55-27.76-.09-4.67-.25-9.36-.24-14,0-3.7.32-10.6-.25-14-.28-1.65-3.8-1.69-5.13-2-4.85-1-13.71-3.07-17.8-3.52-4.31-.48-9.51-.16-13.92-.26-4.69-.11-9.41,0-14.08-.2-6.07-.21-6.81-.46-12.54,1.55-2.38.83-3.44.67-3.43,3.69,0,2.29,0,4.57-.05,6.86,0,4.59-.18,9.15-.21,13.75a85.1,85.1,0,0,1-1,13.25c-.67,4.15-.49,7.9-2.78,11.45-.21.32-2.29,4-2.37,3.35-.16-1.32-1.57,2.45-1.74,2.82-1.74,3.84-3.76,4.86-6.7,7.53-1.89,1.71-2,2.31-4.88,2.18C260,109,257.78,109.27,255.66,108.74Z"/><path class="cls-1" d="M347.26,119.11l1.31-1a2.48,2.48,0,0,0,.55-2.22l.25-14c0-1.18.11-2.29.11-3.5,0-.83.6-2.81,0-3.42-.76,1.46-.51,5.3-.5,6.93,0,1.31-.59,8.09-.46,8.74.3,1.49-.06,3.4,0,5,0,1,.41,1.23-.7,2.12a26.27,26.27,0,0,1-3.08,2.11C346.12,120,345.83,119.52,347.26,119.11Z"/><path class="cls-1" d="M281.36,52.54a9.45,9.45,0,0,1-.33-2.35c0-2.37.33-.83.36-2.15a9.24,9.24,0,0,1,.18-2.51c.11-.38.71-1.56.7-1.75-.79,0-1,2.06-1.22,2.41l.27-2.09c-1.15.86-.23,10.54-.41,11.39-.63,2.95-.13,4.44-.44,6.91-.35-.53.1-1.09-.3-1.71a27.45,27.45,0,0,0,.19,4.73l.15-1.11c.3,0-.24.31.27,0a31.61,31.61,0,0,1,.23-4.5c.13-1.18-.2-3.47.36-4.37l.06,3.39c.33-.85.2-4.16.29-5.37a44.49,44.49,0,0,0,.19-5.23C281.41,48.48,281.43,51.63,281.36,52.54Z"/><path class="cls-1" d="M349.84,53.3c.3-.25.32-1.88.39-2.38a10,10,0,0,1,.08,3.46c-.09.44-.22.33-.32.73a4.11,4.11,0,0,0,0,.93c0,2.08-.72,7.39-.16,8.81.09-.66,0-1.35.34-1.66,1,1.24-1,9.56,0,10.6.69-1,.66-5.18.5-6.4-.23-1.71.51-4.86-.31-6.26-.35-.6,0-5.58.19-6.46s.35-6,0-6.64l-.24,1.41L350,48.23A14.89,14.89,0,0,0,349.84,53.3Z"/><path class="cls-1" d="M332.9,42.79c-.51.06-.75-.11-1.07.08l3.75,1.24a17.63,17.63,0,0,0,3.85.77C336.39,43.1,335.27,43.8,332.9,42.79Z"/><path class="cls-1" d="M255,109.05l1.08,2.24-.53-.53c-.12.53.42,1.55.62,2.12.31.85.32,1.55.61,2.33l.1-.34a24.09,24.09,0,0,1,1,2.87c.21.63.31,2.62.95,2.76a1.31,1.31,0,0,0,.08-.92c-.38-2.35-.51-1.17-.79-2L256.42,112a21.77,21.77,0,0,0,1.21,2c.28.37.49.41.74.76s.28.7.75.86a41.88,41.88,0,0,0-3.44-6.26l.16.66Z"/><path class="cls-1" d="M350,89.45c1-.6-.1-3.8,0-4.74a49.4,49.4,0,0,0,.27-5.16c-.09-3.45-1.09-6.57-.69-10l.45,1.93a8.18,8.18,0,0,0-.23-3.33c-.19.28-.1.47-.19.76s-.13.09-.31.39c-.08.88-.12,1.74-.21,2.63a20,20,0,0,0,.19,2.42c.09,1.86,0,3.44,0,5.25s.48,3,.23,5a3.37,3.37,0,0,0,.2,2.47C350.1,87.86,349.58,88.93,350,89.45Z"/><path class="cls-1" d="M281.33,66.63c.28-1-.05-1.86.32-3.22a8.46,8.46,0,0,0,.06-3.24c-.36.48-.06,1.35-.18,1.93,0-.47.11-1-.22-1.34-.35.71-.24,3.52-.18,4.38-.4.67-.28,0-.39,1.09-.05.46,0,.87-.1,1.33s-.19.86-.22,1.27c-.06,1.1-.05,6.74.06,7.21a7.28,7.28,0,0,0,.3-2.25,19.59,19.59,0,0,1,0-2.56c.13-.52.23-.3.23-1l.1-3.81S281.25,66.59,281.33,66.63Z"/><path class="cls-1" d="M286.56,114.44c.53-.76,1.39-2.39,1.85-3.26.33-.64,1.79-2.69,1.67-3.25-.26.08-.36.37-.5.62l-3.12,5.56c.21-.79,1.31-2.06,1.3-2.83-.7.45-2.15,4-2.87,4.76.11-.8,1-1.45,1-2.56-.34.15-.86,1.53-1.13,2a6.84,6.84,0,0,1-1.34,1.75c-.58.62.23.16-.59.73-.42.29-.4.34-.71.32s-.78.33-1.09.58-.08,0-.26.39c-.1.18-.15.17-.23.36,3-1.3,3.77-3.16,4.25-3.44,0,.51-.23.25-.34.75a15.08,15.08,0,0,0,1.92-2.75Z"/><path class="cls-1" d="M303.83,105.75c.54-1.09,3.43-.4,3.86-.65a6.66,6.66,0,0,0-2.68-.42A3.66,3.66,0,0,0,303.2,106l.38,0c-.35.56-2.94,3.35-2.72,3.91l.52-.68c.23.51-2.05,3.82-2,4.74.27-.13,1.95-3.56,2.3-4.12a26.44,26.44,0,0,1,2.72-3.82l-.45.15c.23-.34.82-.48.73-.79Z"/><path class="cls-1" d="M291.42,107.1c.37-.67.73-1.42,1.07-2.13.16-.32.39-.79.56-1.09s.56-.6.61-.89c-1.48,0-2.88,2.73-3.66,3.82-.59.82-2.89,3.92-2.84,4.77.47-.22,1.9-3.09,2.29-3.68.27-.43.58-.64.89-1.12l.25.14,1.4-1.63Z"/><path class="cls-1" d="M350.24,93.18c.17-.63.3-1.87-.21-2.36a10.16,10.16,0,0,0-.26,4.14,2.61,2.61,0,0,0,.39-1c.29,1.79-.58,7.65.17,8.6.24-.36.19-4.15.24-4.89a6.94,6.94,0,0,1,.4,2,18.71,18.71,0,0,0-.26-4.85,4.83,4.83,0,0,1-.17-1.64C350.16,93.13,350.46,93.16,350.24,93.18Z"/><path class="cls-1" d="M269.36,103.24c.55-.11.76-.66,1.18-1,.76-.56.06.82,1.91-2.2.3-.48.35-.91.66-1.4a51.87,51.87,0,0,0,3.11-5.4c-.63.18-4.12,6.39-5,7.65Z"/><path class="cls-1" d="M322.37,101.44a6.82,6.82,0,0,0-2.18.09c.45.46,2-.12,2.52.27.27.21.33,1.73.57,2.2.09.18.15.08.23.51a1.89,1.89,0,0,1,0,.67c-.3,1.73-1.4,1.85-1.76,2.39.73-.06,1-.57,1.47-.92.77-.51.71-.52.75-1.55s.24.19.08-1.95a2.32,2.32,0,0,0-.52-1.72c-.3.61.5.63-.19,1.51C323.17,102.24,323.31,101.54,322.37,101.44Z"/><path class="cls-1" d="M322.83,67.23a8.92,8.92,0,0,0,0-1.94c-.32,0,.18-.14-.14.06s.16.13-.08.08l.19-4.51c-.78.28-.6,1.78-.82,3.3a9.47,9.47,0,0,0,0,1.84C322,66.77,322,67.28,322.83,67.23Z"/><path class="cls-1" d="M349.1,52.4c-.41.44-.24,2.1-.21,2.74.08,1.55.33,1.81.36,2.68a3.8,3.8,0,0,1,.05,1.27,23.42,23.42,0,0,0,.2,4c.17-.12.15,0,.27-.28l.2-2.44a18.88,18.88,0,0,0-.25-2.68,13.78,13.78,0,0,0,0-1.44c-.07-.47-.28-.83-.32-1.23C349.3,54.3,349.66,53,349.1,52.4Z"/><path class="cls-1" d="M302.53,117.43c-.73-.71-.14.34-.85-.36l-1.57-1.65c-.56-.74-.15-.69-.59-1-.54.81,2,3,2.67,3.53.36.29.64.33,1,.63a24.22,24.22,0,0,0,2.54,2.17C305.57,120.15,303.16,118.05,302.53,117.43Z"/><path class="cls-1" d="M260,117.59c-.18-.42-1.05-2-1.49-2a10.62,10.62,0,0,0,1.1,2.53l1,2.71c.11-.16.12-.09.11-.43A15.38,15.38,0,0,0,260,117.59Z"/><path class="cls-1" d="M295.86,84.86c.38,0,.67-.37,1-.6a1.37,1.37,0,0,0,.61-1.11,5.59,5.59,0,0,0,0-1.73c-.18-.83-.05-.62.19-1.35-.77.07-.73,1.39-.83,2.47C296.69,84.2,296,84.1,295.86,84.86Z"/><path class="cls-1" d="M324.59,83.46l-.66,1.44c-.46.48-1.23,0-1.73.34.26.32,1.07.29,1.51.26a2.68,2.68,0,0,0,.87-1.65l.22.23a2.55,2.55,0,0,0,0-1.77Z"/><path class="cls-1" d="M325.28,83.58c.13-.59.43-3.33-.46-3.34l.23,2.5C325.09,83.87,325.16,83.45,325.28,83.58Z"/><path class="cls-1" d="M267,106.21a6.56,6.56,0,0,0,1.42-1.16c.91-.79,1.28-.81,1.24-1.24C269.44,103.83,267,105.44,267,106.21Z"/><path class="cls-1" d="M262.9,108.13c.61-.19,2.62-2.08,2.59-2.68a5.48,5.48,0,0,1-1.35,1.24Z"/><path class="cls-1" d="M302.89,118.08c.58,1.26,3.09,2.79,3.5,3.75-.35-.23-.69-.73-1.07-.75.05.15,2.86,3.27,3.54,3.29-.11-.33-1.07-1-1.35-1.42.36.13,1.41,1.35,2.89,1.67.36.08.57.08.94.18l.89.22c.62.12,1.54.13,2,.25-.74-.89-3.62.27-6.55-2.7-.82-.82-1.55-1.37-2.36-2.28A12.79,12.79,0,0,0,302.89,118.08Z"/><path class="cls-1" d="M329.62,126.12h.26c.24-.86.69-.61,1.26-.62.36,0,4.36-1.32,4.73-1.46,1-.39,1.89-.84,2.9-1.22.58-.21,2.46-.89,2.73-1.36-.7-.2-5,1.85-6,2.25s-2.18.78-3.13,1.1S329.68,125.05,329.62,126.12Z"/><path class="cls-1" d="M322.41,126.53h.52c0-1-.47-.94-1.43-1.16-.52-.11-1.72-.47-2.12-.18C320.13,125.69,322.38,125.36,322.41,126.53Z"/><path class="cls-1" d="M95.37,1.53c2.52.14,5,.48,7.55.6,3.48.18,11.11-1,14.89-1.41,10.54-1.24,13.3-.56,23.13-.28,6.45.18,9.19,2.76,14,2,1.3-.2,5.95-1.35,6.52-.14.2.42,2.24,11.91,2.25,12.67,0,4.3-.87,9-1.24,13.33-.54,6.16,2.32,9.77,2,12.54-1.19-.43-.1-.48-2.32-.21l-7.83.9c-1.68.16-1.46-.06-3,.17-.52.07-5.05.44-5.73.06a36.4,36.4,0,0,1-5.4,0c-3.27,0-5.9-.18-9,0-6.82.46-13.63-.72-20.39-1.27-3.59-.3-6.74-.45-10.3-.66-2.3-.14-8-.88-9.78.21-.24-1.66,1.67-7.56,2-9.7.46-2.93.07-8.07.07-11.25,0-2.74.36-8.36-.44-10.75L89.84,2c-.38-.66-1.13-1-1-1.76C90.39,1.89,93,1.4,95.37,1.53Zm53.33-.12c.45.28,3.21-.1,3.92.12a11.24,11.24,0,0,0,2.94.11,22.22,22.22,0,0,1,5.33-.31c1.26,1.08,1.51,4.08,2.17,5.36.29-.29-1.06-5.24-1.64-5.71S147.86.61,148.7,1.41Zm-56.55,23a19.62,19.62,0,0,1-.23-2.31c0-.63.18-2.11-.13-2.57-.31.4-.3,2.83-.24,3.45s.29.68.28,1.56A6.79,6.79,0,0,0,92,26.24c.29,1.3-.33,5-.67,6.41l-.17-.26s-1.56,3.87-.79,4.38l.3-.84c0,.89-.86,4.27-.72,4.68.64-.21,1.3-3.65,1.35-4.33,0-.5-.1-.77,0-1.47.31-2.71.83-2.4,1-6.55,0-.63.19-1,.19-1.75a11.85,11.85,0,0,1,0-1.68,39.06,39.06,0,0,0,.12-7.09c-.08-.92-.09-2.7-.56-3.32-.41.57-.2,4.42.07,5.11A11.9,11.9,0,0,1,92.15,24.43ZM165.34,40.8a1.88,1.88,0,0,0-.09-.72c-.27-1.18-.72-2.17-1-3.32a27.35,27.35,0,0,0-.84-3.35,4.6,4.6,0,0,1-.51-1.57c-.07-.59.17-1.53-.24-2-.82.51.23,3.4.5,4.18.47,1.38.61,2.93,1.11,4.29a9.06,9.06,0,0,1,.64,2.49Zm-72.27-.53c-1,0-2.44-.14-2.42.58a6,6,0,0,1,2.16-.19c.74,0,1.63,0,2.38,0,1.06,0,.18.12,1,.27a19.37,19.37,0,0,0,3.66.15c-.46-.34-.58,0-1-.28a13.57,13.57,0,0,1,2.94.11c.17-.26-.1-.26.59-.29C101.65,40,94.59,40.29,93.07,40.27Zm-1.45-12c.1-2.24,0-4.23,0-6.45,0-1.08,0-2.16,0-3.23,0-.55-.12-1-.1-1.56,0-.4.23-1-.29-1.14-.32.31-.17,1-.17,1.44s0,1.14,0,1.66l.24,6.34C91.33,26,91.17,27.81,91.62,28.28ZM91.3,12.43l.1-.61c.15.92-.14,2.81.22,3.53.29-.4.28-5.47.24-5.66-.08-.41-.23-1.32-.6-1.52-.18.33.58,2.14.3,2.74-.22-.35-.83-4.51-1.51-5-.16.91,1,3.37,1.13,4.74A5.27,5.27,0,0,0,91.3,12.43Zm23,28.92a53.06,53.06,0,0,0,5.5.22l-.12,0-.13,0c-1.94-.46-10.49-.69-13.09-.75a7.32,7.32,0,0,0-1.9,0c.41.35,1.28.3,2.34.31.83,0,1.9,0,2.74.06C111.53,41.23,113.42,41.75,114.35,41.35Zm-23-33.61a8.09,8.09,0,0,0-.29-2.54A12.21,12.21,0,0,0,90.15,3c-.33.57.12,0-.08.63-.1-.47-.54-1.77-1-1.91C89.13,2.07,91.13,7.44,91.36,7.74Zm71.47,17.41-.06-.82A4.12,4.12,0,0,0,163,27c0,.4-.11.67.13,1,.46-.83-.16-2.22.31-3l.26.42a3.27,3.27,0,0,0-.2-2.47C163.25,23.23,162.94,25,162.83,25.15Zm-55-23.94a24.86,24.86,0,0,1,2.58-.38,9.93,9.93,0,0,0,2.88-.32,14.67,14.67,0,0,0-3.9.06,9.72,9.72,0,0,1-1.73.36,9.92,9.92,0,0,0-1.88.28,32.19,32.19,0,0,1-7.26-.1l.28-.17s-4.47-1.07-5-.35l1,.2c-1,0-4.87-.43-5.33-.28.3.55,4.22.87,5,.86.56,0,.86-.14,1.66-.13,3.06.06,2.76.54,7.44.39.7,0,1.12.09,2,0a15.22,15.22,0,0,1,1.88-.16,56.17,56.17,0,0,0,8-.45c1-.14,3-.29,3.68-.76-.67-.31-5,.17-5.74.46A16.68,16.68,0,0,1,107.85,1.21Zm14.7,5.85-.86-1.85.86-1.84L110.15,4,97.76,3.37l.85,1.84-.85,1.85,12.39-.63,12.4.63ZM121,13.79l-.82-1.8.82-1.8-10.84.6-10.84-.6.82,1.8-.82,1.8,10.84-.61,10.84.61Zm3.08,7.36-.85-1.87.85-1.89-13.92.66-13.92-.66.88,1.89-.88,1.87,13.92-.65,13.92.65ZM156.89,7.41l-.74-1.59.74-1.59L151,4.67V2.09l-2.2.71-2.2-.71V4.6l-5-.37.73,1.59-.73,1.59,5-.37v4.42a3.2,3.2,0,0,1-.09.75c-.49-.44-1-.87-1.56-1.29a20.68,20.68,0,0,0,.21-2.24l0-.41-1.64.37-1.41-.47V9.1a6.72,6.72,0,0,1-.62,3.11,3.52,3.52,0,0,1-.56.86l-.18-2.84.54-5.45-1.77.48-1.61-.55.58,5.54-.44,5-.73,0-.5-5.93L137.42,2l-1.74.46L133.92,2l.62,7.34-.5,6-.82-.06-.3-3.46.62-7-1.73.46L130,4.78l.65,7.16L130,19.11l1.85-.46,1.65.46L133.45,18l1.53-.13,5.9.26a18.91,18.91,0,0,1-2.7,1.13l2.64,1.06.5,2.48a28.58,28.58,0,0,0,7.43-5.59,28.59,28.59,0,0,0,5.9,5.5l.39-2.43,2.76-1.11a13.57,13.57,0,0,1-5.14-3.34l-.15-.18a7,7,0,0,0,1.91-1.71l1.09,1.65.91-1.07,1.5-.52a35.81,35.81,0,0,0-2.47-2.63,17.39,17.39,0,0,0,.29-2.53l0-.44-1.7.37-1.47-.48v.91a5.11,5.11,0,0,1-.76,3,3.93,3.93,0,0,1-.74.85,4.75,4.75,0,0,1-.15-1.17V7l5.94.44Zm-15.57,7.27L142,16a6.54,6.54,0,0,0,2.35-2.71l1.06,1.28a12.06,12.06,0,0,1-.92,1.13,13.94,13.94,0,0,1-3.22,2.24L141,14.51ZM110.16,40.16,109.1,38.4l1.06-1.87-3.92.37c-.62.06-1.26.09-1.93.09l-1.54-.13a7.72,7.72,0,0,1,3-2.5,13.86,13.86,0,0,0,2.94-2.09,4.68,4.68,0,0,0,1.35-3.35,4.34,4.34,0,0,0-1.74-3.67,6.72,6.72,0,0,0-4.17-1.2A6.55,6.55,0,0,0,100,25.42a4.6,4.6,0,0,0-1.79,3.76v.42l2.13-1.05,1.9,1c.05-1.55.69-2.32,1.9-2.32s1.63.58,1.63,1.76c0,.75-.57,1.59-1.74,2.46s-2.22,1.54-2.77,2a10.3,10.3,0,0,0-2.77,3.26L98,40.12l3.41-.24,1.68-.13,2.3.13,4.73.28Zm16.4-7.71a12.64,12.64,0,0,0-1-5.44,5.89,5.89,0,0,0-10.25.06,12.07,12.07,0,0,0-1.06,5.38q0,8.09,6.13,8.08t6.13-8.08Zm-4.31-.07a17,17,0,0,1-.23,3.39c-.25,1.1-.77,1.65-1.59,1.65s-1.38-.57-1.63-1.72a19.08,19.08,0,0,1-.19-3.32,18.11,18.11,0,0,1,.25-3.37c.26-1.26.77-1.89,1.57-1.89s1.38.62,1.62,1.87a20.17,20.17,0,0,1,.2,3.39Zm15.49,7.78-.48-8.11.48-7.67h-3.28l-4,1.19,1.59,1.18L131,28.49l2.62-.61.26,4.17-.48,8.11,2.21-.65,2.16.65Zm17.5-8.5a10.24,10.24,0,0,0-1-5.11c-1-1.66-2.74-2.5-5.32-2.5a6.26,6.26,0,0,0-4.59,1.57,5.12,5.12,0,0,0-1.43,3.8,6.5,6.5,0,0,0,1.1,3.92,4.89,4.89,0,0,0,4.25,1.89,4,4,0,0,0,2.52-.65c0,2.13-.66,3.19-2,3.19a2,2,0,0,1-1.4-.43l-.56-1.48L145.16,37l-2.27-.65.81,2.13c.57,1.48,2.7,2,5.29,2q6.24,0,6.25-8.87Zm-5-.11a2.14,2.14,0,0,1-1.2.68c-1.23-.22-1.85-1.16-1.85-2.81a2.32,2.32,0,0,1,1.91-2.63c1.23.21,1.86,1.46,1.9,3.76A11,11,0,0,1,150.25,31.55Z"/></g></g></svg>