<svg xmlns="http://www.w3.org/2000/svg" viewBox="0 0 393.96 165.61"><defs><style>.cls-1{fill:#fff;}</style></defs><title>資產 1</title><g id="圖層_2" data-name="圖層 2"><g id="圖層_1-2" data-name="圖層 1"><g id="圖層_1-2-2" data-name="圖層 1-2"><path class="cls-1" d="M99.52,132l.8-.4a22.88,22.88,0,0,0-.8-2.8Zm0-8.4v-15.2h3.7c.4-1.6.5-9.5-1-9.9a25.12,25.12,0,0,0-2.7-.4V82.81l22,1.5c1.4.1,3.1.3,4.5.4,2.2,0,2.1.3,2.1,2.6,0,6-.8,12.6-.6,18.5.8.5,4.2.1,5.4,0a12.4,12.4,0,0,0,5.2-.7c-.1,1.7-.6,4.5-.8,6.5a17.27,17.27,0,0,1-1.5,5.5c-.4,1.1-1.5,4.3-2.3,4.9-.5.4-5-.2-5.8-.4-.2,1,.1,8,.5,8.8,5.6,0,4.6.4,5.2-1.1.5.3-.4,12.5-.4,14.1,0,4.1-.8,3-4.3,3.2-3.1.2-2.6,1.2-3.7,3.7-.9,2-3.4,9.2-4.9,10-2.9,1.6-7,3.2-10.2,4.7-2.5,1.3-7.2-.5-10.5-1.5v-12a5.68,5.68,0,0,0,3.8-.7,21.26,21.26,0,0,0,2.5-5c-2.1.1-4.2.2-6.3.4v-13.3a18.41,18.41,0,0,0,4.1-.5c1.1-.5.6-4.7.6-5.9,0-3.7-.2-3-3.6-3l-1,.1m0-15.7c.1-.1.3-.2.4-.4.8-.8.1-.2-.2-.5-.8-1,1-4.6-.3-5.8v.6c0,.1.1.3.1.4h-.1Zm0-31.1V60.11c4.5,0,8.7,0,10-.1,4.2-.3,7.8,0,11.9,0,2,0,4,.2,6,.2,2.7,0,2.8.5,5.4-.5-.4,1.3-.8,2.4-1.2,4-.3,1.4-.7,2.7-1.1,4-.7,2.7-1.4,5.5-2.1,8.2-.4,1.7-.4,2.8-2.5,2.5-1.5-.1-3-.4-4.5-.6-3-.4-6.1-.6-9.2-1a67.35,67.35,0,0,0-12.7,0m-1.7,56.1,1.7-.9v-3.3c-.3-1-.6-2-.7-2.3-.9-2.4-2.6-1.6-4.1-2.5.5-.3,3.1-.3,4.8-.3v-15.2h-.3a1.38,1.38,0,0,1,.3-.4v-5.7c-2.1-.5-3.9-.2-6-1.2-.9-.4-4.5-2.1-5.2-2.1-.6.5-1.6,4-1.8,4.9-.7,2.9,1.6,2.6,2.5,4.1l-4.6-.1v15.8a3.4,3.4,0,0,1,1,.1,4,4,0,0,1-1,1.5v2.5l1.1.8c1,.7,6.8,4.2,6.8,4.8l-7.9.5v12.8c1.4,0,2.9.1,4,.2a56.33,56.33,0,0,0,5.8-.3l5.3-.3V133a9.15,9.15,0,0,1-1.7-.1m1.7-72.7v16.6c-2.3.1-4.6.2-6.9.2-2.8,0-5.5.2-8.2.3V44.41h.1c2.9.5,6.4,2.1,9.2.9,0,.7-.8.7-1.3,1.4l-6.3,12.4c.9.7,7.4,1,13.4,1.1m0,22.6V98c-2.6-.3-6.2-.5-7.6-.6-.9-.1-4.8-.7-7.5-.8V81.81Zm0,18.5v.6c-.2-.6-.8-.5-1.3-1a1.57,1.57,0,0,1,1.3.4m0,50.2v12.1c-.5-.1-.9-.3-1.3-.4-4.3-1-4.5-4.5-6.9-8-1.5-2.2-.4-3.2,1-5s3-.2,4.9.6a4.76,4.76,0,0,0,2.3.7M84.42,44.41v32.9h-1.6c-1.4,0-3.3-.3-4.3.9-.4.4-2,2.6-1.8,3l7.6.5v14.9c-1.3-.1-2.4,0-2.5.4s-.5,10.2-.4,10.8l2.8.1v15.8c-1.2,0-3.2.1-3.7,0-2-.2-2.2.5-2.5,2.3-.4,2.6-.6,5.9-1.6,8.3l7.9-.5v12.8h-1.6c-1.9,0-22.5-1.2-22.8-1.3-.6-.7-.4-11.1-.1-12.5.4-1.8,2.6-10.1,2.1-11.2-.6-.8-3.8-1-4.8-1s-1.8.2-2.7.2c-2.8.2-1.7,2-2.5-1.4-.1-1.7,0-1.8-.1-2.4a2.09,2.09,0,0,0-.4.6v-11.8a44.48,44.48,0,0,1,7.3,0c4.1.2,3.7,0,5-3.5,1.5-3.9,3.5-8.5,4.7-12.3-.6,0-6.2,5-7.2,5.8-1.6,1.2-2.6-.3-3.9-1.5-1.1-1.1-2.3-2.1-3.4-3.2-2-2.1-1.4-1.8-2.1,1.1a4.87,4.87,0,0,1-.4,1.1V82.11a5.54,5.54,0,0,0,1.8-.2c0,.5-.7.8,0,1.4.2.2,2.7-1.8,3.2-2.1,3.3-2.6,3.6-1.9,5.2-6.1s11.7-30.2,13.4-31.8c1.2-1,7.6.8,9.4,1.1m0,80.8c-.7.8-1.4,1.6-1.2,2.4.8,0-.1-.8,1.1.1h.1v-2.5Zm-32.9-20.3c.8-.2,2,.1,2.7-.4a5,5,0,0,0-2.1-.1,1.27,1.27,0,0,0-.6.1Zm0-23v11.2c-.7,1.4-1.9,1.3-3.8,1.3s-12.1.1-12.9.2c-.5,1-.2,5.3.5,6.2a26.06,26.06,0,0,0,4.3,3.1c3.6,2.2,6.7,4.4,11,4.8l-.1-1.1c0-.4-1.1-3.5.1-2.7.4.2-.1-.2.9-.4v.4a.89.89,0,0,0-.6,1,1.42,1.42,0,0,1,.6-.2v11.8l-.9,1.5c-.5.7-1.1,1.1-1.6,1.8-1.4,1.7-1.8,3-3.9,1.7-1.5-.9-2.9-1.7-4.3-2.6-.7-.4-3.8-2.4-4.1-2.6-.7,1.6,2.9,11.3,2.3,13.6-.3,1-2.8,3.6-3.6,4.5-2.1,2.1-2,2.9-5.3,2.6-2.5-.2-5.2-.2-7.7-.5-2.9-.2-3.2-1.2-4.8-3.3-1.5-1.9-3.3-2.6-1.8-5.1,1.4-2.3,3.8-1.4,6.3-1.8a5.61,5.61,0,0,1-.9-3.1c-.4-3.9.2-1.3.2-3.4,1.2,1.1,0,6.3,1.8,6.5l-1.4-9.2s-.9,2.4-1,2.5c-.2.9.5,2.3.1,2.9a5.08,5.08,0,0,1-.5-3.2c.4-.9.7-1.8,1-2.7-1.7.7-8.8,6.5-11.6,8.4-1.2.8-.6,1-1.2,1.6a24.43,24.43,0,0,0-1-2.4,13.74,13.74,0,0,1-1.3-2l-.5.2,1.8,3.7a30.08,30.08,0,0,1-2.9-4.9c-.1-.6.4,0,0-1a8.43,8.43,0,0,1-.6-1.4,2.33,2.33,0,0,1,.7-2.6c4.6-5.5,6.4-6.7,12-10.9,2.6-1.9,2.4-2,2.3-5.1-.1-1.9.5-5.3-1.9-5.8-2.1-.4-4.5-.7-6.7-1-9.5-1.5-8.6-.1-9.2-6.2-.1-1.4.6-5.2,1.4-6.2s5.4-.8,6.9-.8c2.3,0,5.3,0,7.5-.1s1.1-4.4,1.2-6c.2-2.5.7-11.9,1.8-13.4l14,1.1c1.1,1.8-1,16.8-.4,18.5.4.4,12.9.8,17.8.6"/><path class="cls-1" d="M160.72,52.81v-1.3c.5-1.1,1-2.2,1.4-3.3a142.63,142.63,0,0,1,7.2-13.3c.6-1.1,3.9-5.4,3.7-6.2-.3-.2-7-.1-8.1-.1-.6,0-2.5-.1-4.2-.1v-4.8a3.08,3.08,0,0,0,2.1.4c.2,0,4-1.2,4.1-1.3-.3-.3-4.2-1.3-6.1-2.5v-7.1a7.56,7.56,0,0,0,2.3,2.4,6.89,6.89,0,0,1,.8-.3c-.5-1-1.7-1.5-2.3-2.5-.7-1.3,1.8-2.1,1-3.2-.7,0-1.3,1.2-1.7,1.9v-.8a10.9,10.9,0,0,0,1.1-1.3.9.9,0,0,0-1.1.1v-2c1.9,0,3.9,0,4.4-.5-.1-1.1-2-1.8-3-1.5a4.24,4.24,0,0,0-1.4.6V2c2.8.9,5.1,1.7,8.2,1.2,1.4-.2,6.6-1.7,7.2-.2.2.5,2.5,14.8,2.5,15.8,0,5.4-1,11.3-1.4,16.6-.6,7.7,2.5,12.4,2.1,15.8-1.3-.5-.1-.8-2.5-.5l-8.7,1.1c-1.9.2-4.5.2-6.1.5a3,3,0,0,0-1.5.5m0-5.9.1-.3c1.3-3.1,4.2-9.1,5.8-12.4a33.76,33.76,0,0,1,2.5-3.4c-1,.2-1.6.9-3,.9h-5.4Zm0-45V6l-.3.1c-2.2.8-3.8-.7-4.4,3.1a23.58,23.58,0,0,0,.1,4.6c.1-1.4,0-6,1.5-6.4a15.06,15.06,0,0,1,3-.1v2a5.74,5.74,0,0,0-1.5,2.3c-.5,1-1.8,2.6-1.5,3.8.1,0,1.1-1.2,1.3-1.4a3.51,3.51,0,0,1,.8-.5c.5-.4.1-.5.5-.9l.4.4v7.1a2.09,2.09,0,0,1-.6-.4,10.79,10.79,0,0,1-3.9-5.5l.1,1.2c-.7-.4-1-4.8-.9-5.6.2-1.7,1.2-3.1,1.6-5,.5-2.4,2-3.5-1.2-3.4-2.4,0,.2,3.2-1.7,4.8l-5.1-.1c0,1.3,1.4,1.8,2.1,1.8a13.67,13.67,0,0,0,1.9-.2c1.4-.1.6-.3,1.4-.6.5,2.1-.3,5.3-.3,8.7-.5-.9-1-1.8-1.4-2.7-.4-1.2.4-2.5-.1-3.3l-1.2,1.7,1.1-2.3c-.9-.4-3.3,4.5-2.1,4.9l.5-1.4,1.8,3.4V15c2,1.7-2.7,5.8-4.9,7.9v-3.6a30.72,30.72,0,0,0,.5-5.3c.1-1.3,1.4-5.7-.5-5.7a19.54,19.54,0,0,1-.1,5.4V.11c1.6.1,3.5.2,5.6.2a41.35,41.35,0,0,1,7.5,1.6m0,8.7a2.11,2.11,0,0,0-.5,1.3c.2-.1.3-.3.5-.5Zm0,13a9.83,9.83,0,0,1-1.5-1.2,10.3,10.3,0,0,1-3.4-4.6c0-.1-1-1.5-1-1.5a8.72,8.72,0,0,1-3.1,4.9c-1.2.9-2.5,1.8-3.8,2.6v4.6h2.9a16.2,16.2,0,0,1,2.2-.1c.9.2.2.8-.5.9-2.8.5-2.6.1-2.5,6.5,0,1.6-.4,7.4.1,8.4.8.7,3.3.1,3,1.3l-5.1.4v6.4c2.3,0,4.6.1,6.6.1,5.9,0,4.2-.2,6.2-5.2V31.91h-2.5c-1.4-.1-1.5-1.9-1.1-2.8.2-.4,1.8-.5,3.5-.5Zm0,27.9v1.3c-1.2.6-2.7,1.5-3.3,1,.4-.5,2.1-.3,3.2-1.9l.2-.3M131.12,28c10.8-.2,10.6,18.2-1,18.5v5.3a66.4,66.4,0,0,0,12.6.4c1.5-.1,3.4-.1,5.2-.1v-6.4l-5,.4c-.1-1.5,2.6-.8,3.4-1.8.4-.6.2-3.7.2-4.6,0-2.9-.2-6.8.1-9.6l1.1-.3c-.5-.3-3.5-.2-4.2-.5-1.8-.7,1.7-.9,4.4-.9v-4.6a3.7,3.7,0,0,1-1.1.5,12,12,0,0,1,1.1-1.2v-3.6a1.46,1.46,0,0,1-.6.9l.4-3c-.8.6,0,3.1-1.6,3.2l-.2-1.4c-.8-.9-3.6-.5-4.7-.3-2.3.4-1.9,2.2-3,2.4-1.2-.2-.8-7-1-9.1-.1-1-.9-1.7-.1-2.4,1.2-1.1,3.8-.7,2.9,2.3a16.25,16.25,0,0,0-.2,6.2c.4,0,2.4-.9,2.5-1.9V7.71c0-2.6-.7-1.9-1.4-3,.5-.8,3.4-1,3.7.5.2.9-.5,3.5-.6,4.7a30.1,30.1,0,0,0,0,5.2c.2,2.7-.4,3.2.7,2.8a2.31,2.31,0,0,1,.9-.2,20.07,20.07,0,0,0,.8-4.9c0-1-.2-4.3,1-4.3a23.15,23.15,0,0,1-.4,5.9c-.4,1.3-1.3,4.1-.3,5a18.63,18.63,0,0,0,.5-2.7c.3-1.3.6-.5.7-2.4V.31a88.27,88.27,0,0,0-17.8.3v3.1c.5.4,1.2.9,1.1,1.3l-1.1-.5v.6l.5.4c-.2.1-.3.2-.5.2v15a2,2,0,0,1,1.6-.7,6.09,6.09,0,0,1,2.4,1.8c.4,1-1.9,1.3-4.1,1.3v5a4.1,4.1,0,0,1,1.1-.1M130,46.41h-.9c-10.4-.6-11.2-17.3.9-18.4V23c-1.5,0-2.8-.1-3.2-.1-4.8-.1-10.5,0-15.5.3v4.9a8.33,8.33,0,0,1,1.5.4c4.1,2.1,1.5,8.5-1.5,12v2.3h4.6c1.3,0,3-.4,3.2,1.2.2,1.8-1.2,1.8-2.6,1.7h-5.2v4.2c2.9.2,5.7.4,8.8.7,3.3.3,6.6.8,9.9,1.1Zm0-45.7v3.1c-.2-.1-.3-.2-.5-.3-1-.5-1.5.3-2.3.7-1.3.8-4.8.3-6.5.5-2.2.2-4.6.1-6.8.1-.9,0-1.8.1-2.6.1V2.81h.1c3.8.2,12.3-1.2,16.5-1.8l2.1-.3m0,3.9-1.1-.5-.1.2,1.3.8Zm0,1.1v8.1a2.56,2.56,0,0,0-2.9-1.5c-2.1.7-.8,1.6-4.5,1.5-2,0-3.9-.2-5.8-.2a49.33,49.33,0,0,1-5.5-.3V6.41c2.1-.1,4.3-.1,6.4-.3,1.5-.1,10.1,0,12.3-.4m0,8.4v6.4a4.44,4.44,0,0,1-1.1.8c-1.1.5-6.7.5-8.2.4-2.6-.2-5.9-.1-8.6-.1h-.9V15a3.26,3.26,0,0,0,1.4.4c3.8,0,7.7-.4,11.6-.4.9,0,5-.1,5.5-.4a.46.46,0,0,0,.3-.5m-18.7,22v-3.5a5.25,5.25,0,0,1,0,3.5m0-33.4v2.1h-.6c-.7,0-2.9-.2-3.4-.2-1,.1.4,1.6.7,1.7a6.89,6.89,0,0,0,3.2.1h.2v6.9h-.1c-1.7-.1-1.1,1,.1,1.7v6.6c-2.1-.1-7-.4-7-.4-.1.3,1.5,2,1.9,2.1.8.4,3,.1,4,0l1.2-.1v4.9c-2-.4-4.8-.2-5.8.7-.5.4-1.9,2.7-.3,2.4,1.4-.3,2.2-.7,3.8-.3a2.88,2.88,0,0,1,2.2,1.8v3.4c0,.2-.1.3-.1.5a15.06,15.06,0,0,1-3.2,5.3c-.9,1-4.6,3.2-4.4,3.9l7.8.1v4.2l-2.8-.3c-2.5-.2-8.9-1.1-10.8.3-.3-2.1,1.9-9.4,2.2-12.1.5-3.6.1-10.1.1-14,0-3.4.4-10.4-.5-13.4l-2.8-8c-.4-.8-1.2-1.3-1.1-2.2,1.7,2,4.6,1.4,7.2,1.6,2.8.2,5.5.6,8.3.7m0,37.9a9.76,9.76,0,0,1-1.8,1.7c-2.1,1.5-1,1-1,1.3l-3.5,1.5c.8.5,4.6-2,6.3-2.1Z"/><path class="cls-1" d="M136,38.21c1.7-9.4-10.4-11.7-11.7-2.1-1.4,9.1,9.9,12.1,11.7,2.1"/><path class="cls-1" d="M99.52,30.51c-.1-1-.2-1.9-.3-2.9,0-.8.2-2.6-.1-3.2-.3.5-.3,3.5-.3,4.3a6.28,6.28,0,0,1,.3,1.9,7.49,7.49,0,0,0,.2,2.1c.3,1.6-.4,6.2-.7,8l-.2-.3s-1.7,4.8-.9,5.4l.3-1c0,1.1-1,5.3-.8,5.8.7-.3,1.4-4.6,1.5-5.4a10.74,10.74,0,0,1,0-1.8c.3-3.4.9-3,1.1-8.2,0-.8.2-1.2.2-2.2v-2.1a51.73,51.73,0,0,0,.1-8.8c-.1-1.1-.1-3.4-.6-4.1-.4.7-.2,5.5.1,6.4a15.66,15.66,0,0,1,.1,6.1"/><path class="cls-1" d="M180.42,51.61a8.75,8.75,0,0,0-.2-1.6c-.3-1.5-.8-2.7-1.1-4.1a31.49,31.49,0,0,0-.9-4.2,6.64,6.64,0,0,1-.6-2c-.1-.7.2-1.9-.3-2.5-.9.6.3,4.2.5,5.2.5,1.7.7,3.6,1.2,5.3a16.06,16.06,0,0,1,.8,3.8Z"/><path class="cls-1" d="M148,42.61c.1-.8.1-.5.4-.6a16.29,16.29,0,0,1,.1-3.2c.2.5-.1.6.2,1.2a17.85,17.85,0,0,0,.1-4c-.1-.9-.4,0-.2-1.1a22.75,22.75,0,0,0,.2-2.6,6.72,6.72,0,0,1,.4-2.4c-.9-.1-.9,1.5-.9,2.6,0,1.5-1,9.3-.3,10.1"/><path class="cls-1" d="M98.92,35.31c.1-2.8,0-5.3,0-8v-4c0-.7-.1-1.2-.1-2,0-.5.3-1.3-.3-1.4-.4.4-.2,1.2-.2,1.8v2.1l.3,7.9c-.1.8-.3,3,.3,3.6"/><path class="cls-1" d="M160.72,48.41c.4-.3.2-.4.5-.8.2.6-1.1,2.4-.8,3,.5-.4,1.5-3.3,1.7-4.1s1.8-2.9,1.8-4.1a4.84,4.84,0,0,0-1.2,2.1c-.3.7-.7,1.4-1.1,2.2.1-.8,2.6-5.5,3.2-7.4-.8.2-1.8,3.6-2.2,4.5-.1.4-2.3,3.8-1.9,4.6"/><path class="cls-1" d="M137.62,40a5.45,5.45,0,0,0,.5-2.2c.1-.4.2-.7.3-1.1a14.78,14.78,0,0,0-1.3-5.5c-.4,0-.1-.1-.2.4a4.54,4.54,0,0,0-3.7-2.8c.1.1,0,0,.3.2l1,.5c2.9,1.7,2.8,3.4,3.2,6.8,0,.8-.2,3.3-.1,3.7"/><path class="cls-1" d="M169.52.81c.5.5,2.3.4,3.1.6l1.5.3a2.48,2.48,0,0,0,1.7,0c1.4,1.4,1.3,5,2.1,6.6.3-.4-.7-6-1.3-6.6s-6.4-1.3-7.1-.9"/><path class="cls-1" d="M98.52,15.51l.1-.8c.2,1.1-.1,3.5.2,4.4.3-.5.3-6.8.3-7.1-.1-.5-.3-1.6-.7-1.9-.2.4.6,2.7.3,3.4-.2-.4-.9-5.6-1.7-6.3-.2,1.1,1.2,4.2,1.2,5.9q.15,1.35.3,2.4"/><path class="cls-1" d="M111.52,37.91c.4-.4.5-1.2.9-1.4-.1,1.6-3.4,5.2-3.6,5.5,1.4-.5,4.5-5.2,4.2-6.6l-.5.7c.3-1.8.7-2.2.1-4.1a3.2,3.2,0,0,0-2.6-2.5,6.1,6.1,0,0,1,1.6,1.2c2,2.4,0,6.9-.1,7.2"/><path class="cls-1" d="M138,16a12.17,12.17,0,0,0,.1,3.3.1.1,0,0,1,.1-.1c.1,0,0-.1.1-.1.6-1.2.2-6.3,0-7.9-.1-.8,0-.8-.2-1.1-.5.3-.4.8-.3,1.4s.1,1.1.2,1.6c-.1,1.2-.8,2.4,0,2.9"/><path class="cls-1" d="M124.52,42.51c0-.7-1-1.9-.8-2.7,0-.3.2-.1.1-.7-.1-.3-.1-.2-.3-.5-.9-2,1.7-6.8,1.7-6.8l-1,.8a3.38,3.38,0,0,0-.6,1.2,8.15,8.15,0,0,0-.6,3.1c-.1,1,.2,5.5,1.5,5.6"/><path class="cls-1" d="M98.62,9.71a17.33,17.33,0,0,0-.3-3.2,13.32,13.32,0,0,0-1-2.8c-.4.7.1,0-.1.8-.1-.6-.6-2.2-1.1-2.4a67.54,67.54,0,0,0,2.5,7.6"/><path class="cls-1" d="M105.72,30.11a17.72,17.72,0,0,0,1.7-.6,5.8,5.8,0,0,1,4.1.3,3.6,3.6,0,0,1,1.1,1.4c.5,0-.1-.2.2-.1.7,2.2,0,2.7.4,3.5a3.8,3.8,0,0,0-1.7-5.1h-.1a4.82,4.82,0,0,0-3.1-.4c-.6,0-2.5.1-2.6,1"/><path class="cls-1" d="M177.62,31.41l-.1-1a5.66,5.66,0,0,0,.2,3.4,2.88,2.88,0,0,0,.1,1.3c.5-1-.2-2.8.3-3.8l.3.5a4.74,4.74,0,0,0-.2-3.1c-.2.3-.5,2.5-.6,2.7"/><path class="cls-1" d="M158.82,29.71c.3.2.6.1,1,.2.9.2.1.3.8.5.9,0,2.2.2,2.9-.4a12.41,12.41,0,0,0-2.7-.3c-.9-.2,0-.4-1-.5-.6,0-.8,0-1,.5"/><path class="cls-1" d="M167.32,34.71c.6-.6.9-1.5,2.2-3,.5-.5,2.7-2.4,2.8-2.6-2.1.4-4.9,4.6-5,5.6"/><path class="cls-1" d="M132.32,44.81c.6.4,4.5-2,4.5-4.8-.5.4-.6,1-.9,1.6-1.2,2.6-2.4,2.4-3.6,3.2"/><path class="cls-1" d="M115.62,43.81c.9.4,1.2-.1,2.1.1.5.6.1.6.5.9.5-.7.1-1.3-.7-1.3a12.5,12.5,0,0,1-1.9.3"/><path class="cls-1" d="M141.82,18.11a1.43,1.43,0,0,0,1.5-1.3,1.61,1.61,0,0,0-.3-.9,5,5,0,0,1-.4,1.3c-.3.6-.7.4-.8.9"/><path class="cls-1" d="M219.32,33.91l-.3-1.8c-.4.3-.4,4.4-.2,4.9.4-.3.2-1.6.5-2.1.5.9-.4,3.1.2,5,.1.3,0,1.4.7,1.4.2-.4-.6-2.1-.6-2.1,0-.4.3-.3.4-.7a17.39,17.39,0,0,0,.1-3.2l-.3.3c-.2-.4.7-3.7-.4-4.2-.4.6,0,1.9-.1,2.5"/><path class="cls-1" d="M239.32,41.51c.5-.6-.1-1.9.3-3.5a2.44,2.44,0,0,0,0-1.2,18.11,18.11,0,0,0-.3-2.3,5,5,0,0,0-.3-2.4,2.46,2.46,0,0,0-.1,1.2v.6c-.1.4-.1.2-.2.5a19.39,19.39,0,0,0,.3,4.8c0,.6,0,2,.3,2.3"/><path class="cls-1" d="M240.42,40.51c0-1.2-.1-2.4-.2-3.6a3,3,0,0,0-.4,1.9c-.1.7-.2,1.4.6,1.7"/><path class="cls-1" d="M197.52,41.41c-.3.2-.2-.1-.2.4l7.4.3c-1-.4.5,0-2-.4l3.7-.1a33.09,33.09,0,0,0-8.9-.2"/><path class="cls-1" d="M215.82,99.61l2.9.1c2,0,2.4,1.5,2.5,3.2.1,5.8,1.6,7.4-3,7.4a21.16,21.16,0,0,0-2.4.2v8.7c5.1,0,10.2,0,15-.1,4.6-.2,6.2,1.7,6.8-3.3s1.4-14.1,1-19c-.1-1.8.3-8.2-.9-9.3-6.2.5-12.6-.2-18.8-.8-.7-.1-1.8-.2-3.2-.3Zm-2.5,0a20.9,20.9,0,0,1,2.5-.1V86.21c-4.7-.5-12.1-1.6-13.9-2.5l-.5-1-3.1,19c-.4,0-.4-.1-1.1-.3-3.6-.6-9.6-3.9-11.4-6.6a24.09,24.09,0,0,1-2.4-6.3,17.85,17.85,0,0,1,.1-4c.2-.5,3.1-.1,3.7-.1,1.5,0,6.1-.3,6.6-2a22.08,22.08,0,0,0,.3-7.7c-.7-4.7-.2-3.8-4.5-3.8-1.3,0-7.2.7-7.7-.3a27.13,27.13,0,0,1-.4-4.1c-.1-2-.2-2-2-2-2.1.1-14.8.2-15.5,1.5-1.1,2,.8,6.4-1.9,6.6-1.5.2-7-.1-7.6,1-1.1,2.1-.9,4.8-1.3,7.2-1.1,6.8,9.7,2,12.4,3.2.8.6.7,3.4.8,4.5.2,2,.2,2.8-.9,4.3-1.3,1.8-3.4,3.8-4.9,5.5s-10.8,7.7-12.7,8.1c0,.1,3.3,4.9,3.9,5.8,2.3,4.1,3.7,2.2,5.5,1.2a44.76,44.76,0,0,0,6-3.5,49.92,49.92,0,0,1,5.1-4,15.26,15.26,0,0,0-.3,3c.1,1.1.1,2.2.1,3.3-.1,3.2-.5,2.9-3.3,3.5-4.2,1-5.8-.3-3.5,8,1.8,6.4,2.2,4.2,8.9,4.2h6.8c3.4,0,3,.5,4.1-2.5l-1,3.2c2,.4,2.2-8.6,2.5-10.1a55.42,55.42,0,0,0,.7-5.7c.1-.8.5-5.7.6-5.9,0,0,6.1,5.4,7,6.1s3.1,2.1,3.6,3.1c.4.4.9-.4,1-.5.2-1,1.4-4.1,2.1-4.4.1,1.6.1,3.3.2,5,.2,2.1.1,2.7,2.5,2.7h15.3v-8.7c-2.9.3-5.9.5-5.7-2.9.1-1.7.2-3.5.4-5.2.4-3.3.4-2.1,2.9-2.5"/><path class="cls-1" d="M196.32,41.91l1.1,7.4-1-3.6-.3-1.7-.2-1.6-.6,1.1v2.2c.5,2.9.4,2.6.9,5.2.4,2.2.6,4.3,3,5.1-.2-.4-1.1-.7-1.6-1.7a6.64,6.64,0,0,1-.6-2c-.4-1.5-.3-2.7-.7-4.5l1,3,.4-.5c-.1,2,.9,4.7,3.1,4.9s5.5.1,8,.1c2.7,0,5.2.1,7.9.1.9,0,3-.4,3.4.6a8.77,8.77,0,0,1,.2,3.6c-1.9,1.1-23.5-.4-24.3.6-1.4,1.9.3,8.7.7,10.9.6,3,.6,2.7,3.6,2.7,2.1,0,3.9-.1,6.1,0,8.1.4,17.1-.7,25-.1,3.8.3,8.3,0,12.2,0,2.1,0,4.1.1,6.2.1s4.1-.2,6-.1l.7.9c.4-.5-.5-6.3-.6-7.3-1.5-11.1-3-8.9-7.4-8.4-2.1.3-5.6.9-7.6.7l-.5-5.9c1,.6,5.4.4,7.3.4,1.5,0,.9.2,1.9.6l-.3-1.6.8,1.6c.1-.2-1-6.2-1.1-7.1-1-5.2.4-4.2-7.8-5-1.5-.1-2.3,0-2.4-1.8s.7-6.7,0-7.8c-.9-.2-7.2.2-8.9.1-1.2,0-8.2-.2-8.8-.5-.3-.2-.4-.9-.5-1.9h-.1c-.2.7-.4,1.3-.6,2-.1,1.7.2,3.8.2,5.6,0,5,2.6,3.5-13.2,3.5h-5.5c-1.2,0-4.4.7-5.1.1"/><path class="cls-1" d="M276.32,81c-.1-1.2.5-.8.7-2.1a76.87,76.87,0,0,0,.4-8.3c.1-1.9.8-3.8.5-5.3a4.88,4.88,0,0,0-.4-1.1H277a3,3,0,0,1,.5,1.6l-.7-1.2a16.09,16.09,0,0,1,.2,4c-.1,1.4-.2,2.8-.2,4.2-.1,1.2,0,3.1-.2,4.3a30.25,30.25,0,0,1-1.2,3.2c.4-1.3,1.3-13.6.7-14.4-.5-.1-3.5-.2-4.4-.2l-4.4-.4-7-.4c-.9-.1-.7-.8-1.3-1l1.4,18.2c-2.5,0-17.3-2.5-18.2-1.3-1.5,1.9-1.1,6.2-.6,8.4.5,1.9,1.4,6.4,2.3,7.8l17-1.9c.7.8,1.9,12.5,2.2,14.5.4,2.5.7,4.9,1,7.4.5,3.8,1.3,3.8-2.4,5.2l-6,2.4c-3.1,1.2-4.1.9-3,4.4.7,2.2.8,4.7,1.4,7s4,1.2,6.4,1.1c6.3-.1,8.5.6,13.9-2.9,6.4-4.1,6.5-1.7,6.3-10.1-.2-8-1-15.4-1.8-23.3-.1-1-.8-7-.8-7.4.7.6,2,1.7,3.2,1l-2.1-.6,7.9-.9c.6-.9-1.2-11.8-2-12.7Z"/><path class="cls-1" d="M240.62,123.61c-2,.3-1,.5-3.4,0l-3.6-.6c-1.2-.2-6.5-1.4-7.2-.8-1.2,1-3.9,10.8-4.3,12.8-.7,3.5-.8,3.8-4.4,4.2-4.2.5-3.3-.2-3.9-4.1-.4-2.7-1.5-12.5-2.7-14.3-1.3-.3-7.2.8-8.7,1.4-5.5,2.1-6.4,1-5.8,3.9,1.1,5.2,3.2,10.8,4.5,15.9a34,34,0,0,0-6.4-.8c-3.5-.3-3.5-.8-3.9,2.7a23.58,23.58,0,0,0,0,6.5c.4,3.3.3,3.3,3.7,3.1,9-.6,18-.6,27-1.2,4.4-.3,9.1-.4,13.5-.6,2.1-.1,11.9.1,12.8-1.3,1.5-2.2.6-9.5-.6-11.7-.9-1.6-9.4.3-12.4,0,1.2-3.3.3-5.3,2.8-9l-.5,1.7,2-3.8-.9.7Z"/><path class="cls-1" d="M242.82,108.21a40.82,40.82,0,0,0,2.6,6.9c.7,1.1,4.4,2.9,5.7,3.6,3.6,2.1,2.6,1.8,6-.4,2.2-1.5,4.3-2.4,2.7-5.2-1.2-2.2-5.7-10.4-7.2-11.6-4.9-3.7-10.3,3.5-9.8,6.7"/><path class="cls-1" d="M239.22,104.41c-.1-.1-.4-3.8-.6-4.4-.4-1.4.2-3.3,0-4.7-.5-2.5-.5-1.5-.1-4.4.1-.9,1.6-3.4,1-3.9-.4.1-.3.2-.5.5l-.3-.4c-.3.9,0,1.8-.6,2.7-.1-.5,0-2.2-.3-2.4-.5.7.1,6.7.4,7.8a18.9,18.9,0,0,1,.1,4.1c0,1.4.4,2.5.3,4,0,.9.3,1.2.3,2s.2,1.2.2,1.9c0,.3-.1.7-.1,1,0,.5.3.4.4.8s-.1,1.5,0,2.1a11.34,11.34,0,0,1-.2,4.1,7.39,7.39,0,0,0,0,2.1,4.52,4.52,0,0,0-.1,2c.4-.3.4-1.2.4-1.7s0-.4.3-.8a23.83,23.83,0,0,0,.4-4.6,11,11,0,0,1-.2-1.8c0-.5.3-.5.2-.9-.1-.6-.3,0-.4-.5-.1-.7.9-2.8.6-3.3l-.8,2.5c-.1-1.2.8-5.9.2-6.6-.6.3,0,2.4-.6,2.8"/><path class="cls-1" d="M147.72,107.71a3.1,3.1,0,0,0,.6,1.3c.3-.5,0,0,0-.5.6.9,1.2,1.8,1.8,2.6,1,1.4.7,1.7,1.4,3,.3.5.9,1.2,1.3,1.9h.5a4.7,4.7,0,0,0-.9-1.2c-.8-1.1-.7-1.7-1.3-2.7s-1.1-1.6-1.7-2.5c-1.3-2-.9-1-1.3-1.3s.1-.5-.4-.6"/><path class="cls-1" d="M193.82,71.21c1.4,4.7.8,11.4.9,11.7.9-.1.3-5.9.2-6.8a38.71,38.71,0,0,0-.5-4.9Z"/><path class="cls-1" d="M247.42,136.81l.4,1c-.5-.2-.2-.7-.9-.7a25.58,25.58,0,0,1,1.1,2.4c-.4-.5-.6-2.2-1.7-2.2a5.61,5.61,0,0,1,1.2,1.9,45.13,45.13,0,0,1,1,5.3,29.85,29.85,0,0,0,0,3c.7,0,.4-5.6.4-5.7a12.09,12.09,0,0,0-.5-1.8l.3.7a18.23,18.23,0,0,1,1.1,4,15.27,15.27,0,0,1-.4,5.2c.5.1-.5,0,.2,0,.4,0-.2-.2.2,0l.1.8c.4-.4.6-3,.5-3.7-.3-4.7-1-4.5-1.2-5.5s-.6-4.3-1.8-4.7"/><path class="cls-1" d="M197.72,96.31c.2-.5.6-2,1.1-2.3.2.8-1.2,3.5-.6,4,.5-.3,1.4-6.4,1.5-7.3a19.06,19.06,0,0,1,1-3.4,10.8,10.8,0,0,0,.2-4c-.4.3-.3.9-.3,1.3,0,.6-.1,1-.1,1.6a6.81,6.81,0,0,1-.7,2.8c-.2.5-.5.7-.6,1.3s-.1,1-.2,1.5a28.64,28.64,0,0,1-.7,2.8c-.2-.5.7-2,.5-2.7a8.26,8.26,0,0,0-.8,2.2,3.69,3.69,0,0,0-.3,2.2"/><path class="cls-1" d="M219.32,33.91l-.3-1.8c-.4.3-.4,4.4-.2,4.9.4-.3.2-1.6.5-2.1.5.9-.4,3.1.2,5,.1.3,0,1.4.7,1.4.2-.4-.6-2.1-.6-2.1,0-.4.3-.3.4-.7a17.39,17.39,0,0,0,.1-3.2l-.3.3c-.2-.4.7-3.7-.4-4.2-.4.6,0,1.9-.1,2.5"/><path class="cls-1" d="M211.92,120.91c.4,1.3.5,3,.8,4.4a31.49,31.49,0,0,1,.9,4.2c.1,1.6.3,3.2.5,4.7.1.8.2,3.9,1.1,4.1l-1.1-8.5a2.92,2.92,0,0,0-.2-.9c-.2-.6-.1-1.8-.3-1.8-.7-.6-.7-6-1.7-6.2"/><path class="cls-1" d="M281.72,122.71c.1,1,0,2,.1,3.1.3,3.4.9,5.1-2.1,7-.5.3-3.6,2-3.7,2.4a26,26,0,0,0,4.5-2.5c2.7-1.8,1.4-3.4,1.8-5l.3.8c.4-.9-.2-1.2-.2-2.1-.1-1.9.4-6.2,0-6.8l-.2,1.1c-.5-1,0-2.8-.4-3.4-.9,1.5-.1,3.6-.1,3.9a3.78,3.78,0,0,0,0,1.5"/><path class="cls-1" d="M221.22,134.61c.2-.2.1,0,.2-.4,1.2-3.7,2.1-7,3.5-10.9.3-.9.5-1.3.2-1.6-.4.9-.8,1.9-1.2,2.8s-.4,1.5-.8,2.4a17.83,17.83,0,0,1-1.4,3.6c-.2,1.4-.4,2.7-.5,4.1"/><path class="cls-1" d="M281.22,118.51c.9-1.4-.5-6.1-.6-8.7-.1-1.9.4-1.8.3-2.6a15.64,15.64,0,0,1-.2-3.1c.4-2.4-.2-3.2.1-4.6.1-.3,0-.1.1-.4.2-.5.2.2.4-.5s.1-2.5-.3-2.8c-.3.4-.2,1.2-.2,1.7a9.15,9.15,0,0,0-.1,1.6c.1,1.9-.6-.1-.3,2.8a7.36,7.36,0,0,1-.1,3.3,19.29,19.29,0,0,1,0,3.4h-.2a40.19,40.19,0,0,0,.6,5c.4,2.1.2,4.4.5,4.9"/><path class="cls-1" d="M192,153.31c0-.1-.8-2.1-.9-2.5a15,15,0,0,1-.6-2.9,7,7,0,0,0-.2-1.6c-.2-.7-.4-.1-.4-1.4a16.05,16.05,0,0,0,0-3.1c-1.4,1.2-.7,12,1.2,12.6a8.65,8.65,0,0,0-.7-1.7,31.09,31.09,0,0,1-.9-6,.75.75,0,0,1,.5-.1c.1,1.1.1,7,2,6.7"/><path class="cls-1" d="M272.82,136.11c-.6,0-1.7.8-3.8,1.1-.9.1-3.4.4-4,1,.2.3.1.2.5.3.6-.4.7-.1,1.2-.4.4-.6,2.6-.5,3.4-.7a6.78,6.78,0,0,0,2.7-1.3"/><path class="cls-1" d="M197.42,131.61a28.47,28.47,0,0,1-1.1-3.9c-.7-2.8.5-3.6.3-4.2-.9,0-1,2.2-.9,2.8.2,1.1.4,2.1.7,3.2.5,2,1,4.1,1.5,6.2.4.2-.1-.1.3,0,.4,1.2.9,5.5,1.7,5.7.1-.5-1.5-5.7-1.3-6.2.3.5.4,1.8.8,2.1a38.94,38.94,0,0,0-1.2-4.9c-.3.6.2,1.4.1,2-.4-.4-.7-3.3-1.1-4Z"/><path class="cls-1" d="M221.22,134.81a8.76,8.76,0,0,0-.7,3.2c.5-.4.8-2.7.7-3.2"/><path class="cls-1" d="M153.62,74.61c-.2.1-.1,0-.3.2,0,0-.2.2-.2.3-.5.8-1.5,4.9-1.2,5.2.5-.8.5-2.5.9-3.4.2,2-1.4,4.5-.6,5.2a26.61,26.61,0,0,0,1-4.9c.2-1.9,2-2.6,1.2-4.6-.7.6.1,1.8-.7,2.5Z"/><path class="cls-1" d="M257,74.11c1.2-1.4-.7-6.9-.8-8.9a10.7,10.7,0,0,0-.9-4.3c-.4-.9-1.3-2.8-2.4-3.1a11.56,11.56,0,0,1,2,3.2c.9,1.9.8,4.1,1.1,6.3.3,1.7.8,1.5.8,4.3.1.8-.2,2,.2,2.5"/><path class="cls-1" d="M161.22,116c-1.2-.1-2,1.5-1.8,2.7a31.49,31.49,0,0,0,.9,4.2c.4,1,1.2,2.6,1.1,3.6a6.2,6.2,0,0,0,1.4,3.2c.1-.8-2.5-7.1-2.6-9.3.3.7.6,2.2,1.2,2.8.3-1.1-2.6-5-.9-6.2a12,12,0,0,1,1.9-1l-1.4.4Z"/><path class="cls-1" d="M249.32,49.11l.1-.5a38.56,38.56,0,0,1,.9,4.9c.1.3.2.3.3.6s-.1.4.2.7c.4-.3,0-2.3-.1-2.9l-.2.1c-.3-1.5-1.4-9.5-2.6-10-.3.4.3,1.1.4,1.6.7,2.2.5,4.5,1,5.5"/><path class="cls-1" d="M183.12,120.21c.6-.9.5-4,.7-5.3.2-1,.7-4.8.2-5.4-.3.5-.1,2.6-.5,3.5,0-.4.1-.5-.1-.9a28.08,28.08,0,0,0-.4,6.5l.3-.4c-.1.6-.5,1.5-.2,2"/><path class="cls-1" d="M247,117.31c-2.8-1.7-2.3-2.2-3.5-5l.4-.1a21.88,21.88,0,0,0-1.4-5,11.71,11.71,0,0,0,.4,2.6c.4,1.6.5,1,.4,2.3-.1,1,1.2,3.2,1.7,4s6.1,4,7.3,4.3c-.8-.7-4.2-2.4-5.3-3.1"/><path class="cls-1" d="M272.72,136.11c1,0,5.6-3,6.7-3.7a4.36,4.36,0,0,0,1.9-3.3,19.27,19.27,0,0,0-.1-2.4l-.2-2.3c-.2.9-.1,3.8-.2,5-.1,1.6-.8,2.1-2.1,2.9-1,.6-2.2,1.2-3.1,1.8-1.7,1.1-.6.6-1.4,1.1a3.77,3.77,0,0,0-1.5.9"/><path class="cls-1" d="M254.52,138.51c.2-.6-.8-1.8-1.1-2.8a13.23,13.23,0,0,1-.8-3.3l-.3-2.6c.1-.4.2-.2.1-.8-.4-3.3,0-2.4,0-3.6-1.4.1-.6,4.2-.4,5.4.1.6-.2.6,0,1.6a16.25,16.25,0,0,0,.4,1.9,4.71,4.71,0,0,0,.6,1.5c.2.5.9,2.4,1.5,2.7"/><path class="cls-1" d="M239.32,41.51c.5-.6-.1-1.9.3-3.5a2.44,2.44,0,0,0,0-1.2,18.11,18.11,0,0,0-.3-2.3,5,5,0,0,0-.3-2.4,2.46,2.46,0,0,0-.1,1.2v.6c-.1.4-.1.2-.2.5a19.39,19.39,0,0,0,.3,4.8c0,.6,0,2,.3,2.3"/><path class="cls-1" d="M289.12,94.71c1.1-1,.4-4,.2-5.2-.1-.6,0-1.4-.3-1.8-.3.4,0,1.5-.1,2.2-.1-.9-.8-6.2-1-6.5-.2.6.6,5.7.8,7.1.1,1,.4.5.5,1.3.1,1.4-.3,2.5-.1,2.9"/><path class="cls-1" d="M236.52,136.41c1-.5.1-2.1.6-3.2a16.86,16.86,0,0,0,1.2-2.8c.3-1,2.4-4.8,2.3-5.4-.8.6-2.3,4.4-2.7,5.6s-.4.7-.7,1.1a4.71,4.71,0,0,0-.6,1.5c-.1.8.3.7.1,1.6a2.19,2.19,0,0,0-.2,1.6"/><path class="cls-1" d="M186.32,110.31c.7,1.2,1.3,1.2,2.2,2.1,1.9,1.8,3.1,1.7,5.1,3.2,1.3,1,.7,2.8,1.2,3.3a3.78,3.78,0,0,0-.8-3.4,12,12,0,0,0-2.7-1.6c-1.3-.7-3.9-3.3-5-3.6"/><path class="cls-1" d="M258.22,122.61a11.24,11.24,0,0,0,3.1-1c1-.4,2.2-.7,2.3-1.8s-.5-6.6-1-7.3c-.3,1.5.8,6.7.7,7.4-.3,1.3-3.8,1.5-5.1,2.7"/><path class="cls-1" d="M187,95a17.62,17.62,0,0,1-1.9-3.9c-1.2-3.5-.1-4-.8-5a4.62,4.62,0,0,0-.4,2.6,9.51,9.51,0,0,0,.7,2.4c.5,1.2,1,3.6,2.4,3.9"/><path class="cls-1" d="M164.72,113.71c.7,0,1.5-1.1,2.1-1.4-.2.5-.8.9-1.2,1.4-.8,1.1-4.1,2.2-4.9,2.8a.1.1,0,0,1-.1.1c-.1,0,0,0-.1.1a17,17,0,0,0,3.2-1c.6-.2,2.4-.8,2.5-1.5l-2,1.1c.6-.9,3-1.9,2.7-3.3a5.06,5.06,0,0,0-2.2,1.7"/><path class="cls-1" d="M261.32,104.61c-.8,1.6.7,7,1.4,7.2,0-.4-.5-2.2-.6-3s.3-2.8-.5-3.1v1.4a5.39,5.39,0,0,0-.3-2.5"/><path class="cls-1" d="M184.82,92.91l.9,2V95c-.1.7.9,1.2,1.5,1.6l3,2a1.61,1.61,0,0,0,.9.3.37.37,0,0,0,.3-.1,8.17,8.17,0,0,1-2-1.2c-.6-.6.2-.2-.7-.9a25.25,25.25,0,0,1-2.5-2.1c-.8-.8-.9-1.6-1.4-1.7"/><path class="cls-1" d="M164.92,92.91c.3-.8.8-.6.7-3h.2v-1.3c0-.4.8-2.9-.3-3.4-.4.7,0,2.2-.2,2.6s-.4-.2-.2.9a5.85,5.85,0,0,1-.5,4.1Z"/><path class="cls-1" d="M238.12,119c.8-1,.4-1.3.6-2.6,0-.4.1-.7.1-1,.1-.8.5-3.7,0-4.1-.7,1.6.2,4.3-1.5,7.6.5-.1.4-.2.7-.6,0,.5-.2.3.1.7"/><path class="cls-1" d="M196,124.31a36.05,36.05,0,0,1,4.2-1.6,18.66,18.66,0,0,1,2.2-.7,5,5,0,0,0,2-.8c-.8-.1-3.5.9-4.4,1.2-1.1.2-3.7.8-4,1.9"/><path class="cls-1" d="M182.82,70.41a17.09,17.09,0,0,0,0-3.2c0-.7.1-2.4-.9-2.5.2.6.3.5.3,1.2l.2,3.9c.2.6.3.5.4.6"/><path class="cls-1" d="M242.12,106.31a1,1,0,0,1,.4-.5h.1a5.11,5.11,0,0,0,1.5-2.1c.2-.5.1-.7.4-1a11.51,11.51,0,0,1,1.4-1.7c.8-.8,1.4-1.1,1.6-1.5-1.2.2-2.5,2-3.2,3a8.32,8.32,0,0,1-1.3,1.8,2.72,2.72,0,0,0-.9,2.1"/><path class="cls-1" d="M156.72,100.51c1.1-.3,3.7-2.1,4-3.2s2.2-2.2,2.4-3.7c-.5.5-1.2,1.4-1.7,2-.3.4-.5.7-.8,1.1-.7.8-.3.6-.3,1a11.51,11.51,0,0,1-1.7,1.4,5.53,5.53,0,0,0-1.9,1.4"/><path class="cls-1" d="M199.72,55.91c.8,1,1.8.8,2.9.6s3.4-.5,4.4-.7c-1.8-.6-4.6.2-5.7.4a6.52,6.52,0,0,1-1.6-.3"/><path class="cls-1" d="M257.12,119.41a11,11,0,0,0,1.8-1.4c-.9.1-1.8,1.2-2.5,1.6a12.5,12.5,0,0,0-1.2.8c-.3.2-.9.4-1.3.6.3.2.4,0,.7,0,.5,0-.2,0,.4.2a7.63,7.63,0,0,0,2.3-1.5c0-.3,0,.1-.1-.2l-.1-.1h0"/><path class="cls-1" d="M147.22,106.31a5.56,5.56,0,0,1,2.2-2.1,6,6,0,0,0,1.3-.9l.9-.7.2-.2c-1,.2-5.3,2.5-4.6,3.9"/><path class="cls-1" d="M261.52,101.81a31.48,31.48,0,0,0-.5-4.3c0-.7.1-.9-.4-1.3a2.53,2.53,0,0,0,0,1.5c0,.9.2,3.8.9,4.1"/><path class="cls-1" d="M166.92,113.91c.8-.2.8-1.9.8-2.7,0-1.3.4-2.7.2-3.2-.8.6-.7,3.4-.8,4.5,0,.5-.2.9-.2,1.4"/><path class="cls-1" d="M186.22,109.41c-.9-.5-1.4-2.2-2-2.4.1,1,1.4,2.5,2,3.2v-.4c.6.2,1.5,1.2,2.4,1.4a15,15,0,0,0-2.4-1.8"/><path class="cls-1" d="M246.22,55.51l1.5-.1c-.4-.2-1-.3-2.1-.8a6.2,6.2,0,0,0-2.7-.2.1.1,0,0,1,.1.1c0,.1.1,0,.1.1,1.7.9-.1.5,2.6.7.8-.1.5,0,.5.2"/><path class="cls-1" d="M187.22,94.81c.1.6.4.7,1,1,1,.7,2.6,2,3.7,2-.1-.5-1.9-1.5-2.5-1.9l-.1.4a8,8,0,0,0-2.1-1.5"/><path class="cls-1" d="M147.62,107.31c.7-.4-.1-.7.8-1.3a39,39,0,0,0,3.6-2.5,8.67,8.67,0,0,0-2.7,1.4c-1.2.8-1.7.9-1.7,2.4"/><path class="cls-1" d="M164.92,92.91c-.2.7-3.4,3.7-3.8,4.7a23.08,23.08,0,0,0,4.1-4.7Z"/><path class="cls-1" d="M279.12,95c.3,2.1-.1,1-.1,2.2a4.48,4.48,0,0,0,.4,2c.4-.5,0-1.4.2-2a5.84,5.84,0,0,0,.2-1.9Z"/><path class="cls-1" d="M197.72,125.21c.7-.4,2.5-.8,2.8-1.3a12,12,0,0,0-2.7.8c-1,.4-.7,1.8-.4,2.6.4-.3-.2-.7.3-2.1"/><path class="cls-1" d="M234.82,122.61a15.79,15.79,0,0,0,4.2.9c-.1-.4.3-.1-.4-.3s-3.2-1.2-3.8-.6"/><path class="cls-1" d="M155.52,85.21c-.2-.5-1.1-.5-1.8-1.2a4.71,4.71,0,0,1-1-2c-.5.6,0,1.5.5,2.1a3.59,3.59,0,0,0,1,.7,3.26,3.26,0,0,0,1.3.4"/><path class="cls-1" d="M240.42,40.51c0-1.2-.1-2.4-.2-3.6a3,3,0,0,0-.4,1.9c-.1.7-.2,1.4.6,1.7"/><path class="cls-1" d="M198.32,138.81a3.7,3.7,0,0,0,.8,1.8,12.8,12.8,0,0,0-.7-3.9.76.76,0,0,0-.2.5Z"/><path class="cls-1" d="M237.72,136.11c.5-.4.5-2.5.2-3-.5.3-.5,2.5-.2,3"/><path class="cls-1" d="M238.42,138.31a3,3,0,0,0,1.5-.5,9.25,9.25,0,0,0-2.9.4c.4.3,0,.2.5.3-.4.2-.1,0-.1.2a2.88,2.88,0,0,0,1.3-.1Z"/><path class="cls-1" d="M248.72,74.91l-.1.2c0,.1-.2,0,.1.1.6,0,1.7.1,2.2-.3a5.66,5.66,0,0,0-2.9-.2c.3.2.3.1.7.2"/><path class="cls-1" d="M207.42,120.51a6.13,6.13,0,0,0,3-.2,4.44,4.44,0,0,0-3,.2"/><path class="cls-1" d="M219.82,59.31a7.43,7.43,0,0,0-.3-2.6l-.2.5c-.2-.8-.2-1-.7-1,.5,1.4.4,2.6,1.2,3.1"/><path class="cls-1" d="M197.52,41.41c-.3.2-.2-.1-.2.4l7.4.3c-1-.4.5,0-2-.4l3.7-.1a33.09,33.09,0,0,0-8.9-.2"/><path class="cls-1" d="M346.52,103.51c4.2.1,8.9.3,13,.3,1.6,0,3.7-.6,4.1,1.2.6,2.9.6,7.2-3.4,6.8-3.3-.4-7-.2-10.4-.5-1.1-.1-2.2-.1-3.3-.1v18.2c4.7-.2,9.9-.7,14.4-.6,1.7,0,1.5.8,1.8,2.4a11,11,0,0,1,.3,3.6,4.27,4.27,0,0,1-4.6,3.5c-.7,0-8-1.4-11.9-2.2v19.4c1.3.2,2.9.3,5.5.7s12.4,2.3,14.4,2c2.3-.4,9.3-3.6,12.2-4.6,2.1-.8,10.7-3.7,11.5-5.3.9-1.8,1.1-12.7,1.2-15.4.3-11,.8-21.8.6-32.8-.1-5.5-.3-11-.3-16.5,0-4.4.4-12.5-.3-16.5-.3-1.9-4.5-2-6.1-2.3-5.7-1.1-16.2-3.6-21-4.2-5.1-.6-11.2-.2-16.4-.3h-1.3v21.3l3.1-.2c2.8-.2,7.4-.1,9.9-.5,3.8-.6,1.8,1,1.9,7.4,0,1.3.1,1.5-1.2,1.4l-7.3-.4c-2-.2-4.2-.3-6.3-.4Zm-17.4,6.9a27,27,0,0,1,.4-4.9c.3-2.6,1-2.1,3.3-2.1,3.5,0,7.1.1,10.7.1h3V89c-4.6-.2-9.3-.4-13.7-.5-1.4-.1-3.7.3-3.8-1.4-.2-6,.2-4.2,10.7-5,2.2-.2,4.5-.3,6.8-.4V60.51c-5.1-.1-10.2,0-15.3-.2-7.2-.2-8-.5-14.8,1.8-2.8,1-4,.8-4,4.4,0,2.7,0,5.4-.1,8.1,0,5.4-.2,10.8-.2,16.2a101.48,101.48,0,0,1-1.2,15.6c-.8,4.9-.6,9.3-3.3,13.5-.2.4-2.7,4.7-2.8,4-.2-1.6-1.9,2.9-2.1,3.3-2,4.5-4.4,5.7-7.9,8.9-2.2,2-2.4,2.7-5.8,2.6-2.6-.1-5.2.2-7.7-.4,0,.3,1.3,2,1.5,2.7l1.2,3c4,10.2,2.9,8.7,8.1,8.5l8-.3c7.8-.4,6.4.6,12.9-3.9,2.6-1.8,5-7.1,6.9-9.9,1-1.5,2.2-3.7,3.1-5.2,1.9-3.2,1.9-2.7,5.5-2.9l16.2-.6,1.7-.1v-18.2c-5.7-.4-11.9-.3-17.3-1m17.4,25.6v19.4c-2.1-.4-3.3-1-6.3-4.2-5.4-5.6-7.6-5.1-5-9.3,1.1-1.8,1.9-3.6,3-5.3,1.7-2.5,3.5-1.6,6-1.1l2.3.5"/><path class="cls-1" d="M389.42,150.31l1.5-1.1a3.09,3.09,0,0,0,.7-2.6l.3-16.5c0-1.4.1-2.7.1-4.1,0-1,.7-3.3,0-4-.9,1.7-.6,6.2-.6,8.2,0,1.5-.7,9.5-.5,10.3.3,1.8-.1,4,0,5.9,0,1.2.5,1.5-.8,2.5-1.1.9-2.4,1.7-3.6,2.5,1.6,0,1.2-.5,2.9-1.1"/><path class="cls-1" d="M311.72,71.81a12.61,12.61,0,0,1-.4-2.8c0-2.8.4-1,.4-2.5a10.12,10.12,0,0,1,.2-3c.1-.5.8-1.8.8-2.1-.9,0-1.1,2.4-1.5,2.8l.3-2.5c-1.4,1-.3,12.4-.5,13.4-.8,3.5-.1,5.2-.5,8.1-.4-.6.1-1.3-.4-2a35,35,0,0,0,.2,5.6l.2-1.3c.4,0-.3.4.3,0a47.08,47.08,0,0,1,.3-5.3c.1-1.4-.2-4.1.4-5.1l.1,4c.4-1,.2-4.9.4-6.3a42.84,42.84,0,0,0,.2-6.2c-.5.4-.4,4.1-.5,5.2"/><path class="cls-1" d="M392.52,72.71c.3-.3.4-2.2.5-2.8a11.25,11.25,0,0,1,.1,4.1c-.1.5-.2.4-.4.9V76c0,2.5-.8,8.7-.2,10.4.1-.8,0-1.6.4-2,1.2,1.5-1.2,11.3,0,12.5.8-1.1.8-6.1.6-7.5-.3-2,.6-5.7-.4-7.4-.4-.7,0-6.6.2-7.6s.4-7.1,0-7.8l-.3,1.7-.3-1.4c-.4.2-.5,5.3-.2,5.8"/><path class="cls-1" d="M372.52,60.31c-.6.1-.9-.1-1.3.1l4.4,1.5a18,18,0,0,0,4.5.9c-3.5-2.1-4.8-1.3-7.6-2.5"/><path class="cls-1" d="M280.62,138.51l1.3,2.6-.6-.6a8.6,8.6,0,0,0,.7,2.5c.4,1,.4,1.8.7,2.7l.1-.4a33.83,33.83,0,0,1,1.1,3.4c.2.7.4,3.1,1.1,3.3a1.38,1.38,0,0,0,.1-1.1c-.5-2.8-.6-1.4-.9-2.4l-2-6.6a17.61,17.61,0,0,0,1.4,2.3c.3.4.6.5.9.9s.3.8.9,1c-.2-.7-3.7-7.3-4.1-7.4l.2.8Z"/><path class="cls-1" d="M392.72,115.31c1.2-.7-.1-4.5,0-5.6a60.78,60.78,0,0,0,.3-6.1c-.1-4.1-1.3-7.8-.8-11.9l.5,2.3c.2-.5.1-3.6-.3-3.9-.2.3-.1.5-.2.9s-.2.1-.4.5c-.1,1-.1,2.1-.2,3.1a28.24,28.24,0,0,0,.2,2.9c.1,2.2,0,4,0,6.2s.6,3.6.3,5.9c-.1,1.2-.4,1.8.2,2.9s-.1,2.2.4,2.8"/><path class="cls-1" d="M311.72,88.41c.3-1.2,0-2.2.4-3.8a9.81,9.81,0,0,0,.1-3.8c-.4.6-.1,1.6-.2,2.3,0-.5.1-1.2-.2-1.6-.4.8-.3,4.1-.2,5.2-.5.8-.3,0-.5,1.3-.1.5,0,1-.1,1.6s-.2,1-.3,1.5a77.91,77.91,0,0,0,.1,8.5,8.42,8.42,0,0,0,.4-2.7,15,15,0,0,1,0-3c.1-.6.3-.4.3-1.2l.1-4.5c-.2-.1-.1.2.1.2"/><path class="cls-1" d="M317.82,144.81c.8-1.2,1.5-2.5,2.2-3.8.4-.8,2.1-3.2,2-3.8-.3.1-.4.4-.6.7l-3.7,6.6c.2-.9,1.5-2.4,1.5-3.3-.8.5-2.5,4.8-3.4,5.6.1-1,1.1-1.7,1.2-3-.4.2-1,1.8-1.3,2.3a6.52,6.52,0,0,1-1.6,2.1c-.7.7.3.2-.7.9-.5.3-.5.4-.8.4a2.39,2.39,0,0,0-1.3.7c-.5.4-.1,0-.3.5-.1.2-.2.2-.3.4,3.5-1.5,4.4-3.7,5-4.1,0,.6-.3.3-.4.9.5-.3,1.8-2.6,2.3-3.2Z"/><path class="cls-1" d="M338.22,134.61c.6-1.3,4-.5,4.6-.8a8.59,8.59,0,0,0-3.2-.5,3.75,3.75,0,0,0-2.1,1.6h.5c-.4.7-3.5,4-3.2,4.6l.6-.8c.3.6-2.4,4.5-2.4,5.6.3-.2,2.3-4.2,2.7-4.9a28.27,28.27,0,0,1,3.2-4.5l-.5.2c.3-.4,1-.6.9-.9Z"/><path class="cls-1" d="M323.62,136.21c.4-.8.9-1.7,1.3-2.5.2-.4.5-.9.7-1.3s.7-.7.7-1c-1.8-.1-3.4,3.2-4.3,4.5-.7,1-3.4,4.6-3.4,5.6.5-.2,2.2-3.6,2.7-4.3a12.67,12.67,0,0,1,1.1-1.3l.3.2,1.7-1.9Z"/><path class="cls-1" d="M392.92,119.71c.2-.8.4-2.2-.2-2.8a11.63,11.63,0,0,0-.3,4.9,6.11,6.11,0,0,0,.5-1.2c.3,2.1-.7,9,.2,10.1.3-.4.2-4.9.3-5.8a9.48,9.48,0,0,1,.5,2.3,27.26,27.26,0,0,0-.3-5.7,6.15,6.15,0,0,1-.2-1.9c-.6.1-.2.1-.5.1"/><path class="cls-1" d="M297.52,131.61c.7-.1.9-.8,1.4-1.1.9-.7.1,1,2.3-2.6.4-.6.4-1.1.8-1.6a64.31,64.31,0,0,0,3.7-6.4c-.8.2-4.9,7.5-5.9,9Z"/><path class="cls-1" d="M360.12,129.51a7.58,7.58,0,0,0-2.6.1c.5.5,2.4-.1,3,.3.3.2.4,2,.7,2.6.1.2.2.1.3.6v.8c-.4,2-1.6,2.2-2.1,2.8.9-.1,1.1-.7,1.7-1.1.9-.6.8-.6.9-1.8,0-1.4.3.2.1-2.3a3,3,0,0,0-.6-2c-.4.7.6.7-.2,1.8-.3-.8-.1-1.7-1.2-1.8"/><path class="cls-1" d="M360.62,89.11a8.85,8.85,0,0,0,0-2.3c-.4,0,.2-.2-.2.1s.2.2-.1.1l.2-5.3c-.9.3-.7,2.1-1,3.9a8.09,8.09,0,0,0,0,2.2c.1.8.1,1.4,1.1,1.3"/><path class="cls-1" d="M391.62,71.61c-.5.5-.3,2.5-.2,3.2.1,1.8.4,2.1.4,3.2a3.79,3.79,0,0,1,0,1.5,24.32,24.32,0,0,0,.2,4.7c.2-.1.2-.1.3-.3l.2-2.9a17.33,17.33,0,0,0-.3-3.2v-1.7c-.1-.5-.3-1-.4-1.5,0-.7.5-2.3-.2-3"/><path class="cls-1" d="M336.72,148.31c-.9-.8-.2.4-1-.4l-1.9-1.9c-.7-.9-.2-.8-.7-1.1-.6,1,2.4,3.6,3.1,4.2.4.3.8.4,1.2.7a25.47,25.47,0,0,0,3,2.6c-.1-.8-2.9-3.3-3.7-4.1"/><path class="cls-1" d="M286.52,148.51c-.2-.5-1.2-2.4-1.8-2.4,0,.7,1,2.2,1.3,3l1.1,3.2c.1-.2.1-.1.1-.5a19.42,19.42,0,0,0-.7-3.3"/><path class="cls-1" d="M328.82,109.91c.4,0,.8-.4,1.1-.7a1.71,1.71,0,0,0,.7-1.3,6.7,6.7,0,0,0,0-2c-.2-1,0-.7.2-1.6-.9.1-.9,1.6-1,2.9-.1,2-.9,1.9-1,2.7"/><path class="cls-1" d="M362.72,108.31l-.8,1.7c-.5.6-1.4.1-2,.4.3.4,1.3.4,1.8.3a3,3,0,0,0,1-1.9l.3.3a2.56,2.56,0,0,0,0-2.1Z"/><path class="cls-1" d="M363.52,108.41c.1-.7.5-3.9-.5-3.9l.3,3c-.1,1.3.1.8.2.9"/><path class="cls-1" d="M294.72,135.11a7.46,7.46,0,0,0,1.7-1.4c1.1-.9,1.5-1,1.5-1.5-.3.1-3.2,2-3.2,2.9"/><path class="cls-1" d="M289.92,137.41c.7-.2,3.1-2.5,3.1-3.2a5.72,5.72,0,0,1-1.6,1.5s-1.4,1.5-1.5,1.7"/><path class="cls-1" d="M337.12,149.11c.7,1.5,3.6,3.3,4.1,4.4-.4-.3-.8-.9-1.3-.9,0,.2,3.4,3.9,4.2,3.9-.1-.4-1.3-1.2-1.6-1.7.4.1,1.7,1.6,3.4,2,.4.1.7.1,1.1.2s.7.2,1,.3c.7.1,1.8.2,2.4.3-.9-1-4.3.3-7.7-3.2-1-1-1.8-1.6-2.8-2.7a23.29,23.29,0,0,0-2.8-2.6"/><path class="cls-1" d="M368.62,158.61h.3c.3-1,.8-.7,1.5-.7.4,0,5.2-1.5,5.6-1.7,1.2-.5,2.2-1,3.4-1.4.7-.2,2.9-1.1,3.2-1.6-.8-.2-6,2.2-7,2.6s-2.6.9-3.7,1.3-3.2.2-3.3,1.5"/><path class="cls-1" d="M360.12,159.11h.6c0-1.2-.5-1.1-1.7-1.4-.6-.1-2-.5-2.5-.2.9.6,3.6.2,3.6,1.6"/><path class="cls-1" d="M133.32,147.31c0-.1.1-.2.1-.3a54.58,54.58,0,0,0,.4-5.7,4.53,4.53,0,0,1,.3-1.6,10.87,10.87,0,0,0-.1-1.8c-.9,1.2-.4,7.2-.9,9l-.1.5Z"/><path class="cls-1" d="M58.32,141.41l-.2-2.1c-.4.7-.2,6.4.6,7.1a18.29,18.29,0,0,0-.2-3.3c-.1-1.4.2-.8.2-1.7a5,5,0,0,1,.2-1.7l.2,2.4c.4-.6.1-3.3.3-4.2.5-2.9,0-2.1-.2-3.8a11.23,11.23,0,0,1,.2-4.1,17.78,17.78,0,0,0,.7-3.9c-.5.6-1.6,6-1.6,7,.1,1.4.1,2.8.1,4.1a14.37,14.37,0,0,0-.3,4.2"/><path class="cls-1" d="M60.82,74.91l.4.1v.6a29.54,29.54,0,0,0,2.8-6.3c-1,1-1.4,3.4-2.3,4.5a77.58,77.58,0,0,1,3.4-8.4c.2.4-.6,1.3-.5,2a87.08,87.08,0,0,0,3.2-8.5c-1,.5-1.7,4.4-2.6,5.4,0-.9,3.9-9.2,3.5-10.4-.1.1-3.8,9.8-4,10.5-.8,3.3-2.9,7.1-3.9,10.5"/><path class="cls-1" d="M122,159.31l.3-1.2c-.5.1-.7,1.2-1,1.6-.6,1-.4.7-1.4,1.3a18.67,18.67,0,0,1-3.2,1.5c-.5.3-.3.1-.4.4a19.15,19.15,0,0,0,4.6-2.1,11.32,11.32,0,0,0,1-1.3,3.18,3.18,0,0,1-.3.9c-.4.8-.1.2,0,.8-1.2,1.5-7.7,3.4-8,4.4,3.1-1.1,3-1.4,5.3-2.5,2-.9,2.7-.7,3.5-2.3.6-1.3,0-.7.2-1.4s.9-2.1,1.1-2.8a51.36,51.36,0,0,1,3.5-8.4c-1.8.2-4.5,10.6-5.2,11.1"/><path class="cls-1" d="M133.32,59.61c-1.1,1.2-1.2,2.9-1.5,4.3s-.9,3-1.2,4.5a3.94,3.94,0,0,0-.1,2.4,7.94,7.94,0,0,1-.6,2.2,16.52,16.52,0,0,1-1.8,4.1c-.4.1-.3-.1-.7,0-.6,1.4,1.2,2.1,1,1.1-.2-1.5.2-1.4.9-2.7,2.5-4.9,1.1-5.5,1.8-7.7.3-.9.6-1.9.9-2.8.3-1.1.4-3.4,1.1-4.3.2-.4.5-.7.2-1.1"/><path class="cls-1" d="M14.32,131.71c.2,1.4-.5.1,1.1,2.4.8.2,1.8,2.1,2.1,2.8a3,3,0,0,0,1.8,2,12.3,12.3,0,0,0-3-4.4,4.48,4.48,0,0,1-1.6-3c-.2-.7-.2-.2-.3-.7s-.1-1.1-.2-1.6a2.2,2.2,0,0,0-.1,1.4c-.1.7-.3.7.2,1.1"/><path class="cls-1" d="M9.72,109c1.1-.4,3.1-2.5,3.5-2.7l.5-.1c.3-.1.5-.5,1.1-.7-.3.8-6,4.2-6.9,6.1,1.3-.4,6.5-5.5,7.8-6.4,1-.7,2-1.4,1.9-2.7-.6,1.5-.8.7-2.9,2.2a26.18,26.18,0,0,0-3.2,2.3,17.11,17.11,0,0,0-1.8,2"/><path class="cls-1" d="M133.92,137.11c.5-1-.3-.9.7-3.5.5-1.1.1-2.7-.1-3.9a1.27,1.27,0,0,0-.1-.6h-.5c-.1,1,.1,3,0,4s-.6,3.2,0,4"/><path class="cls-1" d="M92.22,161.51a9.38,9.38,0,0,0-.6-1.5c-.3-.6-.2-1.1-.5-1.7-.4-1-1-1.9-1.4-2.9a3.92,3.92,0,0,1,.1-3.5,7.56,7.56,0,0,1,1.9-2.5c-.1.3-2.8,3.5-1.9,4.9a2.48,2.48,0,0,0,.1-.9,8.15,8.15,0,0,1,2.4-4.1c.4-.3,1.6-.8,1.7-.9a4.44,4.44,0,0,0-3.7,1.5c-2.3,3.1-1.2,5.2.2,7.9.5,1,1,3.3,1.7,3.7"/><path class="cls-1" d="M86.52,59.11a19,19,0,0,0,4.1.4c1.4-.2,3,.4,4.2-.1-.5-.4-6.7-.3-7.4-.8-.3-.5.6-1.1.5-1.7s.8-1.3.8-2c-.9.3-1.5,2.4-1.5,2.7-.4,1-.7,1.1-.7,1.5"/><path class="cls-1" d="M59.62,132.41a23.69,23.69,0,0,0,.9-3.6,21.36,21.36,0,0,1-.6,3.5c-.1.9-.4,3.1,0,3.8.2-1.3,0-2.6.3-4.1.3-1.2.6-2.4.8-3.6.1-.3.1-.6.2-1,.3-1.6-.4.3.1-2.7.3-1.7,1-3.5-.3-3.3.2.6.4.1.3,1.1-.1,1.4-.5,3-.7,4.4a21.39,21.39,0,0,1-.6,2.7c-.2.8-.8,2.2-.4,2.8"/><path class="cls-1" d="M66.22,93.71,67,93c-.4.7-.8,1.5-1.2,2.2-.6,1.3-2.8,6.9-2.7,7.7.8,0,2-4.4,2.3-5.2s2.2-5.1,2.1-5.6a3.32,3.32,0,0,0-1.3,1.6"/><path class="cls-1" d="M127.42,106.11c.9-.5.8-3.4.9-4.4.5-3.5-.7-2.8-.3-4.8.3-1.7-.5-.7.5-2.8a1.48,1.48,0,0,0,.1-.7c0-1.3.2-5.9-.2-6.4-.6,1.3-.4,3.4-.4,4.9l-.5,4.9c0,.7-.4,2.9,0,3.6.2.4.4-.1.3,1-.2,1.6-.3,3.1-.4,4.7"/><path class="cls-1" d="M17.32,74.71a3.33,3.33,0,0,0-.1-1.4c-.4.9.1,4,.1,5.2a6.05,6.05,0,0,0,0,1.9c.3-.2,0-.1.3-.5a2.46,2.46,0,0,1-.1,1.2c.8-.1.6-1.4.6-2.4a24.37,24.37,0,0,0,.1-2.7c-.3.3-.2.5-.2,1a5,5,0,0,1-.2,1.2c-.3-2,.4-5.8.1-7.1-.9.6-.2,2.8-.6,3.6"/><path class="cls-1" d="M11,95.31a3.28,3.28,0,0,0,1.9.4l-.3.2c1,.8,2.5.4,3.2,1.1l.4,3.9c0,.5-.3.8.1,1.3.5-.6.6-3.7.4-4.5-.3-1.9-2-1.4-3.5-1.8l1-.1c-.4-.3-3-.8-3.2-.5"/><path class="cls-1" d="M69.62,54.21c.9-.4,2.4-4.8,2.9-5.9.6-1.3,1.9-4.9,3-5.7-1.1.2-3.2,4.2-3.6,5.2s-.6,2.1-1.1,3.2a9,9,0,0,0-1.2,3.2"/><path class="cls-1" d="M130.42,78.81c.5-1-.4-3.1.1-5.1.2-.9.1-1.9.3-2.7.1-.5.7-2.1.4-2.5-.4.3-.7,1.8-.8,2.3-.2,1-.1,1.7-.3,2.7s-.3,4.6.3,5.3"/><path class="cls-1" d="M129.12,95.51c.4-.5.1-.2.3-.7l-.1,5.7c.7-.7.1-3.5.7-4.2.2,1.1-.2,4,.2,4.8.6-.7.4-6.9.3-7.5a11.38,11.38,0,0,0-.5-2.3c-.6.7,0,1.2-.4,1.8-.3-.5.2-2.4-.1-3.3-.2.1,0-.3-.3.4a31.08,31.08,0,0,0-.1,5.3"/><path class="cls-1" d="M19.12,63.11c0-.8.3-1.4.3-2-.7.6-.9,3.2-.9,4.1s-.7,3.9-.3,4.6c.5-.8.5-2.7.7-3.6l.1.9c.5-.5.2-3.2.9-4.8.2-.4.6-.9.6-1.3-.8.1-1.1,1.7-1.4,2.1"/><path class="cls-1" d="M62.22,105c1,0,.8-1.9,1.5-4.1.5-1.6,1.5-3.1,1.6-4-.6.3-.9,1.1-1.2,1.7-.4.8-2,3-1.9,4s.4-.5.2,1c0,.5-.2.9-.2,1.4"/><path class="cls-1" d="M38.92,128.91c.4-1-.3-3.7-.5-4.7a24,24,0,0,1-.4-2.4c-.1-.8-.4-1.3-.6-2.2.3.1.6.6.9.9l3.8,1.9c-.2-.5-2.2-1.5-2.7-1.8-1.1-.6-1.9-1.7-2.6-2.1a6.65,6.65,0,0,0,.7,2.4,45.12,45.12,0,0,1,1,5.3l.3,2c-.1.2-.1.6.1.7"/><path class="cls-1" d="M97.72,124.91c.5.5,1.4.7,1.5,1.8l-.5-.5c.1.4,1,2.6,1.2,3.3s.7,3,1.6,2.8c.1-.7-1.1-3.5-1.4-4.3s-1.1-3.7-2.4-3.1"/><path class="cls-1" d="M42.42,105.11a8.07,8.07,0,0,0-2.4-1.7,13.5,13.5,0,0,1-2.6-1.5c-.9-.7-1.6-1-1.9-2.2l-.2-2.9c0-.6.1-.4.2-.8-.9,0-.5.7-.5,1.3a13.4,13.4,0,0,0,.1,2c.1,1.3.8,1.8,1.8,2.6s4.4,3.1,5.5,3.2"/><path class="cls-1" d="M103.92,130.81c-.1-1.2.1-5.3-.4-5.9-.2.1-.1.6-.2.4a.1.1,0,0,1-.1.1c-.2-.3.1-.1-.3-.3.1,2.7.8,1.5.3,3.8a8.1,8.1,0,0,0,.1,3.1v.1l.4.6a3.2,3.2,0,0,0,.2-1.9"/><path class="cls-1" d="M102.92,100a5.86,5.86,0,0,1-.1,2.3c-.2-.6-.1-1.4-.5-2-.1.8.3,2.2.3,3.1s-.1,2.2,0,3.2l.2-.5c.1.5,0,1.4.4,1.6-.2,0,.5-7.6-.3-7.7"/><path class="cls-1" d="M85.52,103.21c.8-.6.9-3.1,1.9-3.8a17.88,17.88,0,0,0-1.3,3.2,12.09,12.09,0,0,0-.5,1.8c-.1.8-.3,1.3.2,1.8a14.16,14.16,0,0,0,.4-2c.4-1.5,1-4,2.1-5.2-.7,0-.3.1-.8.2-.3.1-.8-.1-1.3,1.4a6.62,6.62,0,0,0-.7,2.6"/><path class="cls-1" d="M44,105.51c-.2-.3-.4-.3-.7-.6s-.1-.5-.7-.7c0-.3-.1.4.1-.1s.1.4,0-.1a22.64,22.64,0,0,0-4.2-2.6,6.55,6.55,0,0,1-1.8-1.5c-.5-1-.1-2.2-.6-2.9a4.34,4.34,0,0,0,.5,3.5c.9.8,2.3,1.2,4,2.5.6.4,0,0,.2.4.1-.1,2.2,2.1,3.2,2.1"/><path class="cls-1" d="M3.42,119.51c.3-.6-.2-.9.6-2.2a2.62,2.62,0,0,0,.1,2.7c.2-.3,0-.9,0-1.3a3.53,3.53,0,0,1,.3-1.4c.1-.6-.2-.3.3-1a40.56,40.56,0,0,1,3.6-4.6c-.5,0-6.1,6-4.9,7.8"/><path class="cls-1" d="M89.42,54.81a9.41,9.41,0,0,0,1.2-2.2,2.7,2.7,0,0,1,.7-.8l1.1-2.3c.2-.6,0-.6.2-1.2a11.28,11.28,0,0,0,.8-2.4,1.6,1.6,0,0,0-.7.9l-1.4,3.6c-.3,1.2-1.9,3.3-1.9,4.4"/><path class="cls-1" d="M33.72,74.81c.1,1.4,0,5,.8,5.9.6-.9.1-2.5-.2-3.4s.1-3.1-.3-3.8c-.3.6-.1.9-.3,1.3"/><path class="cls-1" d="M17.62,103.61c1.1-.1,1-2.1.9-2.9s0-2.9-.6-3.4c-.3,2.9.6,3.7-.3,6.3"/><path class="cls-1" d="M86.72,129.81c.9,1.2,2.8,1.6,3.8,2.4-2.2-.1-4.2-2-5.1-2.1a11,11,0,0,0,2.5,1.7c3.4,1.2,2.1.5,2.9.3-.2-.4-1.6-.9-2-1.2a5.29,5.29,0,0,0-2.1-1.1"/><path class="cls-1" d="M98.52,82.31c-.4.2-.1-.1-.6.2a7.17,7.17,0,0,0,2.5.7c.6.1,2.6.4,3.1.1-.9-.6-2.9-.4-3.8-.6-.2-.1-.3-.2-.4-.2s-.1.1-.5-.1c-.1-.6.1-.6-.2-1.1-.3.3,0,.3-.1,1"/><path class="cls-1" d="M83.52,128.31c.4-.5,0-1.7.8-2.6.5-.5,1.3-1,1.8-1.5-.4-.2-.8.1-1.2.4a8.34,8.34,0,0,0-1.2.8c-.5.8-.8,2.2-.2,2.9"/><path class="cls-1" d="M87.12,81.51c-.1.2.2.2.1.4-.8,0-3.2,0-3.5.4a9.23,9.23,0,0,0,3.7.1c0-.1-.1-.1-.1-.4a22.82,22.82,0,0,0,4.5-.4,4.84,4.84,0,0,0-2.4-.3c-1.5.3-.9-.3-2.3.2"/><path class="cls-1" d="M78,79.81l.6-.4c.2.7-.2,0,0,.5,2.1-1.5,1.7-1.2,3.5-1.2.2-.4.1.1,0-.5l.5-.1a19.27,19.27,0,0,0-2.4.1c-.6,0-.3-.1-.6-.1-.5.1-1.4,1.2-1.6,1.7"/><path class="cls-1" d="M46.82,123.91c.8.5,2-1.1,2.5-1.6.7-.9,1.6-1.6,1.7-2.9-.4.3-.6,1.2-1.9,2.6a8.65,8.65,0,0,1-2.3,1.9"/><path class="cls-1" d="M94.62,148.91c.8.5,4.6,2.3,5.3,1.9a22.63,22.63,0,0,0-2.6-1.1,6.63,6.63,0,0,0-1.9-.9c-.5-.1-.4-.2-.8.1"/><path class="cls-1" d="M34.22,76.91c.4-.5.4-2.3.4-3a11.33,11.33,0,0,0-.1-3.2c-.1.1-.1.1-.1.2l-.2,2.9a8.08,8.08,0,0,0,0,3.1"/><path class="cls-1" d="M11.12,125.91c.7-.2,5-3.1,5.3-3.7a12,12,0,0,0-2.7,1.6c-.7.5-2.4,1.5-2.6,2.1"/><path class="cls-1" d="M34,138.91c1.2-1.1,3.4-3,3.9-4.5-.7.7-1.4,1.4-2.1,2.2-.5.5-1.8,1.5-1.8,2.3"/><path class="cls-1" d="M129.22,78.61c.4-.5,0-1.3,0-2.2.1-.5.2-.9.3-1.3-1,.4-1.1,2.9-.3,3.5"/><path class="cls-1" d="M77.42,133.91c1.1-.2,1.3-4.2,1.1-4.6a2.1,2.1,0,0,0-.4,1.1c-.1.4-.1.8-.2,1.2-.1.7-.5,1.8-.5,2.3"/><path class="cls-1" d="M1.22,93.71a21.77,21.77,0,0,1-.6-2.2l-.3-2.2c-.1-.2,0-.1-.2-.2-.3.5-.1,4.9,1.1,4.6"/><path class="cls-1" d="M35.72,136.31c.6,0,1.6-1.2,2-1.7a6.84,6.84,0,0,0,1.7-2.1,14.88,14.88,0,0,0-3.7,3.8"/><path class="cls-1" d="M102.42,125.71a5,5,0,0,0-.2,2.1,7.12,7.12,0,0,0,.4,2.1,8.56,8.56,0,0,0-.2-4.2"/><path class="cls-1" d="M7.12,127.41c-.1-.9-1.6-3.9-2.4-4.2a19.12,19.12,0,0,0,1.6,3.2c.3.6.4.9.8,1"/><path class="cls-1" d="M40.62,95.31c-.1.4-.1.3.1.6.6,0,0-.2.8-.4a5.65,5.65,0,0,1,1.3,0c.6-.1.4-.2.9-.4s.4,0,.9-.2c-.3-.2-.3-.1-.4-.1h-.5a16.68,16.68,0,0,0-3.1.5"/><path class="cls-1" d="M56.12,95.21l1.9,1.9c.3-.1,0-.5,1,.4a2.18,2.18,0,0,0,.8.5c.7.1.2,0,.4-.1a6,6,0,0,0-1.1-.6,35.85,35.85,0,0,1-2.7-2.5Z"/><path class="cls-1" d="M134.12,122.31c1.5-.8,2.9-5.4,2.7-7-1.2.8-3,5.6-2.7,7"/><path class="cls-1" d="M60.12,146.31c.7.5,2.4.5,3.8.6a8.56,8.56,0,0,0,4.2-.2c-.8-.4-7.6-.5-8-.4"/><path class="cls-1" d="M89.42,53.21c.5,0,.9-1.2,1.1-1.6a3.94,3.94,0,0,0,.6-2.1c-.7.4-.5,1-.9,1.7a7.56,7.56,0,0,0-.8,2"/><path class="cls-1" d="M81.62,102.31c.4-.3.5-1.3.5-1.8l.2-2.1c-.9.3-.9,3.3-.7,3.9"/><path class="cls-1" d="M95.42,59.31c.8,1.1,4.4.4,5.5.1-.4-.5-1.9-.2-2.7-.1a13.1,13.1,0,0,0-2.8,0"/><path class="cls-1" d="M15.62,102.41c-.1-.5.1-.5-.2-.9a5,5,0,0,0-.2,2.1c1-.8.9-1.3.7-3.2l-.3.9v1.1"/><path class="cls-1" d="M14.82,129.81c.4-.2.9-1.2,1.3-1.7s1.6-1.1,1.7-1.4a4.28,4.28,0,0,0-3,3.1"/><path class="cls-1" d="M56.22,80.21c.6.3.4.2,1.1-.2a3.64,3.64,0,0,0,2.2-2.9c-.5.6-.8,1.3-1.3,1.8-.7.6-1.6.6-2,1.3"/><path class="cls-1" d="M100.92,150.11a1.64,1.64,0,0,0,1.6-.7c.4-.5.7-1.1,1.1-1.7a2.21,2.21,0,0,0-1.3,1.2c-.4.9-.8.8-1.4,1.2"/><path class="cls-1" d="M86.42,130.21a18.76,18.76,0,0,0-2.4-1.8c-.1.5.3.7.7.9,0,.1,0,.1-.1.2-.1.4,0-.2,0,.2.4.3.2.2.7.3l-.4-.3c.7.1.9.6,1.5.5"/><path class="cls-1" d="M133.32,147.31c0-.1.1-.2.1-.3a54.58,54.58,0,0,0,.4-5.7,4.53,4.53,0,0,1,.3-1.6,10.87,10.87,0,0,0-.1-1.8c-.9,1.2-.4,7.2-.9,9l-.1.5Z"/><path class="cls-1" d="M58.32,141.41l-.2-2.1c-.4.7-.2,6.4.6,7.1a18.29,18.29,0,0,0-.2-3.3c-.1-1.4.2-.8.2-1.7a5,5,0,0,1,.2-1.7l.2,2.4c.4-.6.1-3.3.3-4.2.5-2.9,0-2.1-.2-3.8a11.23,11.23,0,0,1,.2-4.1,17.78,17.78,0,0,0,.7-3.9c-.5.6-1.6,6-1.6,7,.1,1.4.1,2.8.1,4.1a14.37,14.37,0,0,0-.3,4.2"/><path class="cls-1" d="M60.82,74.91l.4.1v.6a29.54,29.54,0,0,0,2.8-6.3c-1,1-1.4,3.4-2.3,4.5a77.58,77.58,0,0,1,3.4-8.4c.2.4-.6,1.3-.5,2a87.08,87.08,0,0,0,3.2-8.5c-1,.5-1.7,4.4-2.6,5.4,0-.9,3.9-9.2,3.5-10.4-.1.1-3.8,9.8-4,10.5-.8,3.3-2.9,7.1-3.9,10.5"/><path class="cls-1" d="M122,159.31l.3-1.2c-.5.1-.7,1.2-1,1.6-.6,1-.4.7-1.4,1.3a18.67,18.67,0,0,1-3.2,1.5c-.5.3-.3.1-.4.4a19.15,19.15,0,0,0,4.6-2.1,11.32,11.32,0,0,0,1-1.3,3.18,3.18,0,0,1-.3.9c-.4.8-.1.2,0,.8-1.2,1.5-7.7,3.4-8,4.4,3.1-1.1,3-1.4,5.3-2.5,2-.9,2.7-.7,3.5-2.3.6-1.3,0-.7.2-1.4s.9-2.1,1.1-2.8a51.36,51.36,0,0,1,3.5-8.4c-1.8.2-4.5,10.6-5.2,11.1"/><path class="cls-1" d="M133.32,59.61c-1.1,1.2-1.2,2.9-1.5,4.3s-.9,3-1.2,4.5a3.94,3.94,0,0,0-.1,2.4,7.94,7.94,0,0,1-.6,2.2,16.52,16.52,0,0,1-1.8,4.1c-.4.1-.3-.1-.7,0-.6,1.4,1.2,2.1,1,1.1-.2-1.5.2-1.4.9-2.7,2.5-4.9,1.1-5.5,1.8-7.7.3-.9.6-1.9.9-2.8.3-1.1.4-3.4,1.1-4.3.2-.4.5-.7.2-1.1"/><path class="cls-1" d="M14.32,131.71c.2,1.4-.5.1,1.1,2.4.8.2,1.8,2.1,2.1,2.8a3,3,0,0,0,1.8,2,12.3,12.3,0,0,0-3-4.4,4.48,4.48,0,0,1-1.6-3c-.2-.7-.2-.2-.3-.7s-.1-1.1-.2-1.6a2.2,2.2,0,0,0-.1,1.4c-.1.7-.3.7.2,1.1"/><path class="cls-1" d="M9.72,109c1.1-.4,3.1-2.5,3.5-2.7l.5-.1c.3-.1.5-.5,1.1-.7-.3.8-6,4.2-6.9,6.1,1.3-.4,6.5-5.5,7.8-6.4,1-.7,2-1.4,1.9-2.7-.6,1.5-.8.7-2.9,2.2a26.18,26.18,0,0,0-3.2,2.3,17.11,17.11,0,0,0-1.8,2"/><path class="cls-1" d="M133.92,137.11c.5-1-.3-.9.7-3.5.5-1.1.1-2.7-.1-3.9a1.27,1.27,0,0,0-.1-.6h-.5c-.1,1,.1,3,0,4s-.6,3.2,0,4"/><path class="cls-1" d="M92.22,161.51a9.38,9.38,0,0,0-.6-1.5c-.3-.6-.2-1.1-.5-1.7-.4-1-1-1.9-1.4-2.9a3.92,3.92,0,0,1,.1-3.5,7.56,7.56,0,0,1,1.9-2.5c-.1.3-2.8,3.5-1.9,4.9a2.48,2.48,0,0,0,.1-.9,8.15,8.15,0,0,1,2.4-4.1c.4-.3,1.6-.8,1.7-.9a4.44,4.44,0,0,0-3.7,1.5c-2.3,3.1-1.2,5.2.2,7.9.5,1,1,3.3,1.7,3.7"/><path class="cls-1" d="M86.52,59.11a19,19,0,0,0,4.1.4c1.4-.2,3,.4,4.2-.1-.5-.4-6.7-.3-7.4-.8-.3-.5.6-1.1.5-1.7s.8-1.3.8-2c-.9.3-1.5,2.4-1.5,2.7-.4,1-.7,1.1-.7,1.5"/><path class="cls-1" d="M59.62,132.41a23.69,23.69,0,0,0,.9-3.6,21.36,21.36,0,0,1-.6,3.5c-.1.9-.4,3.1,0,3.8.2-1.3,0-2.6.3-4.1.3-1.2.6-2.4.8-3.6.1-.3.1-.6.2-1,.3-1.6-.4.3.1-2.7.3-1.7,1-3.5-.3-3.3.2.6.4.1.3,1.1-.1,1.4-.5,3-.7,4.4a21.39,21.39,0,0,1-.6,2.7c-.2.8-.8,2.2-.4,2.8"/><path class="cls-1" d="M66.22,93.71,67,93c-.4.7-.8,1.5-1.2,2.2-.6,1.3-2.8,6.9-2.7,7.7.8,0,2-4.4,2.3-5.2s2.2-5.1,2.1-5.6a3.32,3.32,0,0,0-1.3,1.6"/><path class="cls-1" d="M127.42,106.11c.9-.5.8-3.4.9-4.4.5-3.5-.7-2.8-.3-4.8.3-1.7-.5-.7.5-2.8a1.48,1.48,0,0,0,.1-.7c0-1.3.2-5.9-.2-6.4-.6,1.3-.4,3.4-.4,4.9l-.5,4.9c0,.7-.4,2.9,0,3.6.2.4.4-.1.3,1-.2,1.6-.3,3.1-.4,4.7"/><path class="cls-1" d="M17.32,74.71a3.33,3.33,0,0,0-.1-1.4c-.4.9.1,4,.1,5.2a6.05,6.05,0,0,0,0,1.9c.3-.2,0-.1.3-.5a2.46,2.46,0,0,1-.1,1.2c.8-.1.6-1.4.6-2.4a24.37,24.37,0,0,0,.1-2.7c-.3.3-.2.5-.2,1a5,5,0,0,1-.2,1.2c-.3-2,.4-5.8.1-7.1-.9.6-.2,2.8-.6,3.6"/><path class="cls-1" d="M11,95.31a3.28,3.28,0,0,0,1.9.4l-.3.2c1,.8,2.5.4,3.2,1.1l.4,3.9c0,.5-.3.8.1,1.3.5-.6.6-3.7.4-4.5-.3-1.9-2-1.4-3.5-1.8l1-.1c-.4-.3-3-.8-3.2-.5"/><path class="cls-1" d="M69.62,54.21c.9-.4,2.4-4.8,2.9-5.9.6-1.3,1.9-4.9,3-5.7-1.1.2-3.2,4.2-3.6,5.2s-.6,2.1-1.1,3.2a9,9,0,0,0-1.2,3.2"/><path class="cls-1" d="M130.42,78.81c.5-1-.4-3.1.1-5.1.2-.9.1-1.9.3-2.7.1-.5.7-2.1.4-2.5-.4.3-.7,1.8-.8,2.3-.2,1-.1,1.7-.3,2.7s-.3,4.6.3,5.3"/><path class="cls-1" d="M129.12,95.51c.4-.5.1-.2.3-.7l-.1,5.7c.7-.7.1-3.5.7-4.2.2,1.1-.2,4,.2,4.8.6-.7.4-6.9.3-7.5a11.38,11.38,0,0,0-.5-2.3c-.6.7,0,1.2-.4,1.8-.3-.5.2-2.4-.1-3.3-.2.1,0-.3-.3.4a31.08,31.08,0,0,0-.1,5.3"/><path class="cls-1" d="M19.12,63.11c0-.8.3-1.4.3-2-.7.6-.9,3.2-.9,4.1s-.7,3.9-.3,4.6c.5-.8.5-2.7.7-3.6l.1.9c.5-.5.2-3.2.9-4.8.2-.4.6-.9.6-1.3-.8.1-1.1,1.7-1.4,2.1"/><path class="cls-1" d="M62.22,105c1,0,.8-1.9,1.5-4.1.5-1.6,1.5-3.1,1.6-4-.6.3-.9,1.1-1.2,1.7-.4.8-2,3-1.9,4s.4-.5.2,1c0,.5-.2.9-.2,1.4"/><path class="cls-1" d="M38.92,128.91c.4-1-.3-3.7-.5-4.7a24,24,0,0,1-.4-2.4c-.1-.8-.4-1.3-.6-2.2.3.1.6.6.9.9l3.8,1.9c-.2-.5-2.2-1.5-2.7-1.8-1.1-.6-1.9-1.7-2.6-2.1a6.65,6.65,0,0,0,.7,2.4,45.12,45.12,0,0,1,1,5.3l.3,2c-.1.2-.1.6.1.7"/><path class="cls-1" d="M97.72,124.91c.5.5,1.4.7,1.5,1.8l-.5-.5c.1.4,1,2.6,1.2,3.3s.7,3,1.6,2.8c.1-.7-1.1-3.5-1.4-4.3s-1.1-3.7-2.4-3.1"/><path class="cls-1" d="M42.42,105.11a8.07,8.07,0,0,0-2.4-1.7,13.5,13.5,0,0,1-2.6-1.5c-.9-.7-1.6-1-1.9-2.2l-.2-2.9c0-.6.1-.4.2-.8-.9,0-.5.7-.5,1.3a13.4,13.4,0,0,0,.1,2c.1,1.3.8,1.8,1.8,2.6s4.4,3.1,5.5,3.2"/><path class="cls-1" d="M103.92,130.81c-.1-1.2.1-5.3-.4-5.9-.2.1-.1.6-.2.4a.1.1,0,0,1-.1.1c-.2-.3.1-.1-.3-.3.1,2.7.8,1.5.3,3.8a8.1,8.1,0,0,0,.1,3.1v.1l.4.6a3.2,3.2,0,0,0,.2-1.9"/><path class="cls-1" d="M102.92,100a5.86,5.86,0,0,1-.1,2.3c-.2-.6-.1-1.4-.5-2-.1.8.3,2.2.3,3.1s-.1,2.2,0,3.2l.2-.5c.1.5,0,1.4.4,1.6-.2,0,.5-7.6-.3-7.7"/><path class="cls-1" d="M85.52,103.21c.8-.6.9-3.1,1.9-3.8a17.88,17.88,0,0,0-1.3,3.2,12.09,12.09,0,0,0-.5,1.8c-.1.8-.3,1.3.2,1.8a14.16,14.16,0,0,0,.4-2c.4-1.5,1-4,2.1-5.2-.7,0-.3.1-.8.2-.3.1-.8-.1-1.3,1.4a6.62,6.62,0,0,0-.7,2.6"/><path class="cls-1" d="M44,105.51c-.2-.3-.4-.3-.7-.6s-.1-.5-.7-.7c0-.3-.1.4.1-.1s.1.4,0-.1a22.64,22.64,0,0,0-4.2-2.6,6.55,6.55,0,0,1-1.8-1.5c-.5-1-.1-2.2-.6-2.9a4.34,4.34,0,0,0,.5,3.5c.9.8,2.3,1.2,4,2.5.6.4,0,0,.2.4.1-.1,2.2,2.1,3.2,2.1"/><path class="cls-1" d="M3.42,119.51c.3-.6-.2-.9.6-2.2a2.62,2.62,0,0,0,.1,2.7c.2-.3,0-.9,0-1.3a3.53,3.53,0,0,1,.3-1.4c.1-.6-.2-.3.3-1a40.56,40.56,0,0,1,3.6-4.6c-.5,0-6.1,6-4.9,7.8"/><path class="cls-1" d="M89.42,54.81a9.41,9.41,0,0,0,1.2-2.2,2.7,2.7,0,0,1,.7-.8l1.1-2.3c.2-.6,0-.6.2-1.2a11.28,11.28,0,0,0,.8-2.4,1.6,1.6,0,0,0-.7.9l-1.4,3.6c-.3,1.2-1.9,3.3-1.9,4.4"/><path class="cls-1" d="M33.72,74.81c.1,1.4,0,5,.8,5.9.6-.9.1-2.5-.2-3.4s.1-3.1-.3-3.8c-.3.6-.1.9-.3,1.3"/><path class="cls-1" d="M17.62,103.61c1.1-.1,1-2.1.9-2.9s0-2.9-.6-3.4c-.3,2.9.6,3.7-.3,6.3"/><path class="cls-1" d="M86.72,129.81c.9,1.2,2.8,1.6,3.8,2.4-2.2-.1-4.2-2-5.1-2.1a11,11,0,0,0,2.5,1.7c3.4,1.2,2.1.5,2.9.3-.2-.4-1.6-.9-2-1.2a5.29,5.29,0,0,0-2.1-1.1"/><path class="cls-1" d="M98.52,82.31c-.4.2-.1-.1-.6.2a7.17,7.17,0,0,0,2.5.7c.6.1,2.6.4,3.1.1-.9-.6-2.9-.4-3.8-.6-.2-.1-.3-.2-.4-.2s-.1.1-.5-.1c-.1-.6.1-.6-.2-1.1-.3.3,0,.3-.1,1"/><path class="cls-1" d="M83.52,128.31c.4-.5,0-1.7.8-2.6.5-.5,1.3-1,1.8-1.5-.4-.2-.8.1-1.2.4a8.34,8.34,0,0,0-1.2.8c-.5.8-.8,2.2-.2,2.9"/><path class="cls-1" d="M87.12,81.51c-.1.2.2.2.1.4-.8,0-3.2,0-3.5.4a9.23,9.23,0,0,0,3.7.1c0-.1-.1-.1-.1-.4a22.82,22.82,0,0,0,4.5-.4,4.84,4.84,0,0,0-2.4-.3c-1.5.3-.9-.3-2.3.2"/><path class="cls-1" d="M78,79.81l.6-.4c.2.7-.2,0,0,.5,2.1-1.5,1.7-1.2,3.5-1.2.2-.4.1.1,0-.5l.5-.1a19.27,19.27,0,0,0-2.4.1c-.6,0-.3-.1-.6-.1-.5.1-1.4,1.2-1.6,1.7"/><path class="cls-1" d="M46.82,123.91c.8.5,2-1.1,2.5-1.6.7-.9,1.6-1.6,1.7-2.9-.4.3-.6,1.2-1.9,2.6a8.65,8.65,0,0,1-2.3,1.9"/><path class="cls-1" d="M94.62,148.91c.8.5,4.6,2.3,5.3,1.9a22.63,22.63,0,0,0-2.6-1.1,6.63,6.63,0,0,0-1.9-.9c-.5-.1-.4-.2-.8.1"/><path class="cls-1" d="M34.22,76.91c.4-.5.4-2.3.4-3a11.33,11.33,0,0,0-.1-3.2c-.1.1-.1.1-.1.2l-.2,2.9a8.08,8.08,0,0,0,0,3.1"/><path class="cls-1" d="M11.12,125.91c.7-.2,5-3.1,5.3-3.7a12,12,0,0,0-2.7,1.6c-.7.5-2.4,1.5-2.6,2.1"/><path class="cls-1" d="M34,138.91c1.2-1.1,3.4-3,3.9-4.5-.7.7-1.4,1.4-2.1,2.2-.5.5-1.8,1.5-1.8,2.3"/><path class="cls-1" d="M129.22,78.61c.4-.5,0-1.3,0-2.2.1-.5.2-.9.3-1.3-1,.4-1.1,2.9-.3,3.5"/><path class="cls-1" d="M77.42,133.91c1.1-.2,1.3-4.2,1.1-4.6a2.1,2.1,0,0,0-.4,1.1c-.1.4-.1.8-.2,1.2-.1.7-.5,1.8-.5,2.3"/><path class="cls-1" d="M1.22,93.71a21.77,21.77,0,0,1-.6-2.2l-.3-2.2c-.1-.2,0-.1-.2-.2-.3.5-.1,4.9,1.1,4.6"/><path class="cls-1" d="M35.72,136.31c.6,0,1.6-1.2,2-1.7a6.84,6.84,0,0,0,1.7-2.1,14.88,14.88,0,0,0-3.7,3.8"/><path class="cls-1" d="M102.42,125.71a5,5,0,0,0-.2,2.1,7.12,7.12,0,0,0,.4,2.1,8.56,8.56,0,0,0-.2-4.2"/><path class="cls-1" d="M7.12,127.41c-.1-.9-1.6-3.9-2.4-4.2a19.12,19.12,0,0,0,1.6,3.2c.3.6.4.9.8,1"/><path class="cls-1" d="M40.62,95.31c-.1.4-.1.3.1.6.6,0,0-.2.8-.4a5.65,5.65,0,0,1,1.3,0c.6-.1.4-.2.9-.4s.4,0,.9-.2c-.3-.2-.3-.1-.4-.1h-.5a16.68,16.68,0,0,0-3.1.5"/><path class="cls-1" d="M56.12,95.21l1.9,1.9c.3-.1,0-.5,1,.4a2.18,2.18,0,0,0,.8.5c.7.1.2,0,.4-.1a6,6,0,0,0-1.1-.6,35.85,35.85,0,0,1-2.7-2.5Z"/><path class="cls-1" d="M134.12,122.31c1.5-.8,2.9-5.4,2.7-7-1.2.8-3,5.6-2.7,7"/><path class="cls-1" d="M60.12,146.31c.7.5,2.4.5,3.8.6a8.56,8.56,0,0,0,4.2-.2c-.8-.4-7.6-.5-8-.4"/><path class="cls-1" d="M89.42,53.21c.5,0,.9-1.2,1.1-1.6a3.94,3.94,0,0,0,.6-2.1c-.7.4-.5,1-.9,1.7a7.56,7.56,0,0,0-.8,2"/><path class="cls-1" d="M81.62,102.31c.4-.3.5-1.3.5-1.8l.2-2.1c-.9.3-.9,3.3-.7,3.9"/><path class="cls-1" d="M95.42,59.31c.8,1.1,4.4.4,5.5.1-.4-.5-1.9-.2-2.7-.1a13.1,13.1,0,0,0-2.8,0"/><path class="cls-1" d="M15.62,102.41c-.1-.5.1-.5-.2-.9a5,5,0,0,0-.2,2.1c1-.8.9-1.3.7-3.2l-.3.9v1.1"/><path class="cls-1" d="M14.82,129.81c.4-.2.9-1.2,1.3-1.7s1.6-1.1,1.7-1.4a4.28,4.28,0,0,0-3,3.1"/><path class="cls-1" d="M56.22,80.21c.6.3.4.2,1.1-.2a3.64,3.64,0,0,0,2.2-2.9c-.5.6-.8,1.3-1.3,1.8-.7.6-1.6.6-2,1.3"/><path class="cls-1" d="M100.92,150.11a1.64,1.64,0,0,0,1.6-.7c.4-.5.7-1.1,1.1-1.7a2.21,2.21,0,0,0-1.3,1.2c-.4.9-.8.8-1.4,1.2"/><path class="cls-1" d="M86.42,130.21a18.76,18.76,0,0,0-2.4-1.8c-.1.5.3.7.7.9,0,.1,0,.1-.1.2-.1.4,0-.2,0,.2.4.3.2.2.7.3l-.4-.3c.7.1.9.6,1.5.5"/></g></g></g></svg>