<?xml version="1.0" encoding="utf-8"?>
<!-- Generator: Adobe Illustrator 23.0.1, SVG Export Plug-In . SVG Version: 6.00 Build 0)  -->
<svg version="1.1" id="圖層_1" xmlns="http://www.w3.org/2000/svg" xmlns:xlink="http://www.w3.org/1999/xlink" x="0px" y="0px"
	 viewBox="0 0 394 165.6" style="enable-background:new 0 0 394 165.6;" xml:space="preserve">
<style type="text/css">
	.st0{fill:#FFFFFF;}
</style>
<title>資產 1</title>
<g>
	<g id="圖層_1-2">
		<g id="圖層_1-2-2">
			<path class="st0" d="M99.5,132l0.8-0.4c-0.2-0.9-0.5-1.9-0.8-2.8V132z M99.5,123.6v-15.2h3.7c0.4-1.6,0.5-9.5-1-9.9
				c-0.9-0.2-1.8-0.3-2.7-0.4V82.8l22,1.5c1.4,0.1,3.1,0.3,4.5,0.4c2.2,0,2.1,0.3,2.1,2.6c0,6-0.8,12.6-0.6,18.5
				c0.8,0.5,4.2,0.1,5.4,0c1.8,0.1,3.5-0.1,5.2-0.7c-0.1,1.7-0.6,4.5-0.8,6.5c-0.2,1.9-0.7,3.8-1.5,5.5c-0.4,1.1-1.5,4.3-2.3,4.9
				c-0.5,0.4-5-0.2-5.8-0.4c-0.2,1,0.1,8,0.5,8.8c5.6,0,4.6,0.4,5.2-1.1c0.5,0.3-0.4,12.5-0.4,14.1c0,4.1-0.8,3-4.3,3.2
				c-3.1,0.2-2.6,1.2-3.7,3.7c-0.9,2-3.4,9.2-4.9,10c-2.9,1.6-7,3.2-10.2,4.7c-2.5,1.3-7.2-0.5-10.5-1.5v-12c1.3,0.2,2.7,0,3.8-0.7
				c1-1.5,1.9-3.2,2.5-5c-2.1,0.1-4.2,0.2-6.3,0.4v-13.3c1.4,0,2.8-0.2,4.1-0.5c1.1-0.5,0.6-4.7,0.6-5.9c0-3.7-0.2-3-3.6-3
				L99.5,123.6 M99.5,107.9c0.1-0.1,0.3-0.2,0.4-0.4c0.8-0.8,0.1-0.2-0.2-0.5c-0.8-1,1-4.6-0.3-5.8v0.6c0,0.1,0.1,0.3,0.1,0.4h-0.1
				L99.5,107.9z M99.5,76.8V60.1c4.5,0,8.7,0,10-0.1c4.2-0.3,7.8,0,11.9,0c2,0,4,0.2,6,0.2c2.7,0,2.8,0.5,5.4-0.5
				c-0.4,1.3-0.8,2.4-1.2,4c-0.3,1.4-0.7,2.7-1.1,4c-0.7,2.7-1.4,5.5-2.1,8.2c-0.4,1.7-0.4,2.8-2.5,2.5c-1.5-0.1-3-0.4-4.5-0.6
				c-3-0.4-6.1-0.6-9.2-1C108,76.4,103.7,76.4,99.5,76.8 M97.8,132.9l1.7-0.9v-3.3c-0.3-1-0.6-2-0.7-2.3c-0.9-2.4-2.6-1.6-4.1-2.5
				c0.5-0.3,3.1-0.3,4.8-0.3v-15.2h-0.3c0.1-0.2,0.2-0.3,0.3-0.4v-5.7c-2.1-0.5-3.9-0.2-6-1.2c-0.9-0.4-4.5-2.1-5.2-2.1
				c-0.6,0.5-1.6,4-1.8,4.9c-0.7,2.9,1.6,2.6,2.5,4.1l-4.6-0.1v15.8c0.3,0,0.7,0,1,0.1c-0.2,0.6-0.6,1.1-1,1.5v2.5l1.1,0.8
				c1,0.7,6.8,4.2,6.8,4.8l-7.9,0.5v12.8c1.4,0,2.9,0.1,4,0.2c1.9,0,3.9-0.1,5.8-0.3l5.3-0.3V133C99,133,98.4,133,97.8,132.9
				 M99.5,60.2v16.6c-2.3,0.1-4.6,0.2-6.9,0.2c-2.8,0-5.5,0.2-8.2,0.3V44.4h0.1c2.9,0.5,6.4,2.1,9.2,0.9c0,0.7-0.8,0.7-1.3,1.4
				l-6.3,12.4C87,59.8,93.5,60.1,99.5,60.2 M99.5,82.8V98c-2.6-0.3-6.2-0.5-7.6-0.6c-0.9-0.1-4.8-0.7-7.5-0.8V81.8L99.5,82.8z
				 M99.5,101.3v0.6c-0.2-0.6-0.8-0.5-1.3-1C98.7,100.8,99.2,101,99.5,101.3 M99.5,151.5v12.1c-0.5-0.1-0.9-0.3-1.3-0.4
				c-4.3-1-4.5-4.5-6.9-8c-1.5-2.2-0.4-3.2,1-5s3-0.2,4.9,0.6C97.9,151.2,98.7,151.5,99.5,151.5 M84.4,44.4v32.9h-1.6
				c-1.4,0-3.3-0.3-4.3,0.9c-0.4,0.4-2,2.6-1.8,3l7.6,0.5v14.9c-1.3-0.1-2.4,0-2.5,0.4s-0.5,10.2-0.4,10.8l2.8,0.1v15.8
				c-1.2,0-3.2,0.1-3.7,0c-2-0.2-2.2,0.5-2.5,2.3c-0.4,2.6-0.6,5.9-1.6,8.3l7.9-0.5v12.8h-1.6c-1.9,0-22.5-1.2-22.8-1.3
				c-0.6-0.7-0.4-11.1-0.1-12.5c0.4-1.8,2.6-10.1,2.1-11.2c-0.6-0.8-3.8-1-4.8-1s-1.8,0.2-2.7,0.2c-2.8,0.2-1.7,2-2.5-1.4
				c-0.1-1.7,0-1.8-0.1-2.4c-0.2,0.2-0.3,0.4-0.4,0.6v-11.8c2.4-0.2,4.9-0.2,7.3,0c4.1,0.2,3.7,0,5-3.5c1.5-3.9,3.5-8.5,4.7-12.3
				c-0.6,0-6.2,5-7.2,5.8c-1.6,1.2-2.6-0.3-3.9-1.5c-1.1-1.1-2.3-2.1-3.4-3.2c-2-2.1-1.4-1.8-2.1,1.1c-0.1,0.4-0.2,0.8-0.4,1.1V82.1
				c0.6,0,1.2,0,1.8-0.2c0,0.5-0.7,0.8,0,1.4c0.2,0.2,2.7-1.8,3.2-2.1c3.3-2.6,3.6-1.9,5.2-6.1S73.3,44.9,75,43.3
				C76.2,42.3,82.6,44.1,84.4,44.4 M84.4,125.2c-0.7,0.8-1.4,1.6-1.2,2.4c0.8,0-0.1-0.8,1.1,0.1h0.1V125.2z M51.5,104.9
				c0.8-0.2,2,0.1,2.7-0.4c-0.7-0.2-1.4-0.2-2.1-0.1c-0.2,0-0.4,0-0.6,0.1L51.5,104.9z M51.5,81.9v11.2c-0.7,1.4-1.9,1.3-3.8,1.3
				s-12.1,0.1-12.9,0.2c-0.5,1-0.2,5.3,0.5,6.2c1.3,1.2,2.8,2.2,4.3,3.1c3.6,2.2,6.7,4.4,11,4.8l-0.1-1.1c0-0.4-1.1-3.5,0.1-2.7
				c0.4,0.2-0.1-0.2,0.9-0.4v0.4c-0.4,0.1-0.7,0.6-0.6,1c0.2-0.1,0.4-0.2,0.6-0.2v11.8l-0.9,1.5c-0.5,0.7-1.1,1.1-1.6,1.8
				c-1.4,1.7-1.8,3-3.9,1.7c-1.5-0.9-2.9-1.7-4.3-2.6c-0.7-0.4-3.8-2.4-4.1-2.6c-0.7,1.6,2.9,11.3,2.3,13.6c-0.3,1-2.8,3.6-3.6,4.5
				c-2.1,2.1-2,2.9-5.3,2.6c-2.5-0.2-5.2-0.2-7.7-0.5c-2.9-0.2-3.2-1.2-4.8-3.3c-1.5-1.9-3.3-2.6-1.8-5.1c1.4-2.3,3.8-1.4,6.3-1.8
				c-0.6-0.9-0.9-2-0.9-3.1c-0.4-3.9,0.2-1.3,0.2-3.4c1.2,1.1,0,6.3,1.8,6.5l-1.4-9.2c0,0-0.9,2.4-1,2.5c-0.2,0.9,0.5,2.3,0.1,2.9
				c-0.5-1-0.7-2.1-0.5-3.2c0.4-0.9,0.7-1.8,1-2.7c-1.7,0.7-8.8,6.5-11.6,8.4c-1.2,0.8-0.6,1-1.2,1.6c-0.3-0.8-0.6-1.6-1-2.4
				c-0.5-0.6-0.9-1.3-1.3-2l-0.5,0.2l1.8,3.7c-1.1-1.5-2.1-3.2-2.9-4.9c-0.1-0.6,0.4,0,0-1c-0.2-0.4-0.4-0.9-0.6-1.4
				c-0.3-0.9-0.1-2,0.7-2.6c4.6-5.5,6.4-6.7,12-10.9c2.6-1.9,2.4-2,2.3-5.1c-0.1-1.9,0.5-5.3-1.9-5.8c-2.1-0.4-4.5-0.7-6.7-1
				c-9.5-1.5-8.6-0.1-9.2-6.2C1.2,86.8,1.9,83,2.7,82s5.4-0.8,6.9-0.8c2.3,0,5.3,0,7.5-0.1s1.1-4.4,1.2-6c0.2-2.5,0.7-11.9,1.8-13.4
				l14,1.1c1.1,1.8-1,16.8-0.4,18.5C34.1,81.7,46.6,82.1,51.5,81.9"/>
			<path class="st0" d="M219.3,33.9l-0.3-1.8c-0.4,0.3-0.4,4.4-0.2,4.9c0.4-0.3,0.2-1.6,0.5-2.1c0.5,0.9-0.4,3.1,0.2,5
				c0.1,0.3,0,1.4,0.7,1.4c0.2-0.4-0.6-2.1-0.6-2.1c0-0.4,0.3-0.3,0.4-0.7c0.1-1.1,0.2-2.1,0.1-3.2l-0.3,0.3
				c-0.2-0.4,0.7-3.7-0.4-4.2C219,32,219.4,33.3,219.3,33.9"/>
			<path class="st0" d="M239.3,41.5c0.5-0.6-0.1-1.9,0.3-3.5c0.1-0.4,0.1-0.8,0-1.2c-0.1-0.8-0.2-1.5-0.3-2.3c0.1-0.8,0-1.6-0.3-2.4
				c-0.1,0.4-0.2,0.8-0.1,1.2v0.6c-0.1,0.4-0.1,0.2-0.2,0.5c-0.1,1.6,0,3.2,0.3,4.8C239,39.8,239,41.2,239.3,41.5"/>
			<path class="st0" d="M240.4,40.5c0-1.2-0.1-2.4-0.2-3.6c-0.3,0.6-0.5,1.2-0.4,1.9C239.7,39.5,239.6,40.2,240.4,40.5"/>
			<path class="st0" d="M197.5,41.4c-0.3,0.2-0.2-0.1-0.2,0.4l7.4,0.3c-1-0.4,0.5,0-2-0.4l3.7-0.1C203.5,41.1,200.5,41.1,197.5,41.4
				"/>
			<path class="st0" d="M215.8,99.6l2.9,0.1c2,0,2.4,1.5,2.5,3.2c0.1,5.8,1.6,7.4-3,7.4c-0.8,0-1.6,0.1-2.4,0.2v8.7
				c5.1,0,10.2,0,15-0.1c4.6-0.2,6.2,1.7,6.8-3.3s1.4-14.1,1-19c-0.1-1.8,0.3-8.2-0.9-9.3c-6.2,0.5-12.6-0.2-18.8-0.8
				c-0.7-0.1-1.8-0.2-3.2-0.3L215.8,99.6z M213.3,99.6c0.8-0.1,1.7-0.1,2.5-0.1V86.2c-4.7-0.5-12.1-1.6-13.9-2.5l-0.5-1l-3.1,19
				c-0.4,0-0.4-0.1-1.1-0.3c-3.6-0.6-9.6-3.9-11.4-6.6c-1.1-2-1.9-4.1-2.4-6.3c-0.1-1.3-0.1-2.7,0.1-4c0.2-0.5,3.1-0.1,3.7-0.1
				c1.5,0,6.1-0.3,6.6-2c0.6-2.5,0.7-5.1,0.3-7.7c-0.7-4.7-0.2-3.8-4.5-3.8c-1.3,0-7.2,0.7-7.7-0.3c-0.2-1.4-0.4-2.7-0.4-4.1
				c-0.1-2-0.2-2-2-2c-2.1,0.1-14.8,0.2-15.5,1.5c-1.1,2,0.8,6.4-1.9,6.6c-1.5,0.2-7-0.1-7.6,1c-1.1,2.1-0.9,4.8-1.3,7.2
				c-1.1,6.8,9.7,2,12.4,3.2c0.8,0.6,0.7,3.4,0.8,4.5c0.2,2,0.2,2.8-0.9,4.3c-1.3,1.8-3.4,3.8-4.9,5.5s-10.8,7.7-12.7,8.1
				c0,0.1,3.3,4.9,3.9,5.8c2.3,4.1,3.7,2.2,5.5,1.2c2.1-1,4.1-2.2,6-3.5c1.6-1.4,3.3-2.8,5.1-4c-0.2,1-0.3,2-0.3,3
				c0.1,1.1,0.1,2.2,0.1,3.3c-0.1,3.2-0.5,2.9-3.3,3.5c-4.2,1-5.8-0.3-3.5,8c1.8,6.4,2.2,4.2,8.9,4.2h6.8c3.4,0,3,0.5,4.1-2.5
				l-1,3.2c2,0.4,2.2-8.6,2.5-10.1c0.3-1.9,0.6-3.8,0.7-5.7c0.1-0.8,0.5-5.7,0.6-5.9c0,0,6.1,5.4,7,6.1s3.1,2.1,3.6,3.1
				c0.4,0.4,0.9-0.4,1-0.5c0.2-1,1.4-4.1,2.1-4.4c0.1,1.6,0.1,3.3,0.2,5c0.2,2.1,0.1,2.7,2.5,2.7h15.3v-8.7
				c-2.9,0.3-5.9,0.5-5.7-2.9c0.1-1.7,0.2-3.5,0.4-5.2C210.8,98.8,210.8,100,213.3,99.6"/>
			<path class="st0" d="M196.3,41.9l1.1,7.4l-1-3.6l-0.3-1.7l-0.2-1.6l-0.6,1.1v2.2c0.5,2.9,0.4,2.6,0.9,5.2c0.4,2.2,0.6,4.3,3,5.1
				c-0.2-0.4-1.1-0.7-1.6-1.7c-0.3-0.6-0.5-1.3-0.6-2c-0.4-1.5-0.3-2.7-0.7-4.5l1,3l0.4-0.5c-0.1,2,0.9,4.7,3.1,4.9s5.5,0.1,8,0.1
				c2.7,0,5.2,0.1,7.9,0.1c0.9,0,3-0.4,3.4,0.6c0.3,1.2,0.4,2.4,0.2,3.6c-1.9,1.1-23.5-0.4-24.3,0.6c-1.4,1.9,0.3,8.7,0.7,10.9
				c0.6,3,0.6,2.7,3.6,2.7c2.1,0,3.9-0.1,6.1,0c8.1,0.4,17.1-0.7,25-0.1c3.8,0.3,8.3,0,12.2,0c2.1,0,4.1,0.1,6.2,0.1s4.1-0.2,6-0.1
				l0.7,0.9c0.4-0.5-0.5-6.3-0.6-7.3c-1.5-11.1-3-8.9-7.4-8.4c-2.1,0.3-5.6,0.9-7.6,0.7l-0.5-5.9c1,0.6,5.4,0.4,7.3,0.4
				c1.5,0,0.9,0.2,1.9,0.6l-0.3-1.6l0.8,1.6c0.1-0.2-1-6.2-1.1-7.1c-1-5.2,0.4-4.2-7.8-5c-1.5-0.1-2.3,0-2.4-1.8s0.7-6.7,0-7.8
				c-0.9-0.2-7.2,0.2-8.9,0.1c-1.2,0-8.2-0.2-8.8-0.5c-0.3-0.2-0.4-0.9-0.5-1.9h-0.1c-0.2,0.7-0.4,1.3-0.6,2
				c-0.1,1.7,0.2,3.8,0.2,5.6c0,5,2.6,3.5-13.2,3.5h-5.5C200.2,41.8,197,42.5,196.3,41.9"/>
			<path class="st0" d="M276.3,81c-0.1-1.2,0.5-0.8,0.7-2.1c0.3-2.8,0.4-5.5,0.4-8.3c0.1-1.9,0.8-3.8,0.5-5.3
				c-0.1-0.4-0.2-0.8-0.4-1.1H277c0.3,0.5,0.5,1,0.5,1.6l-0.7-1.2c0.2,1.3,0.3,2.7,0.2,4c-0.1,1.4-0.2,2.8-0.2,4.2
				c-0.1,1.2,0,3.1-0.2,4.3c-0.3,1.1-0.7,2.2-1.2,3.2c0.4-1.3,1.3-13.6,0.7-14.4c-0.5-0.1-3.5-0.2-4.4-0.2l-4.4-0.4l-7-0.4
				c-0.9-0.1-0.7-0.8-1.3-1l1.4,18.2c-2.5,0-17.3-2.5-18.2-1.3c-1.5,1.9-1.1,6.2-0.6,8.4c0.5,1.9,1.4,6.4,2.3,7.8l17-1.9
				c0.7,0.8,1.9,12.5,2.2,14.5c0.4,2.5,0.7,4.9,1,7.4c0.5,3.8,1.3,3.8-2.4,5.2l-6,2.4c-3.1,1.2-4.1,0.9-3,4.4c0.7,2.2,0.8,4.7,1.4,7
				s4,1.2,6.4,1.1c6.3-0.1,8.5,0.6,13.9-2.9c6.4-4.1,6.5-1.7,6.3-10.1c-0.2-8-1-15.4-1.8-23.3c-0.1-1-0.8-7-0.8-7.4
				c0.7,0.6,2,1.7,3.2,1l-2.1-0.6l7.9-0.9c0.6-0.9-1.2-11.8-2-12.7L276.3,81z"/>
			<path class="st0" d="M240.6,123.6c-2,0.3-1,0.5-3.4,0l-3.6-0.6c-1.2-0.2-6.5-1.4-7.2-0.8c-1.2,1-3.9,10.8-4.3,12.8
				c-0.7,3.5-0.8,3.8-4.4,4.2c-4.2,0.5-3.3-0.2-3.9-4.1c-0.4-2.7-1.5-12.5-2.7-14.3c-1.3-0.3-7.2,0.8-8.7,1.4
				c-5.5,2.1-6.4,1-5.8,3.9c1.1,5.2,3.2,10.8,4.5,15.9c-2.1-0.5-4.2-0.7-6.4-0.8c-3.5-0.3-3.5-0.8-3.9,2.7c-0.3,2.2-0.3,4.3,0,6.5
				c0.4,3.3,0.3,3.3,3.7,3.1c9-0.6,18-0.6,27-1.2c4.4-0.3,9.1-0.4,13.5-0.6c2.1-0.1,11.9,0.1,12.8-1.3c1.5-2.2,0.6-9.5-0.6-11.7
				c-0.9-1.6-9.4,0.3-12.4,0c1.2-3.3,0.3-5.3,2.8-9l-0.5,1.7l2-3.8l-0.9,0.7L240.6,123.6z"/>
			<path class="st0" d="M242.8,108.2c0.7,2.4,1.5,4.7,2.6,6.9c0.7,1.1,4.4,2.9,5.7,3.6c3.6,2.1,2.6,1.8,6-0.4
				c2.2-1.5,4.3-2.4,2.7-5.2c-1.2-2.2-5.7-10.4-7.2-11.6C247.7,97.8,242.3,105,242.8,108.2"/>
			<path class="st0" d="M239.2,104.4c-0.1-0.1-0.4-3.8-0.6-4.4c-0.4-1.4,0.2-3.3,0-4.7c-0.5-2.5-0.5-1.5-0.1-4.4
				c0.1-0.9,1.6-3.4,1-3.9c-0.4,0.1-0.3,0.2-0.5,0.5l-0.3-0.4c-0.3,0.9,0,1.8-0.6,2.7c-0.1-0.5,0-2.2-0.3-2.4
				c-0.5,0.7,0.1,6.7,0.4,7.8c0.2,1.4,0.2,2.7,0.1,4.1c0,1.4,0.4,2.5,0.3,4c0,0.9,0.3,1.2,0.3,2s0.2,1.2,0.2,1.9
				c0,0.3-0.1,0.7-0.1,1c0,0.5,0.3,0.4,0.4,0.8s-0.1,1.5,0,2.1c0.2,1.4,0.1,2.8-0.2,4.1c-0.1,0.7-0.1,1.4,0,2.1
				c-0.2,0.7-0.2,1.3-0.1,2c0.4-0.3,0.4-1.2,0.4-1.7s0-0.4,0.3-0.8c0.3-1.5,0.4-3.1,0.4-4.6c-0.1-0.6-0.2-1.2-0.2-1.8
				c0-0.5,0.3-0.5,0.2-0.9c-0.1-0.6-0.3,0-0.4-0.5c-0.1-0.7,0.9-2.8,0.6-3.3l-0.8,2.5c-0.1-1.2,0.8-5.9,0.2-6.6
				C239.2,101.9,239.8,104,239.2,104.4"/>
			<path class="st0" d="M147.7,107.7c0.1,0.5,0.3,0.9,0.6,1.3c0.3-0.5,0,0,0-0.5c0.6,0.9,1.2,1.8,1.8,2.6c1,1.4,0.7,1.7,1.4,3
				c0.3,0.5,0.9,1.2,1.3,1.9h0.5c-0.2-0.4-0.5-0.9-0.9-1.2c-0.8-1.1-0.7-1.7-1.3-2.7s-1.1-1.6-1.7-2.5c-1.3-2-0.9-1-1.3-1.3
				S148.2,107.8,147.7,107.7"/>
			<path class="st0" d="M193.8,71.2c1.4,4.7,0.8,11.4,0.9,11.7c0.9-0.1,0.3-5.9,0.2-6.8c-0.1-1.6-0.2-3.3-0.5-4.9L193.8,71.2z"/>
			<path class="st0" d="M247.4,136.8l0.4,1c-0.5-0.2-0.2-0.7-0.9-0.7c0.4,0.8,0.8,1.6,1.1,2.4c-0.4-0.5-0.6-2.2-1.7-2.2
				c0.5,0.5,0.9,1.2,1.2,1.9c0.4,1.7,0.8,3.5,1,5.3c-0.1,1-0.1,2,0,3c0.7,0,0.4-5.6,0.4-5.7c-0.1-0.6-0.3-1.2-0.5-1.8l0.3,0.7
				c0.5,1.3,0.9,2.6,1.1,4c0.2,1.7,0,3.5-0.4,5.2c0.5,0.1-0.5,0,0.2,0c0.4,0-0.2-0.2,0.2,0l0.1,0.8c0.4-0.4,0.6-3,0.5-3.7
				c-0.3-4.7-1-4.5-1.2-5.5S248.6,137.2,247.4,136.8"/>
			<path class="st0" d="M197.7,96.3c0.2-0.5,0.6-2,1.1-2.3c0.2,0.8-1.2,3.5-0.6,4c0.5-0.3,1.4-6.4,1.5-7.3c0.2-1.2,0.6-2.3,1-3.4
				c0.3-1.3,0.4-2.7,0.2-4c-0.4,0.3-0.3,0.9-0.3,1.3c0,0.6-0.1,1-0.1,1.6c0,1-0.3,1.9-0.7,2.8c-0.2,0.5-0.5,0.7-0.6,1.3
				s-0.1,1-0.2,1.5c-0.2,0.9-0.4,1.9-0.7,2.8c-0.2-0.5,0.7-2,0.5-2.7c-0.4,0.7-0.6,1.4-0.8,2.2C197.7,94.8,197.6,95.6,197.7,96.3"/>
			<path class="st0" d="M219.3,33.9l-0.3-1.8c-0.4,0.3-0.4,4.4-0.2,4.9c0.4-0.3,0.2-1.6,0.5-2.1c0.5,0.9-0.4,3.1,0.2,5
				c0.1,0.3,0,1.4,0.7,1.4c0.2-0.4-0.6-2.1-0.6-2.1c0-0.4,0.3-0.3,0.4-0.7c0.1-1.1,0.2-2.1,0.1-3.2l-0.3,0.3
				c-0.2-0.4,0.7-3.7-0.4-4.2C219,32,219.4,33.3,219.3,33.9"/>
			<path class="st0" d="M211.9,120.9c0.4,1.3,0.5,3,0.8,4.4c0.4,1.4,0.7,2.8,0.9,4.2c0.1,1.6,0.3,3.2,0.5,4.7
				c0.1,0.8,0.2,3.9,1.1,4.1l-1.1-8.5c0-0.3-0.1-0.6-0.2-0.9c-0.2-0.6-0.1-1.8-0.3-1.8C212.9,126.5,212.9,121.1,211.9,120.9"/>
			<path class="st0" d="M281.7,122.7c0.1,1,0,2,0.1,3.1c0.3,3.4,0.9,5.1-2.1,7c-0.5,0.3-3.6,2-3.7,2.4c1.6-0.7,3.1-1.5,4.5-2.5
				c2.7-1.8,1.4-3.4,1.8-5l0.3,0.8c0.4-0.9-0.2-1.2-0.2-2.1c-0.1-1.9,0.4-6.2,0-6.8l-0.2,1.1c-0.5-1,0-2.8-0.4-3.4
				c-0.9,1.5-0.1,3.6-0.1,3.9C281.6,121.7,281.6,122.2,281.7,122.7"/>
			<path class="st0" d="M221.2,134.6c0.2-0.2,0.1,0,0.2-0.4c1.2-3.7,2.1-7,3.5-10.9c0.3-0.9,0.5-1.3,0.2-1.6
				c-0.4,0.9-0.8,1.9-1.2,2.8s-0.4,1.5-0.8,2.4c-0.3,1.2-0.8,2.5-1.4,3.6C221.5,131.9,221.3,133.2,221.2,134.6"/>
			<path class="st0" d="M281.2,118.5c0.9-1.4-0.5-6.1-0.6-8.7c-0.1-1.9,0.4-1.8,0.3-2.6c-0.2-1-0.2-2.1-0.2-3.1
				c0.4-2.4-0.2-3.2,0.1-4.6c0.1-0.3,0-0.1,0.1-0.4c0.2-0.5,0.2,0.2,0.4-0.5s0.1-2.5-0.3-2.8c-0.3,0.4-0.2,1.2-0.2,1.7
				c-0.1,0.5-0.1,1.1-0.1,1.6c0.1,1.9-0.6-0.1-0.3,2.8c0.2,1.1,0.2,2.2-0.1,3.3c0.1,1.1,0.1,2.3,0,3.4h-0.2c0.1,1.7,0.3,3.3,0.6,5
				C281.1,115.7,280.9,118,281.2,118.5"/>
			<path class="st0" d="M192,153.3c0-0.1-0.8-2.1-0.9-2.5c-0.3-0.9-0.5-1.9-0.6-2.9c0-0.5-0.1-1.1-0.2-1.6c-0.2-0.7-0.4-0.1-0.4-1.4
				c0.1-1,0.1-2.1,0-3.1c-1.4,1.2-0.7,12,1.2,12.6c-0.2-0.6-0.4-1.2-0.7-1.7c-0.5-2-0.8-4-0.9-6c0.1-0.1,0.3-0.1,0.5-0.1
				C190.1,147.7,190.1,153.6,192,153.3"/>
			<path class="st0" d="M272.8,136.1c-0.6,0-1.7,0.8-3.8,1.1c-0.9,0.1-3.4,0.4-4,1c0.2,0.3,0.1,0.2,0.5,0.3c0.6-0.4,0.7-0.1,1.2-0.4
				c0.4-0.6,2.6-0.5,3.4-0.7C271.1,137.2,272,136.7,272.8,136.1"/>
			<path class="st0" d="M197.4,131.6c-0.5-1.3-0.8-2.6-1.1-3.9c-0.7-2.8,0.5-3.6,0.3-4.2c-0.9,0-1,2.2-0.9,2.8
				c0.2,1.1,0.4,2.1,0.7,3.2c0.5,2,1,4.1,1.5,6.2c0.4,0.2-0.1-0.1,0.3,0c0.4,1.2,0.9,5.5,1.7,5.7c0.1-0.5-1.5-5.7-1.3-6.2
				c0.3,0.5,0.4,1.8,0.8,2.1c-0.3-1.7-0.7-3.3-1.2-4.9c-0.3,0.6,0.2,1.4,0.1,2c-0.4-0.4-0.7-3.3-1.1-4L197.4,131.6z"/>
			<path class="st0" d="M221.2,134.8c-0.4,1-0.7,2.1-0.7,3.2C221,137.6,221.3,135.3,221.2,134.8"/>
			<path class="st0" d="M153.6,74.6c-0.2,0.1-0.1,0-0.3,0.2c0,0-0.2,0.2-0.2,0.3c-0.5,0.8-1.5,4.9-1.2,5.2c0.5-0.8,0.5-2.5,0.9-3.4
				c0.2,2-1.4,4.5-0.6,5.2c0.5-1.6,0.8-3.2,1-4.9c0.2-1.9,2-2.6,1.2-4.6c-0.7,0.6,0.1,1.8-0.7,2.5L153.6,74.6z"/>
			<path class="st0" d="M257,74.1c1.2-1.4-0.7-6.9-0.8-8.9c0-1.5-0.3-2.9-0.9-4.3c-0.4-0.9-1.3-2.8-2.4-3.1c0.8,0.9,1.5,2,2,3.2
				c0.9,1.9,0.8,4.1,1.1,6.3c0.3,1.7,0.8,1.5,0.8,4.3C256.9,72.4,256.6,73.6,257,74.1"/>
			<path class="st0" d="M161.2,116c-1.2-0.1-2,1.5-1.8,2.7c0.2,1.4,0.5,2.8,0.9,4.2c0.4,1,1.2,2.6,1.1,3.6c0.2,1.2,0.6,2.3,1.4,3.2
				c0.1-0.8-2.5-7.1-2.6-9.3c0.3,0.7,0.6,2.2,1.2,2.8c0.3-1.1-2.6-5-0.9-6.2c0.6-0.4,1.2-0.7,1.9-1l-1.4,0.4L161.2,116z"/>
			<path class="st0" d="M249.3,49.1l0.1-0.5c0.4,1.6,0.7,3.2,0.9,4.9c0.1,0.3,0.2,0.3,0.3,0.6s-0.1,0.4,0.2,0.7
				c0.4-0.3,0-2.3-0.1-2.9l-0.2,0.1c-0.3-1.5-1.4-9.5-2.6-10c-0.3,0.4,0.3,1.1,0.4,1.6C249,45.8,248.8,48.1,249.3,49.1"/>
			<path class="st0" d="M183.1,120.2c0.6-0.9,0.5-4,0.7-5.3c0.2-1,0.7-4.8,0.2-5.4c-0.3,0.5-0.1,2.6-0.5,3.5c0-0.4,0.1-0.5-0.1-0.9
				c-0.4,2.1-0.5,4.3-0.4,6.5l0.3-0.4C183.2,118.8,182.8,119.7,183.1,120.2"/>
			<path class="st0" d="M247,117.3c-2.8-1.7-2.3-2.2-3.5-5l0.4-0.1c-0.3-1.7-0.7-3.4-1.4-5c0,0.9,0.2,1.8,0.4,2.6
				c0.4,1.6,0.5,1,0.4,2.3c-0.1,1,1.2,3.2,1.7,4s6.1,4,7.3,4.3C251.5,119.7,248.1,118,247,117.3"/>
			<path class="st0" d="M272.7,136.1c1,0,5.6-3,6.7-3.7c1.1-0.8,1.8-2,1.9-3.3c0-0.8,0-1.6-0.1-2.4l-0.2-2.3c-0.2,0.9-0.1,3.8-0.2,5
				c-0.1,1.6-0.8,2.1-2.1,2.9c-1,0.6-2.2,1.2-3.1,1.8c-1.7,1.1-0.6,0.6-1.4,1.1C273.7,135.4,273.1,135.7,272.7,136.1"/>
			<path class="st0" d="M254.5,138.5c0.2-0.6-0.8-1.8-1.1-2.8c-0.4-1.1-0.7-2.2-0.8-3.3l-0.3-2.6c0.1-0.4,0.2-0.2,0.1-0.8
				c-0.4-3.3,0-2.4,0-3.6c-1.4,0.1-0.6,4.2-0.4,5.4c0.1,0.6-0.2,0.6,0,1.6c0.1,0.6,0.2,1.3,0.4,1.9c0.1,0.5,0.3,1,0.6,1.5
				C253.2,136.3,253.9,138.2,254.5,138.5"/>
			<path class="st0" d="M239.3,41.5c0.5-0.6-0.1-1.9,0.3-3.5c0.1-0.4,0.1-0.8,0-1.2c-0.1-0.8-0.2-1.5-0.3-2.3c0.1-0.8,0-1.6-0.3-2.4
				c-0.1,0.4-0.2,0.8-0.1,1.2v0.6c-0.1,0.4-0.1,0.2-0.2,0.5c-0.1,1.6,0,3.2,0.3,4.8C239,39.8,239,41.2,239.3,41.5"/>
			<path class="st0" d="M289.1,94.7c1.1-1,0.4-4,0.2-5.2c-0.1-0.6,0-1.4-0.3-1.8c-0.3,0.4,0,1.5-0.1,2.2c-0.1-0.9-0.8-6.2-1-6.5
				c-0.2,0.6,0.6,5.7,0.8,7.1c0.1,1,0.4,0.5,0.5,1.3C289.3,93.2,288.9,94.3,289.1,94.7"/>
			<path class="st0" d="M236.5,136.4c1-0.5,0.1-2.1,0.6-3.2c0.5-0.9,0.9-1.8,1.2-2.8c0.3-1,2.4-4.8,2.3-5.4
				c-0.8,0.6-2.3,4.4-2.7,5.6s-0.4,0.7-0.7,1.1c-0.3,0.5-0.5,1-0.6,1.5c-0.1,0.8,0.3,0.7,0.1,1.6
				C236.5,135.3,236.4,135.9,236.5,136.4"/>
			<path class="st0" d="M186.3,110.3c0.7,1.2,1.3,1.2,2.2,2.1c1.9,1.8,3.1,1.7,5.1,3.2c1.3,1,0.7,2.8,1.2,3.3c0.3-1.2,0-2.5-0.8-3.4
				c-0.8-0.6-1.7-1.2-2.7-1.6C190,113.2,187.4,110.6,186.3,110.3"/>
			<path class="st0" d="M258.2,122.6c1.1-0.2,2.1-0.5,3.1-1c1-0.4,2.2-0.7,2.3-1.8s-0.5-6.6-1-7.3c-0.3,1.5,0.8,6.7,0.7,7.4
				C263,121.2,259.5,121.4,258.2,122.6"/>
			<path class="st0" d="M187,95c-0.8-1.2-1.4-2.5-1.9-3.9c-1.2-3.5-0.1-4-0.8-5c-0.4,0.8-0.5,1.7-0.4,2.6c0.1,0.8,0.4,1.6,0.7,2.4
				C185.1,92.3,185.6,94.7,187,95"/>
			<path class="st0" d="M164.7,113.7c0.7,0,1.5-1.1,2.1-1.4c-0.2,0.5-0.8,0.9-1.2,1.4c-0.8,1.1-4.1,2.2-4.9,2.8c0,0.1,0,0.1-0.1,0.1
				l0,0c-0.1,0,0,0-0.1,0.1c1.1-0.2,2.2-0.6,3.2-1c0.6-0.2,2.4-0.8,2.5-1.5l-2,1.1c0.6-0.9,3-1.9,2.7-3.3
				C166,112.4,165.3,112.9,164.7,113.7"/>
			<path class="st0" d="M261.3,104.6c-0.8,1.6,0.7,7,1.4,7.2c0-0.4-0.5-2.2-0.6-3s0.3-2.8-0.5-3.1v1.4
				C261.7,106.3,261.6,105.4,261.3,104.6"/>
			<path class="st0" d="M184.8,92.9l0.9,2V95c-0.1,0.7,0.9,1.2,1.5,1.6l3,2c0.3,0.2,0.6,0.3,0.9,0.3c0.1,0,0.2,0,0.3-0.1
				c-0.7-0.3-1.4-0.7-2-1.2c-0.6-0.6,0.2-0.2-0.7-0.9c-0.9-0.6-1.7-1.3-2.5-2.1C185.4,93.8,185.3,93,184.8,92.9"/>
			<path class="st0" d="M164.9,92.9c0.3-0.8,0.8-0.6,0.7-3h0.2v-1.3c0-0.4,0.8-2.9-0.3-3.4c-0.4,0.7,0,2.2-0.2,2.6s-0.4-0.2-0.2,0.9
				c0.3,1.4,0.2,2.8-0.5,4.1L164.9,92.9z"/>
			<path class="st0" d="M238.1,119c0.8-1,0.4-1.3,0.6-2.6c0-0.4,0.1-0.7,0.1-1c0.1-0.8,0.5-3.7,0-4.1c-0.7,1.6,0.2,4.3-1.5,7.6
				c0.5-0.1,0.4-0.2,0.7-0.6C238,118.8,237.8,118.6,238.1,119"/>
			<path class="st0" d="M196,124.3c1.4-0.6,2.8-1.2,4.2-1.6c0.7-0.3,1.5-0.5,2.2-0.7c0.7-0.1,1.4-0.4,2-0.8
				c-0.8-0.1-3.5,0.9-4.4,1.2C198.9,122.6,196.3,123.2,196,124.3"/>
			<path class="st0" d="M182.8,70.4c0.1-1.1,0.1-2.1,0-3.2c0-0.7,0.1-2.4-0.9-2.5c0.2,0.6,0.3,0.5,0.3,1.2l0.2,3.9
				C182.6,70.4,182.7,70.3,182.8,70.4"/>
			<path class="st0" d="M242.1,106.3c0.1-0.2,0.2-0.4,0.4-0.5h0.1c0.7-0.6,1.2-1.3,1.5-2.1c0.2-0.5,0.1-0.7,0.4-1
				c0.4-0.6,0.9-1.2,1.4-1.7c0.8-0.8,1.4-1.1,1.6-1.5c-1.2,0.2-2.5,2-3.2,3c-0.4,0.7-0.8,1.3-1.3,1.8c-0.6,0.5-0.9,1.3-0.9,2.1"/>
			<path class="st0" d="M156.7,100.5c1.1-0.3,3.7-2.1,4-3.2s2.2-2.2,2.4-3.7c-0.5,0.5-1.2,1.4-1.7,2c-0.3,0.4-0.5,0.7-0.8,1.1
				c-0.7,0.8-0.3,0.6-0.3,1c-0.5,0.5-1.1,1-1.7,1.4C157.9,99.4,157.2,99.9,156.7,100.5"/>
			<path class="st0" d="M199.7,55.9c0.8,1,1.8,0.8,2.9,0.6s3.4-0.5,4.4-0.7c-1.8-0.6-4.6,0.2-5.7,0.4
				C200.8,56.2,200.2,56.1,199.7,55.9"/>
			<path class="st0" d="M257.1,119.4c0.6-0.4,1.3-0.9,1.8-1.4c-0.9,0.1-1.8,1.2-2.5,1.6c-0.4,0.2-0.8,0.5-1.2,0.8
				c-0.3,0.2-0.9,0.4-1.3,0.6c0.3,0.2,0.4,0,0.7,0c0.5,0-0.2,0,0.4,0.2c0.9-0.4,1.6-0.9,2.3-1.5
				C257.3,119.4,257.3,119.8,257.1,119.4L257.1,119.4L257.1,119.4"/>
			<path class="st0" d="M147.2,106.3c0.5-0.9,1.3-1.6,2.2-2.1c0.5-0.2,0.9-0.5,1.3-0.9l0.9-0.7l0.2-0.2
				C150.8,102.6,146.5,104.9,147.2,106.3"/>
			<path class="st0" d="M261.5,101.8c-0.1-1.4-0.2-2.9-0.5-4.3c0-0.7,0.1-0.9-0.4-1.3c-0.2,0.5-0.2,1,0,1.5
				C260.6,98.6,260.8,101.5,261.5,101.8"/>
			<path class="st0" d="M166.9,113.9c0.8-0.2,0.8-1.9,0.8-2.7c0-1.3,0.4-2.7,0.2-3.2c-0.8,0.6-0.7,3.4-0.8,4.5
				C167.1,113,166.9,113.4,166.9,113.9"/>
			<path class="st0" d="M186.2,109.4c-0.9-0.5-1.4-2.2-2-2.4c0.1,1,1.4,2.5,2,3.2v-0.4c0.6,0.2,1.5,1.2,2.4,1.4
				C187.9,110.5,187.1,109.9,186.2,109.4"/>
			<path class="st0" d="M246.2,55.5l1.5-0.1c-0.4-0.2-1-0.3-2.1-0.8c-0.9-0.3-1.8-0.3-2.7-0.2c0.1,0,0.1,0,0.1,0.1v0
				c0,0.1,0.1,0,0.1,0.1c1.7,0.9-0.1,0.5,2.6,0.7C246.5,55.2,246.2,55.3,246.2,55.5"/>
			<path class="st0" d="M187.2,94.8c0.1,0.6,0.4,0.7,1,1c1,0.7,2.6,2,3.7,2c-0.1-0.5-1.9-1.5-2.5-1.9l-0.1,0.4
				C188.7,95.7,188,95.2,187.2,94.8"/>
			<path class="st0" d="M147.6,107.3c0.7-0.4-0.1-0.7,0.8-1.3c1.2-0.8,2.4-1.6,3.6-2.5c-1,0.3-1.9,0.8-2.7,1.4
				C148.1,105.7,147.6,105.8,147.6,107.3"/>
			<path class="st0" d="M164.9,92.9c-0.2,0.7-3.4,3.7-3.8,4.7c1.6-1.4,3-3,4.1-4.7H164.9z"/>
			<path class="st0" d="M279.1,95c0.3,2.1-0.1,1-0.1,2.2c0,0.7,0.1,1.4,0.4,2c0.4-0.5,0-1.4,0.2-2c0.2-0.6,0.2-1.3,0.2-1.9L279.1,95
				z"/>
			<path class="st0" d="M197.7,125.2c0.7-0.4,2.5-0.8,2.8-1.3c-0.9,0.2-1.8,0.4-2.7,0.8c-1,0.4-0.7,1.8-0.4,2.6
				C197.8,127,197.2,126.6,197.7,125.2"/>
			<path class="st0" d="M234.8,122.6c1.4,0.5,2.8,0.8,4.2,0.9c-0.1-0.4,0.3-0.1-0.4-0.3S235.4,122,234.8,122.6"/>
			<path class="st0" d="M155.5,85.2c-0.2-0.5-1.1-0.5-1.8-1.2c-0.5-0.6-0.8-1.3-1-2c-0.5,0.6,0,1.5,0.5,2.1c0.3,0.3,0.6,0.5,1,0.7
				C154.6,85,155.1,85.2,155.5,85.2"/>
			<path class="st0" d="M240.4,40.5c0-1.2-0.1-2.4-0.2-3.6c-0.3,0.6-0.5,1.2-0.4,1.9C239.7,39.5,239.6,40.2,240.4,40.5"/>
			<path class="st0" d="M198.3,138.8c0.1,0.7,0.4,1.3,0.8,1.8c0-1.3-0.3-2.6-0.7-3.9c-0.1,0.1-0.2,0.3-0.2,0.5L198.3,138.8z"/>
			<path class="st0" d="M237.7,136.1c0.5-0.4,0.5-2.5,0.2-3C237.4,133.4,237.4,135.6,237.7,136.1"/>
			<path class="st0" d="M238.4,138.3c0.5,0,1.1-0.2,1.5-0.5c-1,0-2,0.1-2.9,0.4c0.4,0.3,0,0.2,0.5,0.3c-0.4,0.2-0.1,0-0.1,0.2
				c0.4,0.1,0.9,0,1.3-0.1L238.4,138.3z"/>
			<path class="st0" d="M248.7,74.9l-0.1,0.2c0,0.1-0.2,0,0.1,0.1c0.6,0,1.7,0.1,2.2-0.3c-0.9-0.3-1.9-0.4-2.9-0.2
				C248.3,74.9,248.3,74.8,248.7,74.9"/>
			<path class="st0" d="M207.4,120.5c1,0.2,2,0.1,3-0.2C209.4,120,208.4,120.1,207.4,120.5"/>
			<path class="st0" d="M219.8,59.3c0.1-0.9,0-1.8-0.3-2.6l-0.2,0.5c-0.2-0.8-0.2-1-0.7-1C219.1,57.6,219,58.8,219.8,59.3"/>
			<path class="st0" d="M197.5,41.4c-0.3,0.2-0.2-0.1-0.2,0.4l7.4,0.3c-1-0.4,0.5,0-2-0.4l3.7-0.1C203.5,41.1,200.5,41.1,197.5,41.4
				"/>
			<path class="st0" d="M346.5,103.5c4.2,0.1,8.9,0.3,13,0.3c1.6,0,3.7-0.6,4.1,1.2c0.6,2.9,0.6,7.2-3.4,6.8
				c-3.3-0.4-7-0.2-10.4-0.5c-1.1-0.1-2.2-0.1-3.3-0.1v18.2c4.7-0.2,9.9-0.7,14.4-0.6c1.7,0,1.5,0.8,1.8,2.4
				c0.3,1.2,0.4,2.4,0.3,3.6c-0.4,2.2-2.4,3.7-4.6,3.5c-0.7,0-8-1.4-11.9-2.2v19.4c1.3,0.2,2.9,0.3,5.5,0.7s12.4,2.3,14.4,2
				c2.3-0.4,9.3-3.6,12.2-4.6c2.1-0.8,10.7-3.7,11.5-5.3c0.9-1.8,1.1-12.7,1.2-15.4c0.3-11,0.8-21.8,0.6-32.8
				c-0.1-5.5-0.3-11-0.3-16.5c0-4.4,0.4-12.5-0.3-16.5c-0.3-1.9-4.5-2-6.1-2.3c-5.7-1.1-16.2-3.6-21-4.2c-5.1-0.6-11.2-0.2-16.4-0.3
				h-1.3v21.3l3.1-0.2c2.8-0.2,7.4-0.1,9.9-0.5c3.8-0.6,1.8,1,1.9,7.4c0,1.3,0.1,1.5-1.2,1.4l-7.3-0.4c-2-0.2-4.2-0.3-6.3-0.4
				L346.5,103.5z M329.1,110.4c0-1.6,0.1-3.3,0.4-4.9c0.3-2.6,1-2.1,3.3-2.1c3.5,0,7.1,0.1,10.7,0.1h3V89c-4.6-0.2-9.3-0.4-13.7-0.5
				c-1.4-0.1-3.7,0.3-3.8-1.4c-0.2-6,0.2-4.2,10.7-5c2.2-0.2,4.5-0.3,6.8-0.4V60.5c-5.1-0.1-10.2,0-15.3-0.2
				c-7.2-0.2-8-0.5-14.8,1.8c-2.8,1-4,0.8-4,4.4c0,2.7,0,5.4-0.1,8.1c0,5.4-0.2,10.8-0.2,16.2c0,5.2-0.4,10.4-1.2,15.6
				c-0.8,4.9-0.6,9.3-3.3,13.5c-0.2,0.4-2.7,4.7-2.8,4c-0.2-1.6-1.9,2.9-2.1,3.3c-2,4.5-4.4,5.7-7.9,8.9c-2.2,2-2.4,2.7-5.8,2.6
				c-2.6-0.1-5.2,0.2-7.7-0.4c0,0.3,1.3,2,1.5,2.7l1.2,3c4,10.2,2.9,8.7,8.1,8.5l8-0.3c7.8-0.4,6.4,0.6,12.9-3.9
				c2.6-1.8,5-7.1,6.9-9.9c1-1.5,2.2-3.7,3.1-5.2c1.9-3.2,1.9-2.7,5.5-2.9l16.2-0.6l1.7-0.1v-18.2
				C340.7,111,334.5,111.1,329.1,110.4 M346.5,136v19.4c-2.1-0.4-3.3-1-6.3-4.2c-5.4-5.6-7.6-5.1-5-9.3c1.1-1.8,1.9-3.6,3-5.3
				c1.7-2.5,3.5-1.6,6-1.1L346.5,136"/>
			<path class="st0" d="M389.4,150.3l1.5-1.1c0.6-0.7,0.9-1.7,0.7-2.6l0.3-16.5c0-1.4,0.1-2.7,0.1-4.1c0-1,0.7-3.3,0-4
				c-0.9,1.7-0.6,6.2-0.6,8.2c0,1.5-0.7,9.5-0.5,10.3c0.3,1.8-0.1,4,0,5.9c0,1.2,0.5,1.5-0.8,2.5c-1.1,0.9-2.4,1.7-3.6,2.5
				C388.1,151.4,387.7,150.9,389.4,150.3"/>
			<path class="st0" d="M311.7,71.8c-0.2-0.9-0.4-1.9-0.4-2.8c0-2.8,0.4-1,0.4-2.5c-0.1-1,0-2,0.2-3c0.1-0.5,0.8-1.8,0.8-2.1
				c-0.9,0-1.1,2.4-1.5,2.8l0.3-2.5c-1.4,1-0.3,12.4-0.5,13.4c-0.8,3.5-0.1,5.2-0.5,8.1c-0.4-0.6,0.1-1.3-0.4-2
				c-0.1,1.9,0,3.7,0.2,5.6l0.2-1.3c0.4,0-0.3,0.4,0.3,0c0-1.8,0.1-3.5,0.3-5.3c0.1-1.4-0.2-4.1,0.4-5.1l0.1,4
				c0.4-1,0.2-4.9,0.4-6.3c0.2-2.1,0.3-4.1,0.2-6.2C311.7,67,311.8,70.7,311.7,71.8"/>
			<path class="st0" d="M392.5,72.7c0.3-0.3,0.4-2.2,0.5-2.8c0.3,1.3,0.3,2.7,0.1,4.1c-0.1,0.5-0.2,0.4-0.4,0.9V76
				c0,2.5-0.8,8.7-0.2,10.4c0.1-0.8,0-1.6,0.4-2c1.2,1.5-1.2,11.3,0,12.5c0.8-1.1,0.8-6.1,0.6-7.5c-0.3-2,0.6-5.7-0.4-7.4
				c-0.4-0.7,0-6.6,0.2-7.6s0.4-7.1,0-7.8l-0.3,1.7l-0.3-1.4C392.3,67.1,392.2,72.2,392.5,72.7"/>
			<path class="st0" d="M372.5,60.3c-0.6,0.1-0.9-0.1-1.3,0.1l4.4,1.5c1.5,0.5,3,0.8,4.5,0.9C376.6,60.7,375.3,61.5,372.5,60.3"/>
			<path class="st0" d="M280.6,138.5l1.3,2.6l-0.6-0.6c0.1,0.9,0.3,1.7,0.7,2.5c0.4,1,0.4,1.8,0.7,2.7l0.1-0.4
				c0.4,1.1,0.8,2.2,1.1,3.4c0.2,0.7,0.4,3.1,1.1,3.3c0.2-0.3,0.2-0.7,0.1-1.1c-0.5-2.8-0.6-1.4-0.9-2.4l-2-6.6
				c0.4,0.8,0.9,1.6,1.4,2.3c0.3,0.4,0.6,0.5,0.9,0.9s0.3,0.8,0.9,1c-0.2-0.7-3.7-7.3-4.1-7.4l0.2,0.8L280.6,138.5z"/>
			<path class="st0" d="M392.7,115.3c1.2-0.7-0.1-4.5,0-5.6c0.2-2,0.3-4.1,0.3-6.1c-0.1-4.1-1.3-7.8-0.8-11.9l0.5,2.3
				c0.2-0.5,0.1-3.6-0.3-3.9c-0.2,0.3-0.1,0.5-0.2,0.9s-0.2,0.1-0.4,0.5c-0.1,1-0.1,2.1-0.2,3.1c0,1,0.1,1.9,0.2,2.9
				c0.1,2.2,0,4,0,6.2s0.6,3.6,0.3,5.9c-0.1,1.2-0.4,1.8,0.2,2.9S392.2,114.7,392.7,115.3"/>
			<path class="st0" d="M311.7,88.4c0.3-1.2,0-2.2,0.4-3.8c0.3-1.2,0.3-2.5,0.1-3.8c-0.4,0.6-0.1,1.6-0.2,2.3c0-0.5,0.1-1.2-0.2-1.6
				c-0.4,0.8-0.3,4.1-0.2,5.2c-0.5,0.8-0.3,0-0.5,1.3c-0.1,0.5,0,1-0.1,1.6s-0.2,1-0.3,1.5c-0.1,2.8-0.1,5.7,0.1,8.5
				c0.3-0.9,0.4-1.8,0.4-2.7c-0.1-1-0.1-2,0-3c0.1-0.6,0.3-0.4,0.3-1.2l0.1-4.5C311.4,88.1,311.5,88.4,311.7,88.4"/>
			<path class="st0" d="M317.8,144.8c0.8-1.2,1.5-2.5,2.2-3.8c0.4-0.8,2.1-3.2,2-3.8c-0.3,0.1-0.4,0.4-0.6,0.7l-3.7,6.6
				c0.2-0.9,1.5-2.4,1.5-3.3c-0.8,0.5-2.5,4.8-3.4,5.6c0.1-1,1.1-1.7,1.2-3c-0.4,0.2-1,1.8-1.3,2.3c-0.4,0.8-0.9,1.5-1.6,2.1
				c-0.7,0.7,0.3,0.2-0.7,0.9c-0.5,0.3-0.5,0.4-0.8,0.4c-0.5,0.1-1,0.3-1.3,0.7c-0.5,0.4-0.1,0-0.3,0.5c-0.1,0.2-0.2,0.2-0.3,0.4
				c3.5-1.5,4.4-3.7,5-4.1c0,0.6-0.3,0.3-0.4,0.9c0.5-0.3,1.8-2.6,2.3-3.2L317.8,144.8z"/>
			<path class="st0" d="M338.2,134.6c0.6-1.3,4-0.5,4.6-0.8c-1-0.4-2.1-0.5-3.2-0.5c-0.9,0.3-1.6,0.8-2.1,1.6h0.5
				c-0.4,0.7-3.5,4-3.2,4.6l0.6-0.8c0.3,0.6-2.4,4.5-2.4,5.6c0.3-0.2,2.3-4.2,2.7-4.9c0.9-1.6,2-3.1,3.2-4.5l-0.5,0.2
				c0.3-0.4,1-0.6,0.9-0.9L338.2,134.6z"/>
			<path class="st0" d="M323.6,136.2c0.4-0.8,0.9-1.7,1.3-2.5c0.2-0.4,0.5-0.9,0.7-1.3s0.7-0.7,0.7-1c-1.8-0.1-3.4,3.2-4.3,4.5
				c-0.7,1-3.4,4.6-3.4,5.6c0.5-0.2,2.2-3.6,2.7-4.3c0.3-0.5,0.7-0.9,1.1-1.3l0.3,0.2l1.7-1.9L323.6,136.2z"/>
			<path class="st0" d="M392.9,119.7c0.2-0.8,0.4-2.2-0.2-2.8c-0.4,1.6-0.5,3.3-0.3,4.9c0.2-0.4,0.4-0.8,0.5-1.2
				c0.3,2.1-0.7,9,0.2,10.1c0.3-0.4,0.2-4.9,0.3-5.8c0.3,0.7,0.4,1.5,0.5,2.3c0.1-1.9,0-3.8-0.3-5.7c-0.2-0.6-0.2-1.3-0.2-1.9
				C392.8,119.7,393.2,119.7,392.9,119.7"/>
			<path class="st0" d="M297.5,131.6c0.7-0.1,0.9-0.8,1.4-1.1c0.9-0.7,0.1,1,2.3-2.6c0.4-0.6,0.4-1.1,0.8-1.6
				c1.4-2.1,2.6-4.2,3.7-6.4c-0.8,0.2-4.9,7.5-5.9,9L297.5,131.6z"/>
			<path class="st0" d="M360.1,129.5c-0.9-0.1-1.7-0.1-2.6,0.1c0.5,0.5,2.4-0.1,3,0.3c0.3,0.2,0.4,2,0.7,2.6
				c0.1,0.2,0.2,0.1,0.3,0.6v0.8c-0.4,2-1.6,2.2-2.1,2.8c0.9-0.1,1.1-0.7,1.7-1.1c0.9-0.6,0.8-0.6,0.9-1.8c0-1.4,0.3,0.2,0.1-2.3
				c0-0.7-0.2-1.4-0.6-2c-0.4,0.7,0.6,0.7-0.2,1.8C361,130.5,361.2,129.6,360.1,129.5"/>
			<path class="st0" d="M360.6,89.1c0.1-0.8,0.1-1.5,0-2.3c-0.4,0,0.2-0.2-0.2,0.1s0.2,0.2-0.1,0.1l0.2-5.3c-0.9,0.3-0.7,2.1-1,3.9
				c-0.1,0.7-0.1,1.5,0,2.2C359.6,88.6,359.6,89.2,360.6,89.1"/>
			<path class="st0" d="M391.6,71.6c-0.5,0.5-0.3,2.5-0.2,3.2c0.1,1.8,0.4,2.1,0.4,3.2c0.1,0.5,0.1,1,0,1.5c-0.1,1.6,0,3.1,0.2,4.7
				c0.2-0.1,0.2-0.1,0.3-0.3l0.2-2.9c0-1.1-0.1-2.1-0.3-3.2v-1.7c-0.1-0.5-0.3-1-0.4-1.5C391.8,73.9,392.3,72.3,391.6,71.6"/>
			<path class="st0" d="M336.7,148.3c-0.9-0.8-0.2,0.4-1-0.4l-1.9-1.9c-0.7-0.9-0.2-0.8-0.7-1.1c-0.6,1,2.4,3.6,3.1,4.2
				c0.4,0.3,0.8,0.4,1.2,0.7c0.9,0.9,1.9,1.8,3,2.6C340.3,151.6,337.5,149.1,336.7,148.3"/>
			<path class="st0" d="M286.5,148.5c-0.2-0.5-1.2-2.4-1.8-2.4c0,0.7,1,2.2,1.3,3l1.1,3.2c0.1-0.2,0.1-0.1,0.1-0.5
				C287.1,150.7,286.8,149.6,286.5,148.5"/>
			<path class="st0" d="M328.8,109.9c0.4,0,0.8-0.4,1.1-0.7c0.4-0.3,0.7-0.8,0.7-1.3c0.1-0.7,0.1-1.3,0-2c-0.2-1,0-0.7,0.2-1.6
				c-0.9,0.1-0.9,1.6-1,2.9C329.7,109.2,328.9,109.1,328.8,109.9"/>
			<path class="st0" d="M362.7,108.3l-0.8,1.7c-0.5,0.6-1.4,0.1-2,0.4c0.3,0.4,1.3,0.4,1.8,0.3c0.6-0.5,0.9-1.2,1-1.9l0.3,0.3
				c0.3-0.7,0.3-1.4,0-2.1L362.7,108.3z"/>
			<path class="st0" d="M363.5,108.4c0.1-0.7,0.5-3.9-0.5-3.9l0.3,3C363.2,108.8,363.4,108.3,363.5,108.4"/>
			<path class="st0" d="M294.7,135.1c0.6-0.4,1.2-0.9,1.7-1.4c1.1-0.9,1.5-1,1.5-1.5C297.6,132.3,294.7,134.2,294.7,135.1"/>
			<path class="st0" d="M289.9,137.4c0.7-0.2,3.1-2.5,3.1-3.2c-0.4,0.6-1,1.1-1.6,1.5C291.4,135.7,290,137.2,289.9,137.4"/>
			<path class="st0" d="M337.1,149.1c0.7,1.5,3.6,3.3,4.1,4.4c-0.4-0.3-0.8-0.9-1.3-0.9c0,0.2,3.4,3.9,4.2,3.9
				c-0.1-0.4-1.3-1.2-1.6-1.7c0.4,0.1,1.7,1.6,3.4,2c0.4,0.1,0.7,0.1,1.1,0.2s0.7,0.2,1,0.3c0.7,0.1,1.8,0.2,2.4,0.3
				c-0.9-1-4.3,0.3-7.7-3.2c-1-1-1.8-1.6-2.8-2.7C339.1,150.8,338.1,149.9,337.1,149.1"/>
			<path class="st0" d="M368.6,158.6h0.3c0.3-1,0.8-0.7,1.5-0.7c0.4,0,5.2-1.5,5.6-1.7c1.2-0.5,2.2-1,3.4-1.4
				c0.7-0.2,2.9-1.1,3.2-1.6c-0.8-0.2-6,2.2-7,2.6s-2.6,0.9-3.7,1.3S368.7,157.3,368.6,158.6"/>
			<path class="st0" d="M360.1,159.1h0.6c0-1.2-0.5-1.1-1.7-1.4c-0.6-0.1-2-0.5-2.5-0.2C357.4,158.1,360.1,157.7,360.1,159.1"/>
			<path class="st0" d="M133.3,147.3c0-0.1,0.1-0.2,0.1-0.3c0.2-1.9,0.4-3.8,0.4-5.7c0-0.5,0.1-1.1,0.3-1.6c0-0.6,0-1.2-0.1-1.8
				c-0.9,1.2-0.4,7.2-0.9,9l-0.1,0.5L133.3,147.3z"/>
			<path class="st0" d="M58.3,141.4l-0.2-2.1c-0.4,0.7-0.2,6.4,0.6,7.1c0-1.1,0-2.2-0.2-3.3c-0.1-1.4,0.2-0.8,0.2-1.7
				c0-0.6,0-1.1,0.2-1.7l0.2,2.4c0.4-0.6,0.1-3.3,0.3-4.2c0.5-2.9,0-2.1-0.2-3.8c-0.2-1.4-0.1-2.8,0.2-4.1c0.4-1.3,0.6-2.6,0.7-3.9
				c-0.5,0.6-1.6,6-1.6,7c0.1,1.4,0.1,2.8,0.1,4.1C58.3,138.6,58.2,140,58.3,141.4"/>
			<path class="st0" d="M60.8,74.9l0.4,0.1v0.6c1.2-2,2.1-4.1,2.8-6.3c-1,1-1.4,3.4-2.3,4.5c1-2.9,2.1-5.7,3.4-8.4
				c0.2,0.4-0.6,1.3-0.5,2c1.2-2.8,2.3-5.6,3.2-8.5c-1,0.5-1.7,4.4-2.6,5.4c0-0.9,3.9-9.2,3.5-10.4c-0.1,0.1-3.8,9.8-4,10.5
				C63.9,67.7,61.8,71.5,60.8,74.9"/>
			<path class="st0" d="M122,159.3l0.3-1.2c-0.5,0.1-0.7,1.2-1,1.6c-0.6,1-0.4,0.7-1.4,1.3c-1,0.6-2.1,1.1-3.2,1.5
				c-0.5,0.3-0.3,0.1-0.4,0.4c1.6-0.5,3.2-1.2,4.6-2.1c0.4-0.4,0.7-0.8,1-1.3c-0.1,0.3-0.2,0.6-0.3,0.9c-0.4,0.8-0.1,0.2,0,0.8
				c-1.2,1.5-7.7,3.4-8,4.4c3.1-1.1,3-1.4,5.3-2.5c2-0.9,2.7-0.7,3.5-2.3c0.6-1.3,0-0.7,0.2-1.4s0.9-2.1,1.1-2.8
				c0.9-2.9,2.1-5.7,3.5-8.4C125.4,148.4,122.7,158.8,122,159.3"/>
			<path class="st0" d="M133.3,59.6c-1.1,1.2-1.2,2.9-1.5,4.3s-0.9,3-1.2,4.5c-0.3,0.8-0.3,1.6-0.1,2.4c-0.1,0.8-0.3,1.5-0.6,2.2
				c-0.4,1.4-1,2.8-1.8,4.1c-0.4,0.1-0.3-0.1-0.7,0c-0.6,1.4,1.2,2.1,1,1.1c-0.2-1.5,0.2-1.4,0.9-2.7c2.5-4.9,1.1-5.5,1.8-7.7
				c0.3-0.9,0.6-1.9,0.9-2.8c0.3-1.1,0.4-3.4,1.1-4.3C133.3,60.3,133.6,60,133.3,59.6"/>
			<path class="st0" d="M14.3,131.7c0.2,1.4-0.5,0.1,1.1,2.4c0.8,0.2,1.8,2.1,2.1,2.8c0.3,0.9,0.9,1.7,1.8,2c-0.7-1.7-1.7-3.2-3-4.4
				c-0.9-0.8-1.5-1.8-1.6-3c-0.2-0.7-0.2-0.2-0.3-0.7s-0.1-1.1-0.2-1.6c-0.2,0.4-0.2,0.9-0.1,1.4C14,131.3,13.8,131.3,14.3,131.7"/>
			<path class="st0" d="M9.7,109c1.1-0.4,3.1-2.5,3.5-2.7l0.5-0.1c0.3-0.1,0.5-0.5,1.1-0.7c-0.3,0.8-6,4.2-6.9,6.1
				c1.3-0.4,6.5-5.5,7.8-6.4c1-0.7,2-1.4,1.9-2.7c-0.6,1.5-0.8,0.7-2.9,2.2c-1.1,0.7-2.2,1.5-3.2,2.3C10.9,107.6,10.3,108.3,9.7,109
				"/>
			<path class="st0" d="M133.9,137.1c0.5-1-0.3-0.9,0.7-3.5c0.5-1.1,0.1-2.7-0.1-3.9c0-0.2,0-0.4-0.1-0.6h-0.5c-0.1,1,0.1,3,0,4
				S133.3,136.3,133.9,137.1"/>
			<path class="st0" d="M92.2,161.5c-0.2-0.5-0.4-1-0.6-1.5c-0.3-0.6-0.2-1.1-0.5-1.7c-0.4-1-1-1.9-1.4-2.9
				c-0.5-1.1-0.5-2.4,0.1-3.5c0.5-1,1.1-1.8,1.9-2.5c-0.1,0.3-2.8,3.5-1.9,4.9c0.1-0.3,0.1-0.6,0.1-0.9c0.4-1.6,1.2-3,2.4-4.1
				c0.4-0.3,1.6-0.8,1.7-0.9c-1.4-0.1-2.8,0.4-3.7,1.5c-2.3,3.1-1.2,5.2,0.2,7.9C91,158.8,91.5,161.1,92.2,161.5"/>
			<path class="st0" d="M86.5,59.1c1.3,0.3,2.7,0.4,4.1,0.4c1.4-0.2,3,0.4,4.2-0.1c-0.5-0.4-6.7-0.3-7.4-0.8
				c-0.3-0.5,0.6-1.1,0.5-1.7s0.8-1.3,0.8-2c-0.9,0.3-1.5,2.4-1.5,2.7C86.8,58.6,86.5,58.7,86.5,59.1"/>
			<path class="st0" d="M59.6,132.4c0.4-1.2,0.7-2.4,0.9-3.6c-0.1,1.2-0.3,2.4-0.6,3.5c-0.1,0.9-0.4,3.1,0,3.8
				c0.2-1.3,0-2.6,0.3-4.1c0.3-1.2,0.6-2.4,0.8-3.6c0.1-0.3,0.1-0.6,0.2-1c0.3-1.6-0.4,0.3,0.1-2.7c0.3-1.7,1-3.5-0.3-3.3
				c0.2,0.6,0.4,0.1,0.3,1.1c-0.1,1.4-0.5,3-0.7,4.4c-0.1,0.9-0.3,1.8-0.6,2.7C59.8,130.4,59.2,131.8,59.6,132.4"/>
			<path class="st0" d="M66.2,93.7L67,93c-0.4,0.7-0.8,1.5-1.2,2.2c-0.6,1.3-2.8,6.9-2.7,7.7c0.8,0,2-4.4,2.3-5.2s2.2-5.1,2.1-5.6
				C66.9,92.5,66.5,93,66.2,93.7"/>
			<path class="st0" d="M127.4,106.1c0.9-0.5,0.8-3.4,0.9-4.4c0.5-3.5-0.7-2.8-0.3-4.8c0.3-1.7-0.5-0.7,0.5-2.8
				c0.1-0.2,0.1-0.5,0.1-0.7c0-1.3,0.2-5.9-0.2-6.4c-0.6,1.3-0.4,3.4-0.4,4.9l-0.5,4.9c0,0.7-0.4,2.9,0,3.6c0.2,0.4,0.4-0.1,0.3,1
				C127.6,103,127.5,104.5,127.4,106.1"/>
			<path class="st0" d="M17.3,74.7c0.1-0.5,0-0.9-0.1-1.4c-0.4,0.9,0.1,4,0.1,5.2c-0.1,0.6-0.1,1.3,0,1.9c0.3-0.2,0-0.1,0.3-0.5
				c0.1,0.4,0,0.8-0.1,1.2c0.8-0.1,0.6-1.4,0.6-2.4c0.1-0.9,0.1-1.8,0.1-2.7c-0.3,0.3-0.2,0.5-0.2,1c0,0.4-0.1,0.8-0.2,1.2
				c-0.3-2,0.4-5.8,0.1-7.1C17,71.7,17.7,73.9,17.3,74.7"/>
			<path class="st0" d="M11,95.3c0.6,0.3,1.2,0.5,1.9,0.4l-0.3,0.2c1,0.8,2.5,0.4,3.2,1.1l0.4,3.9c0,0.5-0.3,0.8,0.1,1.3
				c0.5-0.6,0.6-3.7,0.4-4.5c-0.3-1.9-2-1.4-3.5-1.8l1-0.1C13.8,95.5,11.2,95,11,95.3"/>
			<path class="st0" d="M69.6,54.2c0.9-0.4,2.4-4.8,2.9-5.9c0.6-1.3,1.9-4.9,3-5.7c-1.1,0.2-3.2,4.2-3.6,5.2s-0.6,2.1-1.1,3.2
				C70.2,52,69.8,53.1,69.6,54.2"/>
			<path class="st0" d="M130.4,78.8c0.5-1-0.4-3.1,0.1-5.1c0.2-0.9,0.1-1.9,0.3-2.7c0.1-0.5,0.7-2.1,0.4-2.5
				c-0.4,0.3-0.7,1.8-0.8,2.3c-0.2,1-0.1,1.7-0.3,2.7S129.8,78.1,130.4,78.8"/>
			<path class="st0" d="M129.1,95.5c0.4-0.5,0.1-0.2,0.3-0.7l-0.1,5.7c0.7-0.7,0.1-3.5,0.7-4.2c0.2,1.1-0.2,4,0.2,4.8
				c0.6-0.7,0.4-6.9,0.3-7.5c-0.1-0.8-0.3-1.6-0.5-2.3c-0.6,0.7,0,1.2-0.4,1.8c-0.3-0.5,0.2-2.4-0.1-3.3c-0.2,0.1,0-0.3-0.3,0.4
				C129,92,129,93.7,129.1,95.5"/>
			<path class="st0" d="M19.1,63.1c0-0.8,0.3-1.4,0.3-2c-0.7,0.6-0.9,3.2-0.9,4.1s-0.7,3.9-0.3,4.6c0.5-0.8,0.5-2.7,0.7-3.6l0.1,0.9
				c0.5-0.5,0.2-3.2,0.9-4.8c0.2-0.4,0.6-0.9,0.6-1.3C19.7,61.1,19.4,62.7,19.1,63.1"/>
			<path class="st0" d="M62.2,105c1,0,0.8-1.9,1.5-4.1c0.5-1.6,1.5-3.1,1.6-4c-0.6,0.3-0.9,1.1-1.2,1.7c-0.4,0.8-2,3-1.9,4
				s0.4-0.5,0.2,1C62.4,104.1,62.2,104.5,62.2,105"/>
			<path class="st0" d="M38.9,128.9c0.4-1-0.3-3.7-0.5-4.7c-0.2-0.8-0.3-1.6-0.4-2.4c-0.1-0.8-0.4-1.3-0.6-2.2
				c0.3,0.1,0.6,0.6,0.9,0.9l3.8,1.9c-0.2-0.5-2.2-1.5-2.7-1.8c-1.1-0.6-1.9-1.7-2.6-2.1c0.1,0.8,0.3,1.7,0.7,2.4
				c0.4,1.7,0.8,3.5,1,5.3l0.3,2C38.7,128.4,38.7,128.8,38.9,128.9"/>
			<path class="st0" d="M97.7,124.9c0.5,0.5,1.4,0.7,1.5,1.8l-0.5-0.5c0.1,0.4,1,2.6,1.2,3.3s0.7,3,1.6,2.8c0.1-0.7-1.1-3.5-1.4-4.3
				S99,124.3,97.7,124.9"/>
			<path class="st0" d="M42.4,105.1c-0.7-0.7-1.5-1.3-2.4-1.7c-0.9-0.4-1.8-0.9-2.6-1.5c-0.9-0.7-1.6-1-1.9-2.2l-0.2-2.9
				c0-0.6,0.1-0.4,0.2-0.8c-0.9,0-0.5,0.7-0.5,1.3c0,0.7,0,1.3,0.1,2c0.1,1.3,0.8,1.8,1.8,2.6S41.3,105,42.4,105.1"/>
			<path class="st0" d="M103.9,130.8c-0.1-1.2,0.1-5.3-0.4-5.9c-0.2,0.1-0.1,0.6-0.2,0.4c0,0.1,0,0.1-0.1,0.1
				c-0.2-0.3,0.1-0.1-0.3-0.3c0.1,2.7,0.8,1.5,0.3,3.8c-0.2,1-0.1,2.1,0.1,3.1v0.1l0.4,0.6C104,132.1,104,131.4,103.9,130.8"/>
			<path class="st0" d="M102.9,100c0.1,0.8,0.1,1.5-0.1,2.3c-0.2-0.6-0.1-1.4-0.5-2c-0.1,0.8,0.3,2.2,0.3,3.1s-0.1,2.2,0,3.2
				l0.2-0.5c0.1,0.5,0,1.4,0.4,1.6C103,107.7,103.7,100.1,102.9,100"/>
			<path class="st0" d="M85.5,103.2c0.8-0.6,0.9-3.1,1.9-3.8c-0.5,1-1,2.1-1.3,3.2c-0.2,0.6-0.4,1.2-0.5,1.8
				c-0.1,0.8-0.3,1.3,0.2,1.8c0.2-0.7,0.3-1.3,0.4-2c0.4-1.5,1-4,2.1-5.2c-0.7,0-0.3,0.1-0.8,0.2c-0.3,0.1-0.8-0.1-1.3,1.4
				C85.8,101.4,85.6,102.3,85.5,103.2"/>
			<path class="st0" d="M44,105.5c-0.2-0.3-0.4-0.3-0.7-0.6s-0.1-0.5-0.7-0.7c0-0.3-0.1,0.4,0.1-0.1s0.1,0.4,0-0.1
				c-1.3-1-2.7-1.9-4.2-2.6c-0.7-0.4-1.3-0.9-1.8-1.5c-0.5-1-0.1-2.2-0.6-2.9c-0.3,1.2-0.2,2.5,0.5,3.5c0.9,0.8,2.3,1.2,4,2.5
				c0.6,0.4,0,0,0.2,0.4C40.9,103.3,43,105.5,44,105.5"/>
			<path class="st0" d="M3.4,119.5c0.3-0.6-0.2-0.9,0.6-2.2c-0.5,0.8-0.4,1.9,0.1,2.7c0.2-0.3,0-0.9,0-1.3c0-0.5,0.1-1,0.3-1.4
				c0.1-0.6-0.2-0.3,0.3-1c1.1-1.6,2.3-3.2,3.6-4.6C7.8,111.7,2.2,117.7,3.4,119.5"/>
			<path class="st0" d="M89.4,54.8c0.5-0.7,0.9-1.4,1.2-2.2c0.2-0.3,0.4-0.6,0.7-0.8l1.1-2.3c0.2-0.6,0-0.6,0.2-1.2
				c0.4-0.8,0.6-1.6,0.8-2.4c-0.3,0.2-0.6,0.5-0.7,0.9l-1.4,3.6C91,51.6,89.4,53.7,89.4,54.8"/>
			<path class="st0" d="M33.7,74.8c0.1,1.4,0,5,0.8,5.9c0.6-0.9,0.1-2.5-0.2-3.4s0.1-3.1-0.3-3.8C33.7,74.1,33.9,74.4,33.7,74.8"/>
			<path class="st0" d="M17.6,103.6c1.1-0.1,1-2.1,0.9-2.9s0-2.9-0.6-3.4C17.6,100.2,18.5,101,17.6,103.6"/>
			<path class="st0" d="M86.7,129.8c0.9,1.2,2.8,1.6,3.8,2.4c-2.2-0.1-4.2-2-5.1-2.1c0.8,0.7,1.6,1.3,2.5,1.7
				c3.4,1.2,2.1,0.5,2.9,0.3c-0.2-0.4-1.6-0.9-2-1.2C88.2,130.4,87.5,130,86.7,129.8"/>
			<path class="st0" d="M98.5,82.3c-0.4,0.2-0.1-0.1-0.6,0.2c0.8,0.4,1.6,0.6,2.5,0.7c0.6,0.1,2.6,0.4,3.1,0.1
				c-0.9-0.6-2.9-0.4-3.8-0.6c-0.2-0.1-0.3-0.2-0.4-0.2s-0.1,0.1-0.5-0.1c-0.1-0.6,0.1-0.6-0.2-1.1C98.3,81.6,98.6,81.6,98.5,82.3"
				/>
			<path class="st0" d="M83.5,128.3c0.4-0.5,0-1.7,0.8-2.6c0.5-0.5,1.3-1,1.8-1.5c-0.4-0.2-0.8,0.1-1.2,0.4
				c-0.4,0.2-0.8,0.5-1.2,0.8C83.2,126.2,82.9,127.6,83.5,128.3"/>
			<path class="st0" d="M87.1,81.5c-0.1,0.2,0.2,0.2,0.1,0.4c-0.8,0-3.2,0-3.5,0.4c1.2,0.3,2.5,0.3,3.7,0.1c0-0.1-0.1-0.1-0.1-0.4
				c1.5,0,3-0.1,4.5-0.4c-0.8-0.3-1.6-0.4-2.4-0.3C87.9,81.6,88.5,81,87.1,81.5"/>
			<path class="st0" d="M78,79.8l0.6-0.4c0.2,0.7-0.2,0,0,0.5c2.1-1.5,1.7-1.2,3.5-1.2c0.2-0.4,0.1,0.1,0-0.5l0.5-0.1
				c-0.8,0-1.6,0-2.4,0.1c-0.6,0-0.3-0.1-0.6-0.1C79.1,78.2,78.2,79.3,78,79.8"/>
			<path class="st0" d="M46.8,123.9c0.8,0.5,2-1.1,2.5-1.6c0.7-0.9,1.6-1.6,1.7-2.9c-0.4,0.3-0.6,1.2-1.9,2.6
				C48.5,122.8,47.7,123.4,46.8,123.9"/>
			<path class="st0" d="M94.6,148.9c0.8,0.5,4.6,2.3,5.3,1.9c-0.8-0.4-1.7-0.8-2.6-1.1c-0.6-0.4-1.2-0.7-1.9-0.9
				C94.9,148.7,95,148.6,94.6,148.9"/>
			<path class="st0" d="M34.2,76.9c0.4-0.5,0.4-2.3,0.4-3c0.1-1.1,0.1-2.1-0.1-3.2c-0.1,0.1-0.1,0.1-0.1,0.2l-0.2,2.9
				C34,74.8,34,75.9,34.2,76.9"/>
			<path class="st0" d="M11.1,125.9c0.7-0.2,5-3.1,5.3-3.7c-1,0.4-1.9,1-2.7,1.6C13,124.3,11.3,125.3,11.1,125.9"/>
			<path class="st0" d="M34,138.9c1.2-1.1,3.4-3,3.9-4.5c-0.7,0.7-1.4,1.4-2.1,2.2C35.3,137.1,34,138.1,34,138.9"/>
			<path class="st0" d="M129.2,78.6c0.4-0.5,0-1.3,0-2.2c0.1-0.5,0.2-0.9,0.3-1.3C128.5,75.5,128.4,78,129.2,78.6"/>
			<path class="st0" d="M77.4,133.9c1.1-0.2,1.3-4.2,1.1-4.6c-0.2,0.3-0.4,0.7-0.4,1.1c-0.1,0.4-0.1,0.8-0.2,1.2
				C77.8,132.3,77.4,133.4,77.4,133.9"/>
			<path class="st0" d="M1.2,93.7C1,93,0.8,92.3,0.6,91.5l-0.3-2.2c-0.1-0.2,0-0.1-0.2-0.2C-0.2,89.6,0,94,1.2,93.7"/>
			<path class="st0" d="M35.7,136.3c0.6,0,1.6-1.2,2-1.7c0.7-0.6,1.3-1.3,1.7-2.1C38,133.5,36.7,134.8,35.7,136.3"/>
			<path class="st0" d="M102.4,125.7c-0.2,0.7-0.3,1.4-0.2,2.1c0,0.7,0.2,1.4,0.4,2.1C102.9,128.5,102.8,127.1,102.4,125.7"/>
			<path class="st0" d="M7.1,127.4c-0.1-0.9-1.6-3.9-2.4-4.2c0.4,1.1,1,2.2,1.6,3.2C6.6,127,6.7,127.3,7.1,127.4"/>
			<path class="st0" d="M40.6,95.3c-0.1,0.4-0.1,0.3,0.1,0.6c0.6,0,0-0.2,0.8-0.4c0.4-0.1,0.9-0.1,1.3,0c0.6-0.1,0.4-0.2,0.9-0.4
				s0.4,0,0.9-0.2c-0.3-0.2-0.3-0.1-0.4-0.1h-0.5C42.7,94.9,41.6,95,40.6,95.3"/>
			<path class="st0" d="M56.1,95.2l1.9,1.9c0.3-0.1,0-0.5,1,0.4c0.2,0.2,0.5,0.4,0.8,0.5c0.7,0.1,0.2,0,0.4-0.1
				c-0.3-0.2-0.7-0.4-1.1-0.6c-0.9-0.8-1.8-1.6-2.7-2.5L56.1,95.2z"/>
			<path class="st0" d="M134.1,122.3c1.5-0.8,2.9-5.4,2.7-7C135.6,116.1,133.8,120.9,134.1,122.3"/>
			<path class="st0" d="M60.1,146.3c0.7,0.5,2.4,0.5,3.8,0.6c1.4,0.3,2.8,0.2,4.2-0.2C67.3,146.3,60.5,146.2,60.1,146.3"/>
			<path class="st0" d="M89.4,53.2c0.5,0,0.9-1.2,1.1-1.6c0.4-0.6,0.6-1.4,0.6-2.1c-0.7,0.4-0.5,1-0.9,1.7
				C89.9,51.8,89.6,52.5,89.4,53.2"/>
			<path class="st0" d="M81.6,102.3c0.4-0.3,0.5-1.3,0.5-1.8l0.2-2.1C81.4,98.7,81.4,101.7,81.6,102.3"/>
			<path class="st0" d="M95.4,59.3c0.8,1.1,4.4,0.4,5.5,0.1c-0.4-0.5-1.9-0.2-2.7-0.1C97.3,59.2,96.4,59.2,95.4,59.3"/>
			<path class="st0" d="M15.6,102.4c-0.1-0.5,0.1-0.5-0.2-0.9c-0.2,0.7-0.3,1.4-0.2,2.1c1-0.8,0.9-1.3,0.7-3.2l-0.3,0.9V102.4"/>
			<path class="st0" d="M14.8,129.8c0.4-0.2,0.9-1.2,1.3-1.7s1.6-1.1,1.7-1.4C16.3,127.1,15.2,128.3,14.8,129.8"/>
			<path class="st0" d="M56.2,80.2c0.6,0.3,0.4,0.2,1.1-0.2c1.2-0.5,2-1.6,2.2-2.9c-0.5,0.6-0.8,1.3-1.3,1.8
				C57.5,79.5,56.6,79.5,56.2,80.2"/>
			<path class="st0" d="M100.9,150.1c0.6,0.1,1.2-0.2,1.6-0.7c0.4-0.5,0.7-1.1,1.1-1.7c-0.6,0.2-1.1,0.6-1.3,1.2
				C101.9,149.8,101.5,149.7,100.9,150.1"/>
			<path class="st0" d="M86.4,130.2c-0.8-0.7-1.6-1.3-2.4-1.8c-0.1,0.5,0.3,0.7,0.7,0.9c0,0.1,0,0.1-0.1,0.2c-0.1,0.4,0-0.2,0,0.2
				c0.4,0.3,0.2,0.2,0.7,0.3l-0.4-0.3C85.6,129.8,85.8,130.3,86.4,130.2"/>
			<path class="st0" d="M133.3,147.3c0-0.1,0.1-0.2,0.1-0.3c0.2-1.9,0.4-3.8,0.4-5.7c0-0.5,0.1-1.1,0.3-1.6c0-0.6,0-1.2-0.1-1.8
				c-0.9,1.2-0.4,7.2-0.9,9l-0.1,0.5L133.3,147.3z"/>
			<path class="st0" d="M58.3,141.4l-0.2-2.1c-0.4,0.7-0.2,6.4,0.6,7.1c0-1.1,0-2.2-0.2-3.3c-0.1-1.4,0.2-0.8,0.2-1.7
				c0-0.6,0-1.1,0.2-1.7l0.2,2.4c0.4-0.6,0.1-3.3,0.3-4.2c0.5-2.9,0-2.1-0.2-3.8c-0.2-1.4-0.1-2.8,0.2-4.1c0.4-1.3,0.6-2.6,0.7-3.9
				c-0.5,0.6-1.6,6-1.6,7c0.1,1.4,0.1,2.8,0.1,4.1C58.3,138.6,58.2,140,58.3,141.4"/>
			<path class="st0" d="M60.8,74.9l0.4,0.1v0.6c1.2-2,2.1-4.1,2.8-6.3c-1,1-1.4,3.4-2.3,4.5c1-2.9,2.1-5.7,3.4-8.4
				c0.2,0.4-0.6,1.3-0.5,2c1.2-2.8,2.3-5.6,3.2-8.5c-1,0.5-1.7,4.4-2.6,5.4c0-0.9,3.9-9.2,3.5-10.4c-0.1,0.1-3.8,9.8-4,10.5
				C63.9,67.7,61.8,71.5,60.8,74.9"/>
			<path class="st0" d="M122,159.3l0.3-1.2c-0.5,0.1-0.7,1.2-1,1.6c-0.6,1-0.4,0.7-1.4,1.3c-1,0.6-2.1,1.1-3.2,1.5
				c-0.5,0.3-0.3,0.1-0.4,0.4c1.6-0.5,3.2-1.2,4.6-2.1c0.4-0.4,0.7-0.8,1-1.3c-0.1,0.3-0.2,0.6-0.3,0.9c-0.4,0.8-0.1,0.2,0,0.8
				c-1.2,1.5-7.7,3.4-8,4.4c3.1-1.1,3-1.4,5.3-2.5c2-0.9,2.7-0.7,3.5-2.3c0.6-1.3,0-0.7,0.2-1.4s0.9-2.1,1.1-2.8
				c0.9-2.9,2.1-5.7,3.5-8.4C125.4,148.4,122.7,158.8,122,159.3"/>
			<path class="st0" d="M133.3,59.6c-1.1,1.2-1.2,2.9-1.5,4.3s-0.9,3-1.2,4.5c-0.3,0.8-0.3,1.6-0.1,2.4c-0.1,0.8-0.3,1.5-0.6,2.2
				c-0.4,1.4-1,2.8-1.8,4.1c-0.4,0.1-0.3-0.1-0.7,0c-0.6,1.4,1.2,2.1,1,1.1c-0.2-1.5,0.2-1.4,0.9-2.7c2.5-4.9,1.1-5.5,1.8-7.7
				c0.3-0.9,0.6-1.9,0.9-2.8c0.3-1.1,0.4-3.4,1.1-4.3C133.3,60.3,133.6,60,133.3,59.6"/>
			<path class="st0" d="M14.3,131.7c0.2,1.4-0.5,0.1,1.1,2.4c0.8,0.2,1.8,2.1,2.1,2.8c0.3,0.9,0.9,1.7,1.8,2c-0.7-1.7-1.7-3.2-3-4.4
				c-0.9-0.8-1.5-1.8-1.6-3c-0.2-0.7-0.2-0.2-0.3-0.7s-0.1-1.1-0.2-1.6c-0.2,0.4-0.2,0.9-0.1,1.4C14,131.3,13.8,131.3,14.3,131.7"/>
			<path class="st0" d="M9.7,109c1.1-0.4,3.1-2.5,3.5-2.7l0.5-0.1c0.3-0.1,0.5-0.5,1.1-0.7c-0.3,0.8-6,4.2-6.9,6.1
				c1.3-0.4,6.5-5.5,7.8-6.4c1-0.7,2-1.4,1.9-2.7c-0.6,1.5-0.8,0.7-2.9,2.2c-1.1,0.7-2.2,1.5-3.2,2.3C10.9,107.6,10.3,108.3,9.7,109
				"/>
			<path class="st0" d="M133.9,137.1c0.5-1-0.3-0.9,0.7-3.5c0.5-1.1,0.1-2.7-0.1-3.9c0-0.2,0-0.4-0.1-0.6h-0.5c-0.1,1,0.1,3,0,4
				S133.3,136.3,133.9,137.1"/>
			<path class="st0" d="M92.2,161.5c-0.2-0.5-0.4-1-0.6-1.5c-0.3-0.6-0.2-1.1-0.5-1.7c-0.4-1-1-1.9-1.4-2.9
				c-0.5-1.1-0.5-2.4,0.1-3.5c0.5-1,1.1-1.8,1.9-2.5c-0.1,0.3-2.8,3.5-1.9,4.9c0.1-0.3,0.1-0.6,0.1-0.9c0.4-1.6,1.2-3,2.4-4.1
				c0.4-0.3,1.6-0.8,1.7-0.9c-1.4-0.1-2.8,0.4-3.7,1.5c-2.3,3.1-1.2,5.2,0.2,7.9C91,158.8,91.5,161.1,92.2,161.5"/>
			<path class="st0" d="M86.5,59.1c1.3,0.3,2.7,0.4,4.1,0.4c1.4-0.2,3,0.4,4.2-0.1c-0.5-0.4-6.7-0.3-7.4-0.8
				c-0.3-0.5,0.6-1.1,0.5-1.7s0.8-1.3,0.8-2c-0.9,0.3-1.5,2.4-1.5,2.7C86.8,58.6,86.5,58.7,86.5,59.1"/>
			<path class="st0" d="M59.6,132.4c0.4-1.2,0.7-2.4,0.9-3.6c-0.1,1.2-0.3,2.4-0.6,3.5c-0.1,0.9-0.4,3.1,0,3.8
				c0.2-1.3,0-2.6,0.3-4.1c0.3-1.2,0.6-2.4,0.8-3.6c0.1-0.3,0.1-0.6,0.2-1c0.3-1.6-0.4,0.3,0.1-2.7c0.3-1.7,1-3.5-0.3-3.3
				c0.2,0.6,0.4,0.1,0.3,1.1c-0.1,1.4-0.5,3-0.7,4.4c-0.1,0.9-0.3,1.8-0.6,2.7C59.8,130.4,59.2,131.8,59.6,132.4"/>
			<path class="st0" d="M66.2,93.7L67,93c-0.4,0.7-0.8,1.5-1.2,2.2c-0.6,1.3-2.8,6.9-2.7,7.7c0.8,0,2-4.4,2.3-5.2s2.2-5.1,2.1-5.6
				C66.9,92.5,66.5,93,66.2,93.7"/>
			<path class="st0" d="M127.4,106.1c0.9-0.5,0.8-3.4,0.9-4.4c0.5-3.5-0.7-2.8-0.3-4.8c0.3-1.7-0.5-0.7,0.5-2.8
				c0.1-0.2,0.1-0.5,0.1-0.7c0-1.3,0.2-5.9-0.2-6.4c-0.6,1.3-0.4,3.4-0.4,4.9l-0.5,4.9c0,0.7-0.4,2.9,0,3.6c0.2,0.4,0.4-0.1,0.3,1
				C127.6,103,127.5,104.5,127.4,106.1"/>
			<path class="st0" d="M17.3,74.7c0.1-0.5,0-0.9-0.1-1.4c-0.4,0.9,0.1,4,0.1,5.2c-0.1,0.6-0.1,1.3,0,1.9c0.3-0.2,0-0.1,0.3-0.5
				c0.1,0.4,0,0.8-0.1,1.2c0.8-0.1,0.6-1.4,0.6-2.4c0.1-0.9,0.1-1.8,0.1-2.7c-0.3,0.3-0.2,0.5-0.2,1c0,0.4-0.1,0.8-0.2,1.2
				c-0.3-2,0.4-5.8,0.1-7.1C17,71.7,17.7,73.9,17.3,74.7"/>
			<path class="st0" d="M11,95.3c0.6,0.3,1.2,0.5,1.9,0.4l-0.3,0.2c1,0.8,2.5,0.4,3.2,1.1l0.4,3.9c0,0.5-0.3,0.8,0.1,1.3
				c0.5-0.6,0.6-3.7,0.4-4.5c-0.3-1.9-2-1.4-3.5-1.8l1-0.1C13.8,95.5,11.2,95,11,95.3"/>
			<path class="st0" d="M69.6,54.2c0.9-0.4,2.4-4.8,2.9-5.9c0.6-1.3,1.9-4.9,3-5.7c-1.1,0.2-3.2,4.2-3.6,5.2s-0.6,2.1-1.1,3.2
				C70.2,52,69.8,53.1,69.6,54.2"/>
			<path class="st0" d="M130.4,78.8c0.5-1-0.4-3.1,0.1-5.1c0.2-0.9,0.1-1.9,0.3-2.7c0.1-0.5,0.7-2.1,0.4-2.5
				c-0.4,0.3-0.7,1.8-0.8,2.3c-0.2,1-0.1,1.7-0.3,2.7S129.8,78.1,130.4,78.8"/>
			<path class="st0" d="M129.1,95.5c0.4-0.5,0.1-0.2,0.3-0.7l-0.1,5.7c0.7-0.7,0.1-3.5,0.7-4.2c0.2,1.1-0.2,4,0.2,4.8
				c0.6-0.7,0.4-6.9,0.3-7.5c-0.1-0.8-0.3-1.6-0.5-2.3c-0.6,0.7,0,1.2-0.4,1.8c-0.3-0.5,0.2-2.4-0.1-3.3c-0.2,0.1,0-0.3-0.3,0.4
				C129,92,129,93.7,129.1,95.5"/>
			<path class="st0" d="M19.1,63.1c0-0.8,0.3-1.4,0.3-2c-0.7,0.6-0.9,3.2-0.9,4.1s-0.7,3.9-0.3,4.6c0.5-0.8,0.5-2.7,0.7-3.6l0.1,0.9
				c0.5-0.5,0.2-3.2,0.9-4.8c0.2-0.4,0.6-0.9,0.6-1.3C19.7,61.1,19.4,62.7,19.1,63.1"/>
			<path class="st0" d="M62.2,105c1,0,0.8-1.9,1.5-4.1c0.5-1.6,1.5-3.1,1.6-4c-0.6,0.3-0.9,1.1-1.2,1.7c-0.4,0.8-2,3-1.9,4
				s0.4-0.5,0.2,1C62.4,104.1,62.2,104.5,62.2,105"/>
			<path class="st0" d="M38.9,128.9c0.4-1-0.3-3.7-0.5-4.7c-0.2-0.8-0.3-1.6-0.4-2.4c-0.1-0.8-0.4-1.3-0.6-2.2
				c0.3,0.1,0.6,0.6,0.9,0.9l3.8,1.9c-0.2-0.5-2.2-1.5-2.7-1.8c-1.1-0.6-1.9-1.7-2.6-2.1c0.1,0.8,0.3,1.7,0.7,2.4
				c0.4,1.7,0.8,3.5,1,5.3l0.3,2C38.7,128.4,38.7,128.8,38.9,128.9"/>
			<path class="st0" d="M97.7,124.9c0.5,0.5,1.4,0.7,1.5,1.8l-0.5-0.5c0.1,0.4,1,2.6,1.2,3.3s0.7,3,1.6,2.8c0.1-0.7-1.1-3.5-1.4-4.3
				S99,124.3,97.7,124.9"/>
			<path class="st0" d="M42.4,105.1c-0.7-0.7-1.5-1.3-2.4-1.7c-0.9-0.4-1.8-0.9-2.6-1.5c-0.9-0.7-1.6-1-1.9-2.2l-0.2-2.9
				c0-0.6,0.1-0.4,0.2-0.8c-0.9,0-0.5,0.7-0.5,1.3c0,0.7,0,1.3,0.1,2c0.1,1.3,0.8,1.8,1.8,2.6S41.3,105,42.4,105.1"/>
			<path class="st0" d="M103.9,130.8c-0.1-1.2,0.1-5.3-0.4-5.9c-0.2,0.1-0.1,0.6-0.2,0.4c0,0.1,0,0.1-0.1,0.1
				c-0.2-0.3,0.1-0.1-0.3-0.3c0.1,2.7,0.8,1.5,0.3,3.8c-0.2,1-0.1,2.1,0.1,3.1v0.1l0.4,0.6C104,132.1,104,131.4,103.9,130.8"/>
			<path class="st0" d="M102.9,100c0.1,0.8,0.1,1.5-0.1,2.3c-0.2-0.6-0.1-1.4-0.5-2c-0.1,0.8,0.3,2.2,0.3,3.1s-0.1,2.2,0,3.2
				l0.2-0.5c0.1,0.5,0,1.4,0.4,1.6C103,107.7,103.7,100.1,102.9,100"/>
			<path class="st0" d="M85.5,103.2c0.8-0.6,0.9-3.1,1.9-3.8c-0.5,1-1,2.1-1.3,3.2c-0.2,0.6-0.4,1.2-0.5,1.8
				c-0.1,0.8-0.3,1.3,0.2,1.8c0.2-0.7,0.3-1.3,0.4-2c0.4-1.5,1-4,2.1-5.2c-0.7,0-0.3,0.1-0.8,0.2c-0.3,0.1-0.8-0.1-1.3,1.4
				C85.8,101.4,85.6,102.3,85.5,103.2"/>
			<path class="st0" d="M44,105.5c-0.2-0.3-0.4-0.3-0.7-0.6s-0.1-0.5-0.7-0.7c0-0.3-0.1,0.4,0.1-0.1s0.1,0.4,0-0.1
				c-1.3-1-2.7-1.9-4.2-2.6c-0.7-0.4-1.3-0.9-1.8-1.5c-0.5-1-0.1-2.2-0.6-2.9c-0.3,1.2-0.2,2.5,0.5,3.5c0.9,0.8,2.3,1.2,4,2.5
				c0.6,0.4,0,0,0.2,0.4C40.9,103.3,43,105.5,44,105.5"/>
			<path class="st0" d="M3.4,119.5c0.3-0.6-0.2-0.9,0.6-2.2c-0.5,0.8-0.4,1.9,0.1,2.7c0.2-0.3,0-0.9,0-1.3c0-0.5,0.1-1,0.3-1.4
				c0.1-0.6-0.2-0.3,0.3-1c1.1-1.6,2.3-3.2,3.6-4.6C7.8,111.7,2.2,117.7,3.4,119.5"/>
			<path class="st0" d="M89.4,54.8c0.5-0.7,0.9-1.4,1.2-2.2c0.2-0.3,0.4-0.6,0.7-0.8l1.1-2.3c0.2-0.6,0-0.6,0.2-1.2
				c0.4-0.8,0.6-1.6,0.8-2.4c-0.3,0.2-0.6,0.5-0.7,0.9l-1.4,3.6C91,51.6,89.4,53.7,89.4,54.8"/>
			<path class="st0" d="M33.7,74.8c0.1,1.4,0,5,0.8,5.9c0.6-0.9,0.1-2.5-0.2-3.4s0.1-3.1-0.3-3.8C33.7,74.1,33.9,74.4,33.7,74.8"/>
			<path class="st0" d="M17.6,103.6c1.1-0.1,1-2.1,0.9-2.9s0-2.9-0.6-3.4C17.6,100.2,18.5,101,17.6,103.6"/>
			<path class="st0" d="M86.7,129.8c0.9,1.2,2.8,1.6,3.8,2.4c-2.2-0.1-4.2-2-5.1-2.1c0.8,0.7,1.6,1.3,2.5,1.7
				c3.4,1.2,2.1,0.5,2.9,0.3c-0.2-0.4-1.6-0.9-2-1.2C88.2,130.4,87.5,130,86.7,129.8"/>
			<path class="st0" d="M98.5,82.3c-0.4,0.2-0.1-0.1-0.6,0.2c0.8,0.4,1.6,0.6,2.5,0.7c0.6,0.1,2.6,0.4,3.1,0.1
				c-0.9-0.6-2.9-0.4-3.8-0.6c-0.2-0.1-0.3-0.2-0.4-0.2s-0.1,0.1-0.5-0.1c-0.1-0.6,0.1-0.6-0.2-1.1C98.3,81.6,98.6,81.6,98.5,82.3"
				/>
			<path class="st0" d="M83.5,128.3c0.4-0.5,0-1.7,0.8-2.6c0.5-0.5,1.3-1,1.8-1.5c-0.4-0.2-0.8,0.1-1.2,0.4
				c-0.4,0.2-0.8,0.5-1.2,0.8C83.2,126.2,82.9,127.6,83.5,128.3"/>
			<path class="st0" d="M87.1,81.5c-0.1,0.2,0.2,0.2,0.1,0.4c-0.8,0-3.2,0-3.5,0.4c1.2,0.3,2.5,0.3,3.7,0.1c0-0.1-0.1-0.1-0.1-0.4
				c1.5,0,3-0.1,4.5-0.4c-0.8-0.3-1.6-0.4-2.4-0.3C87.9,81.6,88.5,81,87.1,81.5"/>
			<path class="st0" d="M78,79.8l0.6-0.4c0.2,0.7-0.2,0,0,0.5c2.1-1.5,1.7-1.2,3.5-1.2c0.2-0.4,0.1,0.1,0-0.5l0.5-0.1
				c-0.8,0-1.6,0-2.4,0.1c-0.6,0-0.3-0.1-0.6-0.1C79.1,78.2,78.2,79.3,78,79.8"/>
			<path class="st0" d="M46.8,123.9c0.8,0.5,2-1.1,2.5-1.6c0.7-0.9,1.6-1.6,1.7-2.9c-0.4,0.3-0.6,1.2-1.9,2.6
				C48.5,122.8,47.7,123.4,46.8,123.9"/>
			<path class="st0" d="M94.6,148.9c0.8,0.5,4.6,2.3,5.3,1.9c-0.8-0.4-1.7-0.8-2.6-1.1c-0.6-0.4-1.2-0.7-1.9-0.9
				C94.9,148.7,95,148.6,94.6,148.9"/>
			<path class="st0" d="M34.2,76.9c0.4-0.5,0.4-2.3,0.4-3c0.1-1.1,0.1-2.1-0.1-3.2c-0.1,0.1-0.1,0.1-0.1,0.2l-0.2,2.9
				C34,74.8,34,75.9,34.2,76.9"/>
			<path class="st0" d="M11.1,125.9c0.7-0.2,5-3.1,5.3-3.7c-1,0.4-1.9,1-2.7,1.6C13,124.3,11.3,125.3,11.1,125.9"/>
			<path class="st0" d="M34,138.9c1.2-1.1,3.4-3,3.9-4.5c-0.7,0.7-1.4,1.4-2.1,2.2C35.3,137.1,34,138.1,34,138.9"/>
			<path class="st0" d="M129.2,78.6c0.4-0.5,0-1.3,0-2.2c0.1-0.5,0.2-0.9,0.3-1.3C128.5,75.5,128.4,78,129.2,78.6"/>
			<path class="st0" d="M77.4,133.9c1.1-0.2,1.3-4.2,1.1-4.6c-0.2,0.3-0.4,0.7-0.4,1.1c-0.1,0.4-0.1,0.8-0.2,1.2
				C77.8,132.3,77.4,133.4,77.4,133.9"/>
			<path class="st0" d="M1.2,93.7C1,93,0.8,92.3,0.6,91.5l-0.3-2.2c-0.1-0.2,0-0.1-0.2-0.2C-0.2,89.6,0,94,1.2,93.7"/>
			<path class="st0" d="M35.7,136.3c0.6,0,1.6-1.2,2-1.7c0.7-0.6,1.3-1.3,1.7-2.1C38,133.5,36.7,134.8,35.7,136.3"/>
			<path class="st0" d="M102.4,125.7c-0.2,0.7-0.3,1.4-0.2,2.1c0,0.7,0.2,1.4,0.4,2.1C102.9,128.5,102.8,127.1,102.4,125.7"/>
			<path class="st0" d="M7.1,127.4c-0.1-0.9-1.6-3.9-2.4-4.2c0.4,1.1,1,2.2,1.6,3.2C6.6,127,6.7,127.3,7.1,127.4"/>
			<path class="st0" d="M40.6,95.3c-0.1,0.4-0.1,0.3,0.1,0.6c0.6,0,0-0.2,0.8-0.4c0.4-0.1,0.9-0.1,1.3,0c0.6-0.1,0.4-0.2,0.9-0.4
				s0.4,0,0.9-0.2c-0.3-0.2-0.3-0.1-0.4-0.1h-0.5C42.7,94.9,41.6,95,40.6,95.3"/>
			<path class="st0" d="M56.1,95.2l1.9,1.9c0.3-0.1,0-0.5,1,0.4c0.2,0.2,0.5,0.4,0.8,0.5c0.7,0.1,0.2,0,0.4-0.1
				c-0.3-0.2-0.7-0.4-1.1-0.6c-0.9-0.8-1.8-1.6-2.7-2.5L56.1,95.2z"/>
			<path class="st0" d="M134.1,122.3c1.5-0.8,2.9-5.4,2.7-7C135.6,116.1,133.8,120.9,134.1,122.3"/>
			<path class="st0" d="M60.1,146.3c0.7,0.5,2.4,0.5,3.8,0.6c1.4,0.3,2.8,0.2,4.2-0.2C67.3,146.3,60.5,146.2,60.1,146.3"/>
			<path class="st0" d="M89.4,53.2c0.5,0,0.9-1.2,1.1-1.6c0.4-0.6,0.6-1.4,0.6-2.1c-0.7,0.4-0.5,1-0.9,1.7
				C89.9,51.8,89.6,52.5,89.4,53.2"/>
			<path class="st0" d="M81.6,102.3c0.4-0.3,0.5-1.3,0.5-1.8l0.2-2.1C81.4,98.7,81.4,101.7,81.6,102.3"/>
			<path class="st0" d="M95.4,59.3c0.8,1.1,4.4,0.4,5.5,0.1c-0.4-0.5-1.9-0.2-2.7-0.1C97.3,59.2,96.4,59.2,95.4,59.3"/>
			<path class="st0" d="M15.6,102.4c-0.1-0.5,0.1-0.5-0.2-0.9c-0.2,0.7-0.3,1.4-0.2,2.1c1-0.8,0.9-1.3,0.7-3.2l-0.3,0.9V102.4"/>
			<path class="st0" d="M14.8,129.8c0.4-0.2,0.9-1.2,1.3-1.7s1.6-1.1,1.7-1.4C16.3,127.1,15.2,128.3,14.8,129.8"/>
			<path class="st0" d="M56.2,80.2c0.6,0.3,0.4,0.2,1.1-0.2c1.2-0.5,2-1.6,2.2-2.9c-0.5,0.6-0.8,1.3-1.3,1.8
				C57.5,79.5,56.6,79.5,56.2,80.2"/>
			<path class="st0" d="M100.9,150.1c0.6,0.1,1.2-0.2,1.6-0.7c0.4-0.5,0.7-1.1,1.1-1.7c-0.6,0.2-1.1,0.6-1.3,1.2
				C101.9,149.8,101.5,149.7,100.9,150.1"/>
			<path class="st0" d="M86.4,130.2c-0.8-0.7-1.6-1.3-2.4-1.8c-0.1,0.5,0.3,0.7,0.7,0.9c0,0.1,0,0.1-0.1,0.2c-0.1,0.4,0-0.2,0,0.2
				c0.4,0.3,0.2,0.2,0.7,0.3l-0.4-0.3C85.6,129.8,85.8,130.3,86.4,130.2"/>
		</g>
	</g>
</g>
</svg>
